<?xml version="1.0" encoding="utf-8"?>
<!-- Generator: Adobe Illustrator 15.0.0, SVG Export Plug-In . SVG Version: 6.00 Build 0)  -->
<!DOCTYPE svg PUBLIC "-//W3C//DTD SVG 1.1//EN" "http://www.w3.org/Graphics/SVG/1.1/DTD/svg11.dtd">
<svg version="1.1" id="Layer_1" xmlns="http://www.w3.org/2000/svg" xmlns:xlink="http://www.w3.org/1999/xlink" x="0px" y="0px"
	 preserveAspectRatio="none" viewBox="0 0 1500 150" enable-background="new 0 0 1500 150" xml:space="preserve">
<g opacity="0.5">
	<path fill="#D3D3D3" d="M375.5,98.499c4.343-3.701,9.111-6.911,14.224-9.555c-19.794-14.533-43.178-25.287-68.774-31.058
		C345.385,67.206,364.685,81.458,375.5,98.499z"/>
	<path fill="#D3D3D3" d="M574.85,70.094c-30.267,0-57.426,9.841-75.979,25.435c-6.597-1.897-13.559-2.936-20.766-2.936
		c-4.042,0-8.005,0.329-11.874,0.945c-12.008-8.168-26.507-12.945-42.124-12.945c-12.397,0-24.08,3.026-34.382,8.352
		c5.679,4.17,11.063,8.648,16.119,13.409c6.188-7.633,15.635-12.514,26.225-12.514c12.751,0,23.847,7.073,29.587,17.51
		c7.273-2.686,15.165-4.172,23.42-4.172c7.585,0,14.862,1.256,21.637,3.541C526.501,87.398,554,75.42,584.408,75.42
		c26.957,0,51.623,9.416,70.663,25.012c0.362-0.01,0.729-0.019,1.093-0.027C637.713,82.012,608.161,70.094,574.85,70.094z"/>
	<path fill="#D3D3D3" d="M950.071,104.122c11.562-9.907,26.782-15.942,43.478-15.942c7.596,0,14.883,1.26,21.666,3.551
		c19.959-21.081,48.708-34.31,80.667-34.31c32.664,0,61.972,13.821,81.97,35.716c0.502-0.435,1.026-0.843,1.567-1.23
		c-16.862-24.049-50.79-40.479-89.903-40.479c-31.004,0-58.747,10.326-77.318,26.585c-4.154-0.385-8.387-0.585-12.682-0.585
		c-23.416,0-44.973,5.891-62.123,15.777c2.951,3.779,5.723,7.68,8.282,11.703C947.102,104.637,948.566,104.376,950.071,104.122z"/>
	<path fill="#D3D3D3" d="M1271.105,65.491c-26.868,0.852-50.767,10.82-66.881,26.099c0.756,0.513,1.49,1.055,2.175,1.656
		c1.017-0.073,2.043-0.143,3.082-0.208c14.67-11.544,33.161-18.449,53.276-18.449c5.274,0,10.43,0.499,15.441,1.406
		c20.371-28.729,52.76-48.917,90.196-53.878c-0.847-0.015-1.695-0.024-2.547-0.024C1324.493,22.093,1288.659,39.736,1271.105,65.491
		z"/>
	<path fill="#D3D3D3" d="M98.409,84.42c19.645,0,38.067,5.014,53.99,13.76c0.72-0.166,1.445-0.334,2.19-0.496
		c31.841-27.6,75.211-44.597,123.028-44.597c14.952,0,29.466,1.673,43.333,4.8c-19.632-7.488-42.571-11.794-67.085-11.794
		c-42.081,0-79.531,12.677-103.549,32.386c-14.882-4.424-31.357-6.887-48.693-6.887c-15.368,0-30.06,1.935-43.565,5.456
		c2.809,3.828,5.256,7.939,7.274,12.291C75.767,86.148,86.877,84.42,98.409,84.42z"/>
</g>
<path fill="#D3D3D3" d="M0,0v47.59c23.843,0,44.96,11.602,58.059,29.458c13.505-3.521,28.197-5.456,43.565-5.456
	c17.336,0,33.812,2.463,48.693,6.887c24.018-19.709,61.468-32.386,103.549-32.386c24.514,0,47.453,4.306,67.085,11.794
	c25.596,5.771,48.979,16.524,68.774,31.058c10.302-5.325,21.985-8.352,34.382-8.352c15.617,0,30.116,4.777,42.124,12.945
	c3.869-0.616,7.832-0.945,11.874-0.945c7.208,0,14.169,1.038,20.766,2.936c18.553-15.594,45.712-25.435,75.979-25.435
	c33.312,0,62.863,11.918,81.314,30.311c0.47-0.012,0.939-0.024,1.409-0.035c29.489-42.769,82.292-71.281,142.55-71.281
	c56.825,0,107.005,25.362,137.27,64.116c17.15-9.887,38.707-15.777,62.123-15.777c4.295,0,8.527,0.2,12.682,0.585
	c18.571-16.259,46.314-26.585,77.318-26.585c39.113,0,73.041,16.431,89.903,40.479c3.563-2.555,7.928-4.065,12.648-4.065
	c4.511,0,8.685,1.396,12.157,3.749c16.114-15.278,40.013-25.247,66.881-26.099c17.554-25.755,53.388-43.398,94.743-43.398
	c0.852,0,1.7,0.009,2.547,0.024c5.89-0.78,11.899-1.197,18.012-1.197c33.36,0,63.799,12.018,86.92,31.793
	c8.251-3.293,17.243-5.123,26.669-5.123V0H0z"/>
</svg>
