<?xml version="1.0" encoding="UTF-8" standalone="no"?>
<svg
   xmlns:dc="http://purl.org/dc/elements/1.1/"
   xmlns:cc="http://creativecommons.org/ns#"
   xmlns:rdf="http://www.w3.org/1999/02/22-rdf-syntax-ns#"
   xmlns:svg="http://www.w3.org/2000/svg"
   xmlns="http://www.w3.org/2000/svg"
   height="1499.996"
   width="107.35"
   xml:space="preserve"
   enable-background="new 0 0 1500 150"
   viewBox="0 0 107.35 1499.996"
   preserveAspectRatio="none"
   y="0px"
   x="0px"
   id="Layer_1"
   version="1.1"><metadata
   id="metadata21"><rdf:RDF><cc:Work
       rdf:about=""><dc:format>image/svg+xml</dc:format><dc:type
         rdf:resource="http://purl.org/dc/dcmitype/StillImage" /><dc:title></dc:title></cc:Work></rdf:RDF></metadata><defs
   id="defs19" />

<g
   transform="rotate(-90,749.998,749.998)"
   id="g30"><g
     style="opacity:0.5"
     id="g12">
	<path
   style="fill:#d3d3d3"
   d="m 375.5,98.499 c 4.343,-3.701 9.111,-6.911 14.224,-9.555 C 369.93,74.411 346.546,63.657 320.95,57.886 c 24.435,9.32 43.735,23.572 54.55,40.613 z"
   id="path2" />
	<path
   style="fill:#d3d3d3"
   d="m 574.85,70.094 c -30.267,0 -57.426,9.841 -75.979,25.435 -6.597,-1.897 -13.559,-2.936 -20.766,-2.936 -4.042,0 -8.005,0.329 -11.874,0.945 -12.008,-8.168 -26.507,-12.945 -42.124,-12.945 -12.397,0 -24.08,3.026 -34.382,8.352 5.679,4.17 11.063,8.648 16.119,13.409 6.188,-7.633 15.635,-12.514 26.225,-12.514 12.751,0 23.847,7.073 29.587,17.51 7.273,-2.686 15.165,-4.172 23.42,-4.172 7.585,0 14.862,1.256 21.637,3.541 C 526.501,87.398 554,75.42 584.408,75.42 c 26.957,0 51.623,9.416 70.663,25.012 0.362,-0.01 0.729,-0.019 1.093,-0.027 C 637.713,82.012 608.161,70.094 574.85,70.094 Z"
   id="path4" />
	<path
   style="fill:#d3d3d3"
   d="m 950.071,104.122 c 11.562,-9.907 26.782,-15.942 43.478,-15.942 7.596,0 14.883,1.26 21.666,3.551 19.959,-21.081 48.708,-34.31 80.667,-34.31 32.664,0 61.972,13.821 81.97,35.716 0.502,-0.435 1.026,-0.843 1.567,-1.23 -16.862,-24.049 -50.79,-40.479 -89.903,-40.479 -31.004,0 -58.747,10.326 -77.318,26.585 -4.154,-0.385 -8.387,-0.585 -12.682,-0.585 -23.416,0 -44.973,5.891 -62.123,15.777 2.951,3.779 5.723,7.68 8.282,11.703 1.427,-0.271 2.891,-0.532 4.396,-0.786 z"
   id="path6" />
	<path
   style="fill:#d3d3d3"
   d="m 1271.105,65.491 c -26.868,0.852 -50.767,10.82 -66.881,26.099 0.756,0.513 1.49,1.055 2.175,1.656 1.017,-0.073 2.043,-0.143 3.082,-0.208 14.67,-11.544 33.161,-18.449 53.276,-18.449 5.274,0 10.43,0.499 15.441,1.406 20.371,-28.729 52.76,-48.917 90.196,-53.878 -0.847,-0.015 -1.695,-0.024 -2.547,-0.024 -41.354,0 -77.188,17.643 -94.742,43.398 z"
   id="path8" />
	<path
   style="fill:#d3d3d3"
   d="m 98.409,84.42 c 19.645,0 38.067,5.014 53.99,13.76 0.72,-0.166 1.445,-0.334 2.19,-0.496 31.841,-27.6 75.211,-44.597 123.028,-44.597 14.952,0 29.466,1.673 43.333,4.8 -19.632,-7.488 -42.571,-11.794 -67.085,-11.794 -42.081,0 -79.531,12.677 -103.549,32.386 -14.882,-4.424 -31.357,-6.887 -48.693,-6.887 -15.368,0 -30.06,1.935 -43.565,5.456 2.809,3.828 5.256,7.939 7.274,12.291 10.435,-3.191 21.545,-4.919 33.077,-4.919 z"
   id="path10" />
</g><path
     style="fill:#d3d3d3"
     d="m 0,0 v 47.59 c 23.843,0 44.96,11.602 58.059,29.458 13.505,-3.521 28.197,-5.456 43.565,-5.456 17.336,0 33.812,2.463 48.693,6.887 24.018,-19.709 61.468,-32.386 103.549,-32.386 24.514,0 47.453,4.306 67.085,11.794 25.596,5.771 48.979,16.524 68.774,31.058 10.302,-5.325 21.985,-8.352 34.382,-8.352 15.617,0 30.116,4.777 42.124,12.945 3.869,-0.616 7.832,-0.945 11.874,-0.945 7.208,0 14.169,1.038 20.766,2.936 18.553,-15.594 45.712,-25.435 75.979,-25.435 33.312,0 62.863,11.918 81.314,30.311 0.47,-0.012 0.939,-0.024 1.409,-0.035 29.489,-42.769 82.292,-71.281 142.55,-71.281 56.825,0 107.005,25.362 137.27,64.116 17.15,-9.887 38.707,-15.777 62.123,-15.777 4.295,0 8.527,0.2 12.682,0.585 18.571,-16.259 46.314,-26.585 77.318,-26.585 39.113,0 73.041,16.431 89.903,40.479 3.563,-2.555 7.928,-4.065 12.648,-4.065 4.511,0 8.685,1.396 12.157,3.749 16.114,-15.278 40.013,-25.247 66.881,-26.099 17.554,-25.755 53.388,-43.398 94.743,-43.398 0.852,0 1.7,0.009 2.547,0.024 5.89,-0.78 11.899,-1.197 18.012,-1.197 33.36,0 63.799,12.018 86.92,31.793 8.251,-3.293 17.243,-5.123 26.669,-5.123 V 0 Z"
     id="path14" /></g>
</svg>