<?xml version="1.0" encoding="UTF-8" standalone="no"?>
<svg
   xmlns:dc="http://purl.org/dc/elements/1.1/"
   xmlns:cc="http://creativecommons.org/ns#"
   xmlns:rdf="http://www.w3.org/1999/02/22-rdf-syntax-ns#"
   xmlns:svg="http://www.w3.org/2000/svg"
   xmlns="http://www.w3.org/2000/svg"
   height="1499.996"
   width="107.349"
   xml:space="preserve"
   enable-background="new 0 0 1500 150"
   viewBox="0 0 107.349 1499.996"
   preserveAspectRatio="none"
   y="0px"
   x="0px"
   id="Layer_1"
   version="1.1"><metadata
   id="metadata9"><rdf:RDF><cc:Work
       rdf:about=""><dc:format>image/svg+xml</dc:format><dc:type
         rdf:resource="http://purl.org/dc/dcmitype/StillImage" /><dc:title></dc:title></cc:Work></rdf:RDF></metadata><defs
   id="defs7" />
<path
   style="fill:#d3d3d3"
   id="path2"
   d="m 89.339,1434.663 c -3.191,-10.434 -4.919,-21.544 -4.919,-33.076 0,-19.645 5.013,-38.067 13.76,-53.99 -0.167,-0.72 -0.334,-1.445 -0.497,-2.19 -27.599,-31.841 -44.596,-75.211 -44.596,-123.028 0,-50.467 18.919,-95.995 49.266,-128.227 -7.632,-6.188 -12.513,-15.634 -12.513,-26.224 0,-12.751 7.073,-23.847 17.509,-29.587 -2.685,-7.274 -4.171,-15.165 -4.171,-23.42 0,-7.585 1.256,-14.862 3.541,-21.637 -19.32,-19.789 -31.299,-47.288 -31.299,-77.696 0,-26.957 9.416,-51.623 25.012,-70.663 -0.023,-0.83 -0.043,-1.667 -0.063,-2.502 C 57.6,812.934 29.088,760.131 29.088,699.873 c 0,-62.367 30.542,-116.74 75.819,-145.552 -0.27,-1.426 -0.531,-2.891 -0.785,-4.396 -9.907,-11.563 -15.942,-26.782 -15.942,-43.478 0,-7.596 1.26,-14.883 3.55,-21.666 -21.08,-19.959 -34.309,-48.708 -34.309,-80.667 0,-32.664 13.821,-61.971 35.716,-81.97 -3.297,-3.812 -5.296,-8.779 -5.296,-14.215 0,-5.494 2.045,-10.506 5.405,-14.332 -0.073,-1.017 -0.143,-2.043 -0.208,-3.082 -11.544,-14.67 -18.449,-33.161 -18.449,-53.277 0,-5.274 0.499,-10.429 1.406,-15.441 C 42.747,198.221 20.92,158.555 20.92,113.589 20.92,80.229 32.938,49.79 52.713,26.669 49.42,18.418 47.59,9.426 47.59,0 H 0 v 1499.996 h 47.59 c 0,-28.956 17.101,-53.903 41.749,-65.333 z" />
</svg>