<?xml version="1.0" encoding="utf-8"?>
<!-- Generator: Adobe Illustrator 15.0.0, SVG Export Plug-In . SVG Version: 6.00 Build 0)  -->
<!DOCTYPE svg PUBLIC "-//W3C//DTD SVG 1.1//EN" "http://www.w3.org/Graphics/SVG/1.1/DTD/svg11.dtd">
<svg version="1.1" id="Layer_1" xmlns="http://www.w3.org/2000/svg" xmlns:xlink="http://www.w3.org/1999/xlink" x="0px" y="0px"
	 preserveAspectRatio="none" viewBox="0 0 1500 150" enable-background="new 0 0 1500 150" xml:space="preserve">
<path fill="#D3D3D3" d="M65.333,89.339c10.434-3.191,21.544-4.919,33.076-4.919c19.645,0,38.067,5.013,53.99,13.76
	c0.72-0.167,1.445-0.334,2.19-0.497c31.841-27.599,75.211-44.596,123.028-44.596c50.467,0,95.995,18.919,128.227,49.266
	c6.188-7.632,15.634-12.513,26.224-12.513c12.751,0,23.847,7.073,29.587,17.509c7.274-2.685,15.165-4.171,23.42-4.171
	c7.585,0,14.862,1.256,21.637,3.541c19.789-19.32,47.288-31.299,77.696-31.299c26.957,0,51.623,9.416,70.663,25.012
	c0.83-0.023,1.667-0.043,2.502-0.063c29.489-42.769,82.292-71.281,142.55-71.281c62.367,0,116.74,30.542,145.552,75.819
	c1.426-0.27,2.891-0.531,4.396-0.785c11.563-9.907,26.782-15.942,43.478-15.942c7.596,0,14.883,1.26,21.666,3.55
	c19.959-21.08,48.708-34.309,80.667-34.309c32.664,0,61.971,13.821,81.97,35.716c3.812-3.297,8.779-5.296,14.215-5.296
	c5.494,0,10.506,2.045,14.332,5.405c1.017-0.073,2.043-0.143,3.082-0.208c14.67-11.544,33.161-18.449,53.277-18.449
	c5.274,0,10.429,0.499,15.441,1.406c23.576-33.248,63.242-55.075,108.208-55.075c33.36,0,63.799,12.018,86.92,31.793
	c8.251-3.293,17.243-5.123,26.669-5.123V0H0v47.59C28.956,47.59,53.903,64.691,65.333,89.339z"/>
</svg>
