<?xml version="1.0" encoding="utf-8"?>
<!-- Generator: Adobe Illustrator 15.0.0, SVG Export Plug-In . SVG Version: 6.00 Build 0)  -->
<!DOCTYPE svg PUBLIC "-//W3C//DTD SVG 1.1//EN" "http://www.w3.org/Graphics/SVG/1.1/DTD/svg11.dtd">
<svg version="1.1" id="Layer_1" xmlns="http://www.w3.org/2000/svg" xmlns:xlink="http://www.w3.org/1999/xlink" x="0px" y="0px"
	 preserveAspectRatio="none" viewBox="0 0 1500 150" enable-background="new 0 0 1500 150" xml:space="preserve">
<g>
	<path fill="#D3D3D3" d="M1500,38.415v-2c-2.305,0.526-4.86,0.981-7.744,1.03C1495.031,37.396,1497.724,38.021,1500,38.415z"/>
	<path fill="#D3D3D3" d="M801.276,71.143c0.097-0.229,0.294-0.506,0.627-0.851c-0.287,0.278-0.996,0.585-1.949,0.879L801.276,71.143
		z"/>
	<path fill="#D3D3D3" d="M694.015,73.467l4.363-0.094c0.146-0.037,0.284-0.072,0.442-0.109
		C697.689,72.818,695.355,73.369,694.015,73.467z"/>
	<path fill="#D3D3D3" d="M1132.497,63.965l2.726-0.061c-0.001-0.012-0.005-0.022-0.005-0.035
		C1134.139,63.855,1133.248,63.893,1132.497,63.965z"/>
	<path fill="#D3D3D3" d="M1156.004,63.455l4.902-0.105C1159.27,63.223,1157.598,63.232,1156.004,63.455z"/>
	<path fill="#D3D3D3" d="M0,0v56l102.646,2.594c0.962-0.51,1.653-1.06,1.99-1.652c9.222,0.666,20.336-0.35,34.479-2.061
		c0.445-1.107-1.472,2.909,5.018,2.744l14.032-4.482l1.132,0.967c5.955-4.174,25.393-2.313,32.337-5.942l-0.731,2.627
		c13.732-2.957,33.318-3.05,44.177-7.251c-3.073,3.059,6.178,1.354,12.528,0.768l-6.089,3.765c7.897-1.733,7.512,1.778,15.623,0.204
		c-2.789,0.897-6.272,1.914-5.713,2.512c9.364,1.055,10.287-3.508,19.039-1.76l-0.967-2.9c12.367,2.699,14.252,1.034,28.646,2.465
		c4.062-2.51,3.073-5.408,9.867-7.109c2,1.095,1.125,3.312,10.354,1.599c0.452-1.121-2.854-1.233-5.447-1.634
		c17.881-2.733,40.392-6.356,59.25-6.241c-9.798,2.433,4.155,2.586,3.149,4.392l18.713-2.677c-5.153,1.58-17.718,3.228-27.362,6.068
		c5.04,2.725-6.377,7.655,6.729,7.688c5.064-1.988-4.038-2.178,4.35-4.055c3.571,0.938,7.458,0.346,12.245-0.121
		c-0.296,1.528-5.627,2.689-4.35,4.057c6.354-0.617,9.665-2.862,10.109-3.979c1.022,0.541-1.006,1.813,3.173,2.037
		c9.625-0.506,5.341-3.5,5.776-4.613c4.481,1.077,10.853,5.638,18.278,1.043l-6.568,4.771c7.18-0.348,7.834-3.391,16.908-2.908
		c-7.949,0.49-14.715,2.097-10.894,3.936c10.163-3.752,22.36,2.205,27.954-3.363l-1.714,5.188c14.468,0.229,5.377-3.644,15.39-5.086
		c-3.812,0.772-0.278,1.925-4.921,2.524c1.197,1.433,10.797,1.523,17.88,1.16c28.292-1.451,51.109,1.31,78.892-2.108
		c0.006-0.019-0.002-0.036,0.002-0.054c0.126,0.662,0.606,1.222,2.712,1.582c28.763,0.9,41.148-4.076,71.045-1.762
		c3.13,3.231,15.2,0.385,22.922,2.766c10.578-2.494,24.545-2.389,38.48-1.883c13.931,0.52,27.841,1.422,38.154,0.828
		c-15.026,3.957-33.667,5.91-53.296,6.744c-19.632,0.848-40.246,0.59-59.35,0.502c0.926,0.652,0.285,1.282,2.732,1.526
		c-36.277,1.573-77.325-1.375-109.546,2.538l-0.209-0.846c-13.451-0.166-12.719,2.817-23.495,3.812
		c1.341-0.872,7.546-1.382,4.794-2.832c-4-0.194-21.65,1.651-30.037-0.127c-6.623,1.746-1.484,3.229-10.588,4.478l-4.801-2.961
		c-8.402,1.077-13.466,0.106-22.255,2.455l4.872,0.891l226.758,5.729c2.37-1.368,4.198-0.448,6.594,0.167l5.373,0.137
		c0.217-0.049,0.427-0.086,0.652-0.149c1.348-0.771-4.738-1.349,1.187-1.681l-0.29,0.74c8.172-0.746,12.875-3.213,19.567-4.049
		c1.184,2.577-5.56,3.805-12.433,5.357l8.529,0.216c0.975-0.103,2.06-0.187,3.3-0.244c0.201,0.118,0.375,0.229,0.537,0.341
		l4.683,0.118l1.046-0.022c-0.509-0.022-0.715-0.197-0.35-0.699c1.516-1.121,4.557-0.786,5.164-2.262
		c-3.789-1.062-2.881-0.703-7.896-0.088c0.456-1.104,2.901-1.877,0.623-2.76c12.479-2.003,25.216,1.79,35.292-1.883
		c-1.396,2.009,13.376,1.105,5.146,2.934l-0.606-1.102c-6.693-0.561-14.635,3.141-15.705,4.432
		c12.633-2.242,14.745-0.957,28.604-2.195c-5.374,2.543,7.896,0.219,4.814,2.406c3.18,0.014,6.703-0.691,9.282-0.49
		c-7.266-1.703,5.37-2.529,4.056-4.365c-4.27-0.044-8.723,1.581-8.897,3.229c-2.744,0.168-2.554-1.48-2.075-2.582L738.223,68
		c10.964-0.693-0.374-5.322,9.528-4.73c2.588,0.195-0.218,2.935,6.655,1.873c1.233-0.074,1.523-0.527,1.222-0.951
		c-1.082-0.246-2.135-0.508-3.168-0.707c1.589-0.291,2.807,0.188,3.168,0.707c2.826,0.643,5.981,1.14,10.013,0.181
		c-0.039-0.187-0.148-0.351-0.554-0.425l1.521,0.199c-0.331,0.096-0.644,0.146-0.969,0.226c0.157,0.737-1.423,2.062,3.811,1.821
		c7.164-0.477,3.137-3.454,4.523-4.17l-1.521-0.199c3.297-0.648,0.469-2.008,5.403-3.467c0.279-0.117,0.608-0.227,1.103-0.312
		c-0.455,0.103-0.747,0.208-1.103,0.312c-1.351,0.593-0.114,1.414,3.2,0.994c4.737-1.35-4.604-4.586,3.054-4.045
		c0.266-0.012,0.541,0.004,0.871,0.062l-0.871-0.062c-1.353,0.053-1.769,0.914,0.537,0.791c10.602-2.057-1.155-2.217,1.515-4.565
		c8.867-0.603,6.438-1.191,15.312-1.784c-5.517,0.275-1.438,1.99-5.581,2.846c6.57-0.264,5.178,0.45,9.73,1.073
		c-4.233-2.11,2.396-2.726,2.077-3.719c0.363,0.021,0.729,0.043,1.098,0.065c-0.879,0.43-1.701,0.996-2.357,1.836l8.063,1.24
		c-1.897,1.796-11.824,2.36-7.478,4.635c7.751,0.692-3.614,3.243,5.414,2.297c-0.94-3.867,13.416-4.695,11.261-8.217
		c-3.979,0.473-6.9,0.963-6.69-0.68c8.796,0.165,4.521-2.686,10.258-2.049l1.686,0.455l-0.938,1.076
		c1.077,0.153,1.875-0.256,2.85-0.561l1.536,0.414c-0.299,0.443-0.883,0.896,1.08,1.178c0.297-0.246,0.651-0.438,1.035-0.604
		l0.765,0.206c-0.538,0.266-0.902,0.531-0.912,0.789c3.22,0.354,2.748-0.605,4.148-0.912c0.486,0.193,1.019,0.363,1.589,0.514
		c-0.719,0.999-3.139,2.581,1.129,2.159c0.321-0.042,0.653-0.083,1.013-0.12c-0.376,0.053-0.708,0.09-1.013,0.12
		c-11.391,1.483-0.928,5.728-13.862,6.524c5.243,2.675,10.543-0.694,17.397-0.355l-3.039-0.434c0.613-0.17,1.686-0.148,2.135,0.049
		c1.896-1.791-6.354-1.428-5.52-3.243l3.312,0.995c-0.122-0.924,6.011-1.332,4.21-2.111l-5.215,0.799
		c5.148-0.854,9.926-1.922,14.578-3.055c5.754,0.193,11.323,0.471,14.479,1.941l-0.85-2.592c13.853,2.332,33.423,1.535,44.46,5.239
		c-2.048-1.86,1.011-2.011,5.146-1.799c0.108,0.308,0.517,0.579,1.341,0.776c1.526-0.098,2.686-0.256,3.591-0.455
		c0.825,0.057,1.636,0.105,2.402,0.143l-0.999-0.557c2.896-1.135,1.741-2.961,6.981-3.881c-0.331-0.051-0.622-0.108-0.89-0.17
		c1.129-0.084,2.478-0.051,4.25,0.211c-2.827-0.771-6.353-1.629-5.821-2.25c9.307-1.479,10.437,3.037,19.1,0.894l-0.835,2.94
		c12.23-3.258,14.191-1.68,28.505-3.762c4.173,2.322,3.315,5.264,10.181,6.655c1.948-1.185,0.974-3.358,10.271-2.067
		c0.503,1.101-2.796,1.362-5.366,1.881c17.986,1.918,40.639,4.517,59.472,3.545c-9.898-1.984,4.034-2.771,2.946-4.528l18.814,1.824
		c-5.219-1.345-17.845-2.419-27.608-4.82c1.214-0.729,1.415-1.548,1.231-2.376c2.824,0.003,5.499-1.541,9.284-0.829
		c0.34-0.471,1.142-0.914,2.144-1.34c3.068-0.544,6.459-0.231,10.481-0.022c-0.238-0.986-2.597-1.721-3.88-2.506
		c0.746-0.402,1.137-0.81,0.896-1.228c5.378,0.556,8.281,2.392,8.735,3.396c0.996-0.588-1.088-1.767,3.076-2.18
		c9.639,0.068,5.494,3.254,5.979,4.348c4.429-1.279,10.586-6.125,18.213-1.873l-6.777-4.468c7.188,0.021,7.979,3.031,17.021,2.14
		c-7.962-0.131-14.795-1.428-11.061-3.438c10.322,3.288,22.236-3.217,28.076,2.092l-1.945-5.104
		c0.405-0.025,0.787-0.046,1.156-0.062c0.164,0.283,0.334,0.556,0.573,0.81l6.12-0.264c0.671,0.108,1.135,0.637,1.755,1.226
		c0.735,1.034,1.302,2.213,5.999,2.674c-1.41-0.22-1.832-0.535-2.035-0.866c5.532,1.135,22.409-0.252,26.546-3.154
		c2.941,1.793-6.654,1.334-5.223,2.867c4.359,1.129,9.417-1.381,13.958-0.611l1.489-1.943c-1.686,0.1-2.571-0.307-3.37,0.205
		c-0.778-0.525-0.135-0.902,1.002-1.197c1.28-0.057,2.551-0.117,3.816-0.181c0.149,0.698,6.424,0.606,7.541,1.798
		c9.413,0.831,21.843-2.221,26.834-1.232c1.502-0.902,3.271-1.552,5.182-2.076c5.169,0.039,10.453,0.227,15.943,0.649
		c0.008,0.019,0,0.034,0.005,0.052c0.097-0.666,0.554-1.246,2.638-1.701c28.691-2.205,41.292,2.205,71.053-1.463
		c2.98-3.371,15.166-1.074,22.773-3.804c2.726,0.515,5.667,0.847,8.764,1.04c0.14,0.854,1.508,1.614,5.334,2.209
		c3.997-1.546,2.224,0.312,5.535,0.594c3.809-0.832,4.354-1.709,6.021-2.834c3.701-0.181,7.477-0.445,11.257-0.746
		c-0.125,1.297-11.006,2.436-1.099,3.199l3.194-2.8c2.775,2.842,9.896,3.218,17.298,2.322c-1.425,0.942-1.771,1.86,0.033,2.728
		c-0.447-2.17,9.559-0.941,7.438-3.253c-1.651-0.146-3.512,1.353-5.881,0.315c4.394,0.265,3.641-0.633,6.739-1.428
		c6.924,2.028-3.934,1.906,5.733,4.053c6.548,0.22,13.021,0.08,17.764-0.571l-4.129-1.543l6.096-1.946
		c1.078-0.023-4.545,4.096,3.114,1.93c4.078-1.179-0.619-2.894,2.888-4.233c-4.458-0.63-8.046,0.353-12.358,0.44l0.878,1.617
		l-3.963-0.824c1.564-2.938,14.674,0.233,14.983-3.405c-0.167,1.059,1.464,1.479,3.365,1.68c0.651,0.413,2.227,0.666,5.173,0.538
		c0.077-0.02,0.127-0.038,0.194-0.057c0.205,0.146-0.061,0.378-1.07,0.766c7.488-0.52,0.55-2.559,6.293-3.582l3.465,1.02
		c5.758-1.028-3.708-2.103,1.542-2.934c-0.695,1.823,4.938,2.805,7.811,3.652l-3.446,0.797l-1.502-0.314
		c0.743-0.524,1.438-1.138-1.656-1.078c-2.315-0.679-12.505,2.438-8.216,4.713c3.884,0.464,5.588-1.75,9.32-2.006
		c-0.236,3.996,8.126,0.015,6.88,4.399c7.988-0.704,5.796-3.384,7.57-5.233c0.73,0.892-1.554,2.935,3.188,2.297l-0.033-2.234
		c-0.035-0.154-0.043-0.314-0.008-0.486l0.008,0.486c0.462,2.027,6.71,2.658,10.571,3.661l2.36,1.983
		c5.12-1.053,11.126-2.231,6.607-3.312l-3.796-0.17c3.172-0.879,8.767-2.939,14.15-3.916c-1.846,0.427-7.999,3.99-1.935,5.46
		c2.984-0.685,5.059-1.411,7.492-2.065V0H0z M1342.122,23.04l0.608,0.284l-1.129,0.548c-0.198,0.004-0.396,0.008-0.598,0.013
		C1341.379,23.565,1341.791,23.272,1342.122,23.04l-0.732-0.34C1343.186,22.27,1342.888,22.502,1342.122,23.04z M1274.961,20.734
		c7.744,0.967-1.947,1.741-2.302,2.452c1.897,0.422,3.338,0.955,4.783,1.473c-1.757,0.063-3.518,0.132-5.281,0.206
		C1271.999,23.433,1268.745,22.462,1274.961,20.734z M1250.686,20.01c9.243,1.222-3.462,3.676,8.634,3.576
		c-2.804,1.406-2.248,1.258-3.299,2.038c-1.041,0.053-2.081,0.105-3.122,0.159c0.834-0.177,1.542-0.521,2.062-1.143
		c-7.641-0.027-7.293-0.747-10.062-2.907C1249.627,22.157,1247.754,20.407,1250.686,20.01z M1250.367,25.912
		c-1.596,0.082-3.188,0.162-4.776,0.242c-0.015-0.055-0.032-0.106-0.046-0.164c-4.627,0.497-1.692,0.096-5.967-0.126
		C1242.921,24.653,1247.076,25.726,1250.367,25.912z M555.432,47.027c0.469,0.617,0.4,1.224,0.438,1.774
		c-0.567-1.286-6.395-2.172-10.269-3.198c-9.668-0.554-19.891,0.002-28.049-0.871c17.485-3.615,49.308,0.111,69.344-2.467
		c-1.772,2.725-16.398,1.18-22.464,2.353l13.861,1.739L555.432,47.027z M837.032,50.525l0.104-0.098
		c0.021,0.014,0.044,0.023,0.063,0.036C837.145,50.484,837.088,50.505,837.032,50.525z M919.547,52.727
		c1.451,0.25,2.615,0.336,3.606,0.321c-0.709,0.175-1.368,0.377-1.964,0.595L919.547,52.727z M928.24,52.396
		c-0.539,0.094-1.062,0.113-1.584,0.112c0.057-0.016,0.111-0.032,0.169-0.048C927.298,52.423,927.77,52.393,928.24,52.396z
		 M1045.608,48.641c-0.81-1.635-2.039-3.168,1.202-3.978c1.664,0.216,3.594,0.383,5.976,0.483c0.021,0,0.033-0.002,0.053-0.004
		c0.294,0.861-2.381,1.437,0.208,2.252C1050.967,48.033,1047.866,48.312,1045.608,48.641z M1293.776,25.909
		c0.896-0.695,0.227-1.295,2.661-1.65c-2.125,0.004-4.27,0.028-6.424,0.062c3.194-0.612,6.513-1.115,0.611-2.011
		c1.189-1.055,3.767-1.453,6.559-1.767c0.636-0.27,1.911-0.473,4.451-0.577l0.131,0.056c1.853-0.266,3.403-0.664,4.413-1.323
		c-0.223-0.333-0.169-0.598,0.795-0.649c-0.17,0.263-0.499,0.454-0.795,0.649c0.522,0.834,2.833,2.188-2.308,2.304l-2.105-0.98
		c-1.475,0.203-3.051,0.35-4.582,0.521c-1.726,0.735,1.812,1.974,0.375,3.241c4.721-0.059,10.68-0.18,13.631,1.245
		C1305.297,25.32,1299.466,25.624,1293.776,25.909z M1314.104,24.888c0.021-0.614-1.078-1.274,0.353-2.025
		c-2.134-0.109-3.833-0.02-4.537-0.794c6.838,0.554,6.217-3.7,16.288-2.965c9.407,0.888-0.026,2.202,3.809,4.433
		c1.415,1.551,3.113-0.746,5.685-0.416l0.679,0.881C1328.942,24.217,1321.48,24.533,1314.104,24.888z M1447.388,28.961l1.129,0.352
		l-1.233,0.285C1446.421,29.615,1446.873,29.318,1447.388,28.961z M1479.993,31.895l-2.62-0.117c1.186-1.986,1.723-4.34,5.791-4.146
		c-0.464-0.559-2.446-0.382-3.73-0.126c-0.33,0.155-0.7,0.297-1.082,0.396c-0.221-0.064,0.309-0.243,1.082-0.396
		c2.205-1.062,3.152-3.062,7.748-1.403C1483.395,28.309,1484.012,29.219,1479.993,31.895z"/>
	<path fill="#D3D3D3" d="M932.157,53.739c7.641-0.048,7.124-0.658,4.608-1.451C937.125,52.99,934.439,53.277,932.157,53.739z"/>
	<path fill="#D3D3D3" d="M936.663,52.04c-0.578-0.116-1.008-0.153-1.521-0.226c0.619,0.162,1.141,0.326,1.623,0.474
		C936.722,52.205,936.812,52.139,936.663,52.04z"/>
	<path fill="#D3D3D3" d="M1223.432,41.396c-9.634,0.99-19.869,0.9-27.98,2.144c17.633,2.817,49.251-2.351,69.385-0.683
		c-1.895-2.643-16.436-0.437-22.548-1.332l13.769-2.365l-22.869,0.367c0.438-0.637,0.345-1.239,0.357-1.793
		C1233.033,39.045,1227.254,40.193,1223.432,41.396z"/>
	<path fill="#D3D3D3" d="M1233.567,37.428c-0.016,0.102-0.021,0.203-0.023,0.307C1233.583,37.633,1233.595,37.531,1233.567,37.428z"
		/>
	<path fill="#D3D3D3" d="M1269.396,48.318l2.068-2.692c-7.275,1.11-10.169-0.413-15.323,2.054L1269.396,48.318z"/>
	<polygon fill="#D3D3D3" points="1263.855,39.518 1274.974,38.801 1268.015,38.18 	"/>
	<path fill="#D3D3D3" d="M1101.659,50.941c8.948,0.662,17.913,1.189,26.887,1.61c-8.405-0.562-16.8-1.222-25.175-1.993
		L1101.659,50.941z"/>
	<path fill="#D3D3D3" d="M931.3,56.686l11.63,1.604c-2.955-0.992-7.091-0.547-9.921-1.958L931.3,56.686z"/>
	<path fill="#D3D3D3" d="M816.859,59.298c-5.896,3.915-1.643-0.339,2.599,3.942C818.284,61.73,823.49,60.205,816.859,59.298z"/>
	<path fill="#D3D3D3" d="M819.684,63.471c-0.074-0.082-0.149-0.154-0.226-0.229C819.518,63.316,819.588,63.395,819.684,63.471z"/>
	<path fill="#D3D3D3" d="M802.014,57.561c-2.187-0.737-4.401-1.477-8.43-1.444C796.529,57.098,796.648,59.443,802.014,57.561z"/>
</g>
</svg>
