<?xml version="1.0" encoding="UTF-8" standalone="no"?>
<svg
   xmlns:dc="http://purl.org/dc/elements/1.1/"
   xmlns:cc="http://creativecommons.org/ns#"
   xmlns:rdf="http://www.w3.org/1999/02/22-rdf-syntax-ns#"
   xmlns:svg="http://www.w3.org/2000/svg"
   xmlns="http://www.w3.org/2000/svg"
   height="1500.1836"
   width="100.39668"
   xml:space="preserve"
   enable-background="new 0 0 1500 150"
   viewBox="0 0 100.39668 1500.1836"
   preserveAspectRatio="none"
   y="0px"
   x="0px"
   id="Layer_1"
   version="1.1"><metadata
   id="metadata9"><rdf:RDF><cc:Work
       rdf:about=""><dc:format>image/svg+xml</dc:format><dc:type
         rdf:resource="http://purl.org/dc/dcmitype/StillImage" /><dc:title></dc:title></cc:Work></rdf:RDF></metadata><defs
   id="defs7" />
<path
   style="fill:#d3d3d3"
   id="path2"
   d="M 10.446,0.18764425 H 8.914 0 V 1500.1836 h 73.942 14.725 c 0.229,-0.753 0.502,-1.604 0.468,-2.478 0.036,0.912 0.262,1.727 0.539,2.478 h 6.466 c 0.09,-1.966 0.271,-3.739 1.223,-2.282 -0.225,-0.63 -0.734,-1.206 -0.62,-2.587 l 0.985,-0.21 c -0.254,-1.992 -0.445,-4.215 0.109,-4.789 0.234,1.078 0.67,1.441 1.104,1.797 0.172,-8.422 -3.229,-1.78 -3.317,-9.239 l 0.64,0.086 -0.672,-1.874 c 0.352,-0.591 0.776,-1.021 1.33,-0.897 -0.277,-1.005 -0.586,-0.541 -0.911,-0.166 l 0.384,-0.939 c -2.187,-2.688 0.197,-10.47 -0.961,-14.974 -0.181,-1.771 1.115,-4.102 0.973,-7.467 l -0.986,0.219 c 1.004,-2.716 1.637,-12.825 3.922,-15.359 -0.765,-2.553 -0.207,0.269 -0.988,0.212 -0.377,-1.83 -0.406,-3.032 -0.264,-3.953 1.085,-0.289 1.766,1.93 2.251,-1.072 0.252,-2.008 -0.415,-2.858 -1.021,-3.618 -0.065,-0.243 -0.117,-0.288 -0.164,-0.208 -0.439,-0.565 -0.799,-1.133 -0.654,-2.157 -0.082,0.044 -0.131,0.112 -0.186,0.176 -0.287,-1.191 -0.77,-2.125 -0.649,-4.625 0.226,0.061 0.444,0.015 0.655,-0.075 0.046,0.31 0.105,0.596 0.209,0.765 -0.062,-0.249 -0.115,-0.512 -0.165,-0.786 0.438,-0.199 0.827,-0.51 1.101,-0.13 -0.191,-1.025 -0.438,-1.972 -1.095,-2.41 -0.087,0.333 -0.168,0.579 -0.244,0.764 -0.201,-2.115 -0.209,-4.659 -0.187,-7.293 0.418,0.506 0.862,3.434 1.438,0.778 -0.569,-1.221 -1.011,-1.447 -1.435,-1.385 0.022,-2.141 0.056,-4.32 0.016,-6.364 0.48,-0.345 1.375,1.199 1.922,-1.165 -0.24,-1.077 -1.339,-0.392 -1.062,-2.128 -0.274,0.206 -0.51,0.364 -0.715,0.51 0.58,-6.838 0.881,-16.058 1.694,-23.493 l -0.358,-0.15 c 0.922,-3.375 0.062,-7.035 0.474,-10.982 l -0.524,1.929 c -0.623,-2.577 -0.229,-4.024 -0.494,-6.462 l 1.033,-1.361 c -0.34,-2.641 -0.875,-1.166 -1.412,-3.083 0.656,-2.41 0.051,-7.486 0.098,-8.629 0.479,-0.793 0.66,0.987 0.949,1.372 -0.348,-3.095 -1.336,-2.876 -1.348,-6.723 l 0.28,-0.063 c -1.472,-9.188 -1.085,-20.836 -2.017,-31.056 -0.054,0.693 -0.271,0.519 -0.478,0.786 -0.375,-10.788 -0.431,-23.237 -2.881,-31.767 0.269,5.83 -1.363,15.707 0.467,21.651 -0.735,2.199 0.33,5.588 -0.713,6.5 -0.032,0.599 -0.05,1.167 -0.062,1.72 -0.625,1.031 -1.103,3.031 -2.123,1.116 -1.267,-1.176 -1.099,-4.147 -1.355,-6.238 -1.434,1.795 -2.047,-0.2 -2.531,-2.354 -0.035,2.809 -1.672,0.719 -0.727,4.018 l -1.152,0.065 c 0.02,-1.406 0.52,-3.069 0.543,-4.474 0.312,0.292 0.572,-0.033 0.762,0.427 l -0.52,-4.185 0.762,0.426 c 0.129,-2.579 1.004,-5.749 0.577,-7.286 0.11,1.242 -1.022,2.318 -1.358,1.015 -0.5,-0.753 -1.059,-2.125 -0.948,-3.299 1.319,-0.62 1.284,-5.063 2.625,-2.253 -0.688,-3.624 -0.931,-2.286 -1.746,-5.75 l 0.351,2.32 c -1.058,0.292 -2.826,-1.635 -3.494,0.587 -0.672,-2.612 -2.552,-0.946 -2.789,-4.444 0.641,-1.42 2.141,0.424 2.41,2.387 0.084,-0.989 0.663,-1.888 -0.066,-2.91 0.871,-0.748 1.543,1.862 1.895,1.764 0.057,-1.798 -0.574,0.034 -0.871,-1.663 -1.211,-2.973 1.784,-1.894 1.023,-4.737 0.055,0.622 -0.281,1.728 -0.783,0.981 0.021,-3.821 -1.061,-2.125 -1.6,-4.9 1.527,-1.568 3.184,-0.881 3.535,-3.391 l -0.021,1.399 c 0.781,-0.979 1.117,-2.088 1.097,-3.102 -1.336,-5.225 -3.679,-9.537 -4.886,-14.924 l 0.392,1.927 c -0.523,0.652 -0.652,-1.607 -1.23,-1.574 l 0.689,-1.205 c -1.115,-0.329 -1.062,2.708 -2.14,1.989 0.134,-0.163 0.168,-0.557 0.074,-0.785 l -0.333,1.113 c 0.354,-2.517 -1.637,-4.509 0.148,-6.403 0.224,4.902 3.254,0.75 3.828,5.552 -0.445,-2.543 1.189,-0.452 1.676,-0.713 0.242,-1.34 -0.855,-0.657 -0.485,-2.161 0.803,0.035 1.528,3.27 2.121,1.832 -1.245,-0.164 -1.002,-1.501 -1.856,-2.153 0.336,-1.111 0.799,0.028 1.19,-0.46 -0.056,-0.618 -0.599,-0.981 -0.431,-1.534 l 0.767,0.421 c 1.099,-3.099 -1.172,-0.944 -0.84,-4.469 -1.021,-0.1 -0.781,0.98 -0.576,2.448 -2.248,0.746 -2.437,-4.541 -4.869,-4.25 -0.376,-3.333 0.945,0.882 1.562,-1.958 1.523,-1.565 1.638,2.09 2.716,2.812 l 0.965,-2.944 c 1.973,0.983 1.338,2.812 3.125,3.334 0.094,-2.188 -0.392,-1.927 -1.099,-4.15 -1.487,3.594 -1.227,-1.564 -3.141,0.49 0.5,-1.664 0.91,-1.141 0.91,-3.558 0.43,1.534 1.602,0.062 1.637,2.091 -0.147,-3.265 -0.578,-2.383 -0.723,-5.647 -1.396,-1.017 -1.805,3.298 -2.809,-0.627 -0.017,-0.849 0.512,-0.683 0.508,-0.185 0.543,-2.804 -1.729,0.576 -2.441,-1.186 -0.172,-1.225 0.375,-1.666 0.707,-1.16 -0.773,-1.837 -1.699,-0.82 -2.012,-2.043 l -0.168,0.556 c -0.406,-0.522 -2.379,0.911 -2.473,-1.733 0,-1.93 0.78,-1.326 1.246,-1.371 -0.48,-1.5 -0.076,-2.652 0.409,-3.68 -0.272,0.104 -0.547,-0.011 -0.555,-0.466 -0.449,-2.548 1.172,-1.465 1.375,-2.414 0.688,-3.63 -2.565,0.453 -2.642,-3.596 l -0.444,4.703 c -0.673,-0.196 -1.695,-0.297 -1.677,0.717 1.022,0.095 1.898,1.764 1.746,3.334 -1.188,0.453 -1.319,-4.217 -2.603,-1.571 0.203,-0.947 -0.128,-2.258 -0.019,-3.43 1.265,1.176 0.242,-3.757 1.654,-1.729 -0.314,-5.13 0.561,-5.88 -0.371,-10.584 0.764,0.424 2.774,3.428 2.196,5.878 l -0.707,0.201 c 0.854,3.067 0.802,-2.39 2.009,-1.833 -1.935,-3.787 0.913,-8.39 0.207,-13.026 -0.648,0.815 -1.025,-0.104 -1.691,-0.3 0.166,1.862 0.43,1.537 -0.391,2.906 -0.896,-0.26 -0.56,-1.372 -1.191,-1.959 -0.985,-0.489 -0.016,1.403 -0.539,2.062 -0.521,-1.77 -0.652,-1.602 -1.469,-2.651 0.779,-0.978 1.227,-0.846 2.102,-1.598 0.182,-4.247 -1.471,-3.921 -1.262,-7.121 -0.029,1.168 0.753,-0.516 0.76,0.344 l 0.057,-0.606 c 1.434,3.039 1.396,8.265 3.738,7.744 -0.223,-2.483 -1.543,-4.282 -1.598,-7.315 l 0.445,0.128 c 0.094,-2.191 -0.574,0.033 -0.986,-0.487 -0.801,-2.452 2.252,-3.171 0.58,-4.865 l -0.356,2.509 c -0.965,-1.894 -0.168,0.557 -1.729,0.101 -1.172,-3.365 -0.387,-9.181 -1.539,-13.949 -0.82,1.371 -0.854,1.761 -0.914,3.56 -2.102,-0.813 -1.805,-1.537 -3.608,-0.658 l -0.094,2.19 -1.95,0.032 c -0.034,-0.599 0.07,-1.192 0.259,-1.723 -1.224,-0.301 0.371,-3.321 -0.797,-3.469 l 0.164,1.862 c -1.004,0.914 -0.91,-1.278 -1.242,-2.584 -1.266,1.242 0.07,4.051 0.163,6.695 0.708,-0.191 2.178,2.45 2.311,-0.128 0.797,0.033 1.227,1.57 1.242,2.584 -0.359,-0.468 -1.757,1.446 -2.474,0.236 0.499,1.414 -0.174,0.663 0.224,2.929 -0.539,-0.358 0.034,4.443 -1.656,4.148 0.722,0.81 2.496,-0.042 2.578,2.911 1.168,-0.717 1.336,-4.009 2.594,-1.801 l -0.781,-1.436 c 0.539,-2.057 1.211,0.561 1.691,-2.124 -0.074,0.788 0.578,2.388 -0.262,2.744 2.477,-0.688 1.229,3.985 3.051,4.115 -0.742,0.591 -0.817,1.373 -0.613,2.85 -0.672,-0.202 -1.32,0.614 -1.785,-0.53 0.202,-0.946 -0.074,-1.632 0.484,-2.678 -2.461,0.581 -0.773,3.816 -1.291,6.265 0.197,-0.343 0.434,-0.44 0.787,0.237 -0.371,1.497 -0.801,4.798 -1.974,3.852 l 0.316,7.543 c -0.578,0.034 -0.243,-1.076 -0.433,-1.537 l -0.053,4.212 c -0.333,0.419 -0.523,0.219 -0.691,-0.179 0.14,-4.081 0.014,-8.204 0.783,-15.944 -2.511,-4.062 -5.408,-3.073 -7.109,-9.867 1.095,-2 3.312,-1.125 1.599,-10.354 -1.121,-0.452 -1.233,2.854 -1.634,5.447 -2.733,-17.881 -6.355,-40.392 -6.241,-59.25 2.433,9.798 2.586,-4.155 4.392,-3.149 l -2.677,-18.713 c 1.58,5.153 3.228,17.718 6.068,27.362 2.725,-5.04 7.655,6.377 7.688,-6.729 -1.988,-5.064 -2.179,4.038 -4.056,-4.35 0.938,-3.571 0.347,-7.458 -0.121,-12.245 1.528,0.296 2.688,5.627 4.058,4.35 -0.617,-6.354 -2.862,-9.665 -3.979,-10.109 0.541,-1.022 1.813,1.006 2.037,-3.173 -0.506,-9.625 -3.5,-5.341 -4.613,-5.776 1.077,-4.48 5.638,-10.853 1.043,-18.277 l 4.771,6.567 c -0.348,-7.18 -3.391,-7.834 -2.907,-16.908 0.489,7.949 2.097,14.716 3.937,10.895 -3.752,-10.163 2.205,-22.36 -3.363,-27.954 l 5.188,1.714 c 0.229,-14.468 -3.644,-5.377 -5.086,-15.39 0.771,3.812 1.926,0.277 2.523,4.921 1.434,-1.197 1.523,-10.797 1.16,-17.88 -0.898,-17.536 -0.183,-32.97096 -0.319,-48.78596 1.729,1.58 2.651,-4.716 2.597,-11.916 1.108,9.019 -1.882,9.882 -1.732,17.067 l 4.306,-6.882 c -4.071,7.727 0.919,13.768 2.303,18.163 -1.079,0.512 -4.362,-3.556 -4.202,6.082 0.512,4.15296 1.642,2.042 2.252,3.024 -1.084,0.51996 -3.097,3.97796 -3.272,10.35896 1.452,1.179 2.241,-4.219 3.747,-4.62 -0.137,4.809 -0.457,8.728 0.725,12.225 -1.293,8.498 -2.109,-0.569 -3.744,4.62 0.938,13.071 5.068,1.342 8.135,6.182 0.229,-1.031 0.438,-2.098 0.637,-3.18 0.115,5.122 0.012,10.316 -0.739,13.859 1.746,6.623 3.229,1.484 4.478,10.588 l -2.961,4.802 c 1.078,8.401 0.106,13.466 2.455,22.255 l 0.892,-4.872 1.161,-45.941 c -1.026,-0.707 -1.934,-7.156 -3.135,-6.373 l 1.379,-18.854 c -0.559,2.399 -1.024,6.354 -1.571,10.869 -1.173,-8.457 -3.702,-8.793 -3.55,-21.21096 l 0.847,-0.209 c -3.913,-32.222 -0.965,-73.27 -2.538,-109.547 -0.244,2.447 -0.874,1.808 -1.525,2.732 0.088,-19.104 0.346,-39.718 -0.502,-59.35 -0.834,-19.629 -2.787,-38.27099 -6.744,-53.29699 0.594,10.313 -0.31,24.225 -0.828,38.15399 -0.506,13.937 -0.611,27.902 1.883,38.48 -1.706,5.531 -0.736,13.279 -1.233,18.39 -0.274,-17.738 -3.834,-40.983 -2.887,-57.049 -2.597,1.957 -0.044,16.44 -0.795,22.573 l -2.693,-13.708 0.911,22.854 c -0.648,-0.425 -1.248,-0.314 -1.801,-0.314 1.322,0.478 2.607,6.229 3.9,10.022 0.86,6.786 1.195,13.873 1.82,20.307 -2.285,29.784 2.672,42.18 1.771,70.894 -0.359,2.104 -0.92,2.586 -1.581,2.712 0.018,0.004 0.034,-0.004 0.054,0.002 0.091,0.737 0.16,1.458 0.242,2.188 l -2.059,0.842 c 0.439,-1.572 0.912,-2.754 1.455,-2.994 -0.552,0.038 -1.158,-0.03 -1.774,0.438 l -0.144,-4.895 c 0.916,-3.202 3.336,-0.838 3.867,-8.007 -0.508,3.855 -1.9,0.411 -2.179,5.083 -1.045,-0.757 -1.728,-5.567 -2.093,-10.808 l -0.123,-4.236 -0.075,0.601 c -0.048,-1.135 -0.083,-2.253 -0.103,-3.313 -0.507,-28.325 -4.836,-50.897 -3.346,-78.85 0.018,-0.007 0.036,-10e-4 0.053,-0.006 -0.668,-0.08 -1.26,-0.521 -1.765,-2.596 -2.886,-28.633 1.224,-41.33199 -3.149,-70.99699 -3.439,-2.899 -1.435,-15.138 -4.344,-22.677 1.758,-10.725 0.688,-24.65 -0.779,-38.519 -1.479,-13.861 -3.342,-27.676 -3.461,-38.006 -0.319,1.674 -0.606,3.396 -0.873,5.149 -0.371,-5.369 -0.994,-10.456 -2.188,-14.61 0.268,5.83 -1.363,15.707 0.467,21.651 -0.736,2.198 0.33,5.588 -0.713,6.5 -0.198,3.709 0.043,6.455 0.381,9.054 -0.142,3.386 -0.227,6.842 -0.262,10.354 l -0.371,-4.852 -0.412,3.938 c -0.461,-1.704 -0.127,-5.855 -1.057,-6.329 1.113,5.645 0.243,14.672 1.555,19.598 0.234,-2.316 -0.041,-5.208 0.041,-7.948 0.079,-0.288 0.152,-0.614 0.226,-0.942 -0.003,3.973 0.051,8.002 0.16,12.073 0.137,5.259 0.361,10.583 0.638,15.925 l -0.16,-0.05 c 0.064,0.06 0.113,0.123 0.167,0.187 0.09,1.732 0.185,3.467 0.286,5.201 -0.041,0.665 -0.028,1.34 0.117,1.997 0.015,0.256 0.032,0.511 0.048,0.766 -0.61,0.655 -0.962,-1.19 -1.008,-3.312 -0.299,2.565 0.697,2.797 0.672,4.845 l -1.461,-1.94 c 1.395,2.178 -0.27,3.907 -0.74,5.143 0.357,0.146 1.468,-1.003 1.384,1.731 -0.186,1.174 -0.554,0.573 -0.761,0.849 0.359,0.151 1.018,1.136 1.056,2.941 -0.487,0.33 -0.733,-1.199 -1.233,-1.317 0.029,1.361 0.124,2.472 -0.279,3.458 0.406,2.408 0.704,-0.155 1.234,1.316 -0.349,3.698 -1.693,0.369 -2.729,1.73 -0.697,-2.784 -0.916,-6.368 -1.305,-7.86 l 0.4,5.345 c -0.574,-0.323 -0.985,3.614 -1.541,0.793 -0.525,5.324 0.111,11.76 0.573,16.866 0.198,-0.724 0.317,-1.654 0.679,-1.503 0.339,2.642 -0.375,2.348 -0.789,2.889 0.396,1.955 1.385,1.737 2.117,2.938 -0.832,4.033 -0.325,4.601 -1.527,8.036 l 0.988,-0.214 c -0.797,2.436 0.697,2.79 0.116,5.412 -0.212,0.146 -0.465,-0.858 -0.694,-1.666 0.324,2.323 -0.834,2.142 -0.451,4.406 l -1.103,-1.797 c 0.04,1.805 0.38,4.452 -0.562,3.521 1.131,3.15299 0.684,8.68599 1.334,12.62299 l -0.856,-0.261 c 1.038,2.036 -0.052,7.485 1.192,9.253 l -0.349,0.3 1.151,4.055 c -0.102,1.835 -1.391,1.212 -1.033,1.359 0.227,4.027 0.297,7.188 -0.146,9.776 1.15,0.651 1.453,4.89 1.596,8.261 -0.156,3.555 -0.213,7.171 -0.213,10.805 L 33.682,743.28365 c 1.201,-2.459 0.157,-4.22 -0.622,-6.565 l -0.508,-5.352 c 0.034,-0.22 0.056,-0.432 0.104,-0.662 0.676,-1.396 1.672,4.635 1.595,-1.299 l -0.719,0.34 c 0.18,-8.203 2.315,-13.064 2.688,-19.8 -2.652,-1.003 -3.412,5.81 -4.486,12.772 l -0.805,-8.494 c 0.035,-0.979 0.044,-2.067 0.016,-3.31 -0.132,-0.192 -0.255,-0.357 -0.377,-0.512 l -0.441,-4.664 -0.05,-1.045 c 0.058,0.507 0.246,0.7 0.722,0.301 1.014,-1.589 0.47,-4.6 1.9,-5.308 1.321,3.706 0.9,2.824 0.633,7.871 1.07,-0.531 1.672,-3.023 2.71,-0.812 1.137,-12.588 -3.527,-25.032 -0.56,-35.338 -1.907,1.531 -2.026,-13.268 -3.282,-4.932 l 1.141,0.527 c 1.022,6.64 -2.122,14.817 -3.336,15.975 1.364,-12.758 -0.064,-14.775 0.214,-28.688 -2.166,5.537 -0.764,-7.862 -2.733,-4.637 -0.233,-3.171 0.227,-6.734 -0.152,-9.294 2.201,7.131 2.152,-5.532 4.075,-4.348 0.338,4.257 -0.975,8.812 -2.606,9.1 0.022,2.749 1.653,2.445 2.719,1.892 l 0.937,12.743 c -0.065,-10.984 5.336,0.006 4.062,-9.832 -0.374,-2.568 -2.913,0.42 -2.329,-6.51 -0.011,-1.236 0.421,-1.557 0.865,-1.285 -0.837,-2.773 -1.55,-5.888 -0.872,-9.976 -0.747,-0.105 -1.958,1.562 -2.08,-3.675 -0.02,-7.182 3.229,-3.368 3.848,-4.802 l 0.304,1.504 c 0.419,-3.334 1.971,-0.605 3.085,-5.63 -0.498,1.389 -1.402,0.212 -1.213,-3.124 1.02,-4.819 4.894,4.275 3.824,-3.325 0.041,1.354 -0.789,1.827 -0.826,-0.48 1.319,-10.719 2.292,0.999 4.45,-1.827 -0.012,-8.887 0.744,-6.505 0.723,-15.39701 0.106,5.52201 -1.887,1.571 -2.454,5.76501 -0.177,-6.10701 -0.722,-5.30401 -1.549,-8.77001 0.053,-0.104 0.105,-0.216 0.158,-0.323 2.062,2.863 2.255,-3.105 3.215,-2.869 -0.046,-0.361 -0.094,-0.725 -0.142,-1.092 -0.368,0.907 -0.876,1.768 -1.669,2.479 l -0.825,-3.66 0.07,0.005 c -0.049,-0.06 -0.077,-0.139 -0.116,-0.208 l -0.253,-1.12 c -0.017,-1.075 0.357,-2.371 0.628,-3.034 l -1.082,-0.894 c 0.229,-0.841 0.407,-1.563 0.596,-2.179 0.199,0.399 0.505,0.588 0.975,0.494 -0.076,-0.864 -0.113,-1.602 -0.121,-2.236 0.113,-0.125 0.234,-0.238 0.373,-0.332 l -0.374,0.08 c 0.003,-5.479 2.373,-2.845 1.457,-7.887 l -0.189,-0.546 0.059,-0.014 c -0.254,-1.992 -0.446,-4.215 0.109,-4.789 0.235,1.078 0.67,1.441 1.103,1.797 0.173,-8.422 -3.228,-1.779 -3.317,-9.238 l 0.64,0.086 -0.679,-1.894 0.809,-1.983 c -2.186,-2.688 0.198,-10.471 -0.961,-14.975 -0.18,-1.771 1.116,-4.102 0.973,-7.467 l -0.986,0.219 c 1.004,-2.716 1.637,-12.824 3.922,-15.358 -0.765,-2.554 -0.207,0.269 -0.988,0.212 -1.028,-4.981 0.522,-5.327 1.105,-7.939 -0.493,-3.067 -0.375,2.347 -1.119,0.697 0.748,-4.699 -1.217,-3.816 -0.562,-9.621 0.555,-0.576 0.387,1.498 0.754,2.098 -1.008,-4.084 -0.395,-11.695 -0.594,-17.771 0.699,-6.948 0.975,-17.211 1.863,-25.334 l -0.358,-0.15 c 0.921,-3.375 0.062,-7.034 0.473,-10.981 l -0.524,1.929 c -0.624,-2.577 -0.23,-4.024 -0.495,-6.462 l 1.034,-1.361 c -0.34,-2.641 -0.875,-1.166 -1.412,-3.083 0.656,-2.41 0.05,-7.485 0.098,-8.629 0.478,-0.793 0.66,0.987 0.949,1.372 -0.348,-3.095 -1.336,-2.876 -1.348,-6.723 l 0.28,-0.063 c -1.472,-9.188 -1.085,-20.836 -2.016,-31.056 -0.054,0.692 -0.271,0.519 -0.478,0.786 -0.375,-10.788 -0.43,-23.237 -2.881,-31.768 0.268,5.83 -1.363,15.707 0.467,21.651 -0.736,2.199 0.33,5.588 -0.713,6.5 -0.453,8.479 1.393,11.926 1.426,20.079 -0.188,1.169 -0.695,0.602 -1.184,0.938 l -0.494,-6.462 -0.412,3.938 c -0.461,-1.704 -0.127,-5.856 -1.057,-6.329 1.113,5.644 0.243,14.671 1.555,19.597 0.234,-2.315 -0.041,-5.208 0.041,-7.948 0.329,-1.205 0.572,-3.071 1.072,-2.949 1.445,7.84 0.734,14.341 1.189,22.394 0.115,2.02 0.032,4.757 -0.455,5.09 -0.172,-1.325 -0.577,-0.325 -0.814,-1.412 0.42,2.854 1.781,0.286 1.585,4.414 l -1.713,-0.528 c 1.81,1.642 -0.315,5.051 0.741,7.988 -0.686,1.058 -1.082,-0.892 -1.131,-3.149 -0.299,2.564 0.697,2.796 0.672,4.844 l -1.461,-1.94 c 1.395,2.179 -0.27,3.907 -0.74,5.144 0.357,0.146 1.468,-1.003 1.384,1.73 -0.186,1.174 -0.554,0.573 -0.761,0.85 0.359,0.15 1.018,1.135 1.056,2.94 -0.487,0.33 -0.733,-1.199 -1.233,-1.316 0.029,1.36 0.124,2.471 -0.279,3.458 0.406,2.407 0.704,-0.156 1.234,1.315 -0.349,3.698 -1.693,0.369 -2.729,1.731 -0.004,-0.019 -0.008,-0.036 -0.012,-0.054 -0.109,-1.43 -0.356,-2.625 -0.665,-3.703 -0.234,-1.691 -0.404,-3.246 -0.627,-4.104 l 0.206,2.741 c -0.955,-2.84 -2.024,-5.262 -1.159,-10.203 l -2.875,1.035 c 2.406,-12.426 0.695,-14.273 1.784,-28.696 -2.605,-4.002 -5.48,-2.942 -7.342,-9.696 1.047,-2.024 3.283,-1.203 1.353,-10.389 -1.133,-0.426 -1.166,2.883 -1.506,5.483 -3.156,-17.812 -7.313,-40.23 -7.645,-59.085 1.006,3.678 1.606,3.974 2.063,2.973 0.169,0.634 0.329,1.266 0.45,1.884 0.126,-1.557 0.08,-2.479 -0.01,-3.332 0.502,-2.147 0.917,-5.248 1.812,-4.775 l -0.54,-3.226 c 0.235,-0.464 0.464,-0.96 0.66,-1.549 l -0.771,0.891 -0.399,-2.385 c 0.115,-0.622 0.292,-0.945 -0.264,-2.495 l 0.603,0.043 c 1.18,5.446 2.561,11.841 4.307,17.285 0.644,-1.261 1.446,-1.519 2.285,-1.393 -0.198,-2.817 1.157,-5.592 0.186,-9.319 0.446,-0.371 0.833,-1.201 1.189,-2.229 0.331,-3.1 -0.215,-6.46 -0.702,-10.458 1,0.169 1.896,2.472 2.768,3.697 0.35,-0.772 0.729,-1.19 1.163,-0.979 -0.926,-5.326 -2.958,-8.096 -3.991,-8.479 0.518,-1.033 1.838,0.964 1.962,-3.22 -0.734,-9.609 -3.626,-5.256 -4.75,-5.663 0.97,-4.507 5.379,-10.983 0.61,-18.299 l 4.925,6.452 c -0.517,-7.169 -3.575,-7.75 -3.31,-16.833 0.681,7.934 2.446,14.661 4.194,10.797 -3.993,-10.069 1.674,-22.406 -4.026,-27.865 l 5.226,1.589 c -0.003,-0.405 -0.009,-0.788 -0.018,-1.157 -0.294,-0.146 -0.578,-0.295 -0.848,-0.518 l -0.159,-6.123 c -0.155,-0.661 -0.714,-1.088 -1.344,-1.666 -0.923,-0.563 -4.398,0.209 -5.889,-2.437 0.13,-0.301 0.268,-0.597 0.401,-0.911 0.351,-0.044 0.693,-0.193 0.854,-0.109 -0.103,-0.369 -0.239,-0.799 -0.399,-1.271 0.002,-0.01 0.005,-0.018 0.007,-0.026 -0.15,-0.937 -0.243,-1.078 -0.322,-0.876 -0.292,-0.816 -0.636,-1.73 -1.015,-2.724 -0.324,-1.118 -0.682,-2.333 -0.345,-5.324 0.555,-0.576 0.387,1.498 0.754,2.098 -1.008,-4.084 -0.395,-11.695 -0.594,-17.771 0.699,-6.948 0.975,-17.211 1.863,-25.334 l -0.357,-0.149 c 0.92,-3.375 0.061,-7.035 0.473,-10.982 l -0.525,1.929 c -0.623,-2.577 -0.23,-4.024 -0.494,-6.462 l 1.033,-1.361 c -0.34,-2.641 -0.875,-1.166 -1.412,-3.083 0.656,-2.409 0.051,-7.485 0.098,-8.629 0.479,-0.793 0.66,0.987 0.949,1.372 -0.348,-3.095 -1.336,-2.876 -1.348,-6.723 l 0.281,-0.063 c -1.473,-9.188 -1.086,-20.836 -2.016,-31.056 -0.055,0.693 -0.271,0.519 -0.479,0.786 -0.375,-10.788 -0.43,-23.237 -2.881,-31.768 0.268,5.83 -1.363,15.707 0.467,21.651 -0.736,2.199 0.33,5.588 -0.713,6.5 -0.453,8.479 1.393,11.926 1.426,20.079 -0.188,1.169 -0.695,0.602 -1.184,0.938 l -0.494,-6.462 -0.412,3.938 c -0.461,-1.704 -0.127,-5.856 -1.057,-6.329 1.113,5.644 0.244,14.671 1.555,19.597 0.234,-2.315 -0.041,-5.208 0.041,-7.948 0.33,-1.204 0.572,-3.071 1.072,-2.949 1.445,7.84 0.734,14.341 1.189,22.394 0.115,2.02 0.033,4.757 -0.455,5.09 -0.172,-1.324 -0.576,-0.324 -0.814,-1.411 0.42,2.854 1.781,0.285 1.586,4.413 l -1.713,-0.528 c 1.809,1.642 -0.316,5.051 0.74,7.988 -0.686,1.058 -1.082,-0.892 -1.131,-3.149 -0.299,2.564 0.697,2.796 0.672,4.844 l -1.461,-1.94 c 1.395,2.179 -0.27,3.907 -0.74,5.144 0.357,0.146 1.469,-1.003 1.385,1.73 -0.186,1.175 -0.555,0.573 -0.762,0.85 0.359,0.15 1.018,1.135 1.057,2.94 -0.488,0.33 -0.734,-1.198 -1.234,-1.316 0.029,1.36 0.125,2.471 -0.279,3.458 0.406,2.407 0.705,-0.156 1.234,1.315 -0.274,2.922 -1.172,1.465 -2.047,1.393 -0.174,-0.449 -0.368,-0.803 -0.592,-0.984 -1.479,-9.334 0.707,-21.943 -0.624,-26.854 0.796,-1.562 1.322,-3.37 1.713,-5.312 -0.396,-5.154 -0.948,-10.412 -1.75,-15.86 -0.019,-0.007 -0.034,0.002 -0.052,0 0.658,-0.144 1.205,-0.64 1.515,-2.75 0.218,-28.774 -5.052,-41.041 -3.448,-70.982996 3.157,-3.206 0.024,-15.204 2.222,-22.981 -0.702,-2.684 -1.236,-5.596 -1.643,-8.672 -0.861,-0.08 -1.715,-1.393 -2.572,-5.168 1.266,-4.095 -0.465,-2.197 -0.975,-5.48 0.567,-3.856 1.404,-4.462 2.411,-6.201 -0.075,-3.705 -0.072,-7.489 -0.033,-11.282 -1.285,0.215 -1.669,11.148 -3.116,1.317 l 2.573,-3.38 c -3.027,-2.572 -3.894,-9.65 -3.512,-17.097 -0.842,1.486 -1.733,1.896 -2.723,0.154 2.195,0.297 0.279,-9.6009997 2.731,-7.6449997 0.259,1.638 -1.107,3.598 0.091,5.889 -0.567,-4.364 0.38,-3.676 0.959,-6.821 -0.464,-1.256 -0.812,-1.90200005 -1.089,-2.18900005 -0.293,-0.303 -0.503,-0.218 -0.685,-0.01 z M 87.588,1385.0076 c 0.897,-0.49 0.677,-3.712 1.485,-2.488 l 0.389,5.183 c -0.574,-0.323 -0.984,3.614 -1.541,0.793 -0.043,0.434 -0.066,0.885 -0.095,1.333 -0.266,-1.607 -0.479,-3.319 -0.238,-4.821 z m 5.405,-62.479 c 0.398,4.344 1.283,7.729 1.307,13.355 -0.188,1.169 -0.695,0.602 -1.184,0.938 l -0.494,-6.462 -0.412,3.938 c -0.461,-1.704 -0.127,-5.856 -1.057,-6.329 1.113,5.644 0.242,14.671 1.555,19.597 0.234,-2.316 -0.041,-5.208 0.041,-7.948 0.329,-1.205 0.572,-3.072 1.072,-2.95 1.445,7.84 0.734,14.341 1.188,22.394 0.115,2.019 0.032,4.757 -0.454,5.09 -0.173,-1.325 -0.578,-0.325 -0.814,-1.412 0.42,2.854 1.781,0.286 1.585,4.414 l -1.714,-0.529 c 1.811,1.642 -0.314,5.051 0.742,7.989 -0.687,1.057 -1.082,-0.892 -1.131,-3.15 -0.3,2.565 0.696,2.796 0.672,4.844 l -1.461,-1.94 c 1.395,2.178 -0.271,3.907 -0.74,5.143 0.356,0.146 1.468,-1.003 1.384,1.731 -0.187,1.174 -0.554,0.573 -0.761,0.849 0.358,0.151 1.018,1.135 1.056,2.941 -0.487,0.33 -0.733,-1.199 -1.233,-1.317 0.029,1.361 0.125,2.471 -0.279,3.458 0.406,2.408 0.705,-0.156 1.234,1.316 -0.349,3.698 -1.693,0.369 -2.729,1.731 -0.67,-2.674 -0.899,-6.064 -1.26,-7.653 0.025,0.042 0.057,0.104 0.086,0.156 -0.271,-0.675 -0.5,-2.931 -1.289,-2.255 0.316,0.295 0.06,0.62 0.113,1.239 l -1.207,-0.552 c 0.5,-1.667 -1.043,-3.533 -0.315,-5.132 0.965,-0.522 0.631,3.003 1.766,1.928 -1.805,-1.537 -2.582,-7.805 -1.821,-9.799 0.242,-1.339 1.752,-1.498 1.916,-2.057 l -0.129,-2.25 c 0.483,-0.264 1.062,-0.298 1.676,-0.717 0.336,-1.109 -0.168,-1.863 -0.445,-2.551 0.965,-2.937 2.195,-1.368 3.199,0.137 l -0.504,1.658 c 0.687,1.211 0.406,2.944 1.765,1.927 -0.147,-0.841 -0.722,-0.812 -1.038,-1.109 l 0.781,-0.975 c -0.598,-0.981 -0.914,-3.692 -1.973,-3.402 0.762,-1.988 -0.168,-4.273 0.69,-6.038 -0.688,1.21 -1.117,-0.326 -1.953,0.032 l -0.315,2.121 c -0.301,-1.698 -1.099,-4.148 -0.371,-5.749 0.668,0.196 0.891,0.261 1.543,-0.551 -0.914,1.141 -1.207,-2.972 -2.364,-0.494 0.372,0.913 0.521,1.764 0.411,2.944 -1.454,0.775 -1.617,-1.085 -2.438,-2.127 -0.332,-1.307 -0.781,-3.857 -1.302,-5.619 0.336,-1.11 1.972,-1.436 1.004,-3.333 -1.375,2.416 -2.305,-2.284 -3.733,-2.91 0.629,-1.83 -1.211,-2.97 -0.039,-4.438 0.504,0.749 0.465,3.561 1.543,4.277 1.022,0.102 2.699,-0.621 3.238,2.157 0.514,-3.337 -0.88,-1.96 -1.298,-3.497 l 0.142,1.143 c -0.407,-0.52 -1.188,0.461 -1.207,-0.553 0.375,-3.917 1.468,-4.605 2.754,-7.251 -0.743,0.59 -1.434,-0.619 -1.489,-1.243 0.769,-2.104 1.754,-0.713 2.935,-1.046 l -0.222,0.171 0.575,3.725 c 0.663,-1.477 0.123,-2.264 0.257,-4.239 0.054,-0.045 0.104,-0.084 0.159,-0.139 -0.949,-0.886 -0.669,-2.619 -1.414,-2.032 -0.02,-1.008 0.391,-0.485 0.688,-1.206 -0.854,-0.651 -1.354,-1.407 -1.336,-2.806 0.445,0.127 1.113,0.323 0.871,1.664 0.375,-1.503 1.918,-2.054 2.773,-1.402 l -0.578,2.447 c 1.043,1.113 0.449,-2.283 1.469,-2.189 0.242,1.08 -0.41,1.894 -0.13,2.582 0.252,-0.16 0.383,-0.401 0.443,-0.685 z m -0.517,-3.364 c 0.051,-0.545 0.174,-0.878 0.334,-1.083 -0.008,1.045 0.02,2.018 0.072,2.933 -0.151,-0.657 -0.36,-1.33 -0.406,-1.85 z m -22.541,-25.947 c -0.209,-0.147 -0.382,-0.235 -0.537,-0.299 -0.027,-0.257 -0.059,-0.513 -0.086,-0.77 0.25,0.264 0.47,0.59 0.623,1.069 z m 1.157,-12.148 c -0.188,1.962 -0.094,4.605 -0.594,6.269 -0.526,-1.03 -1.196,-1.264 -1.835,-0.983 -0.241,-2.101 -0.492,-4.178 -0.77,-6.198 l 0.67,-1.44 c -0.316,2.124 1.672,1.697 2.529,2.352 z m -0.181,-33.278 c -0.127,2.258 0.055,5.046 1.469,6.464 l -2.007,-0.59 0.224,2.484 c -1.212,1.857 -1.285,-2.189 -1.396,-3.43 -0.209,3.366 -0.078,5.619 -0.021,8.655 0.424,-0.885 0.836,-0.358 1.449,-0.781 0.82,1.042 0.223,2.479 0.465,3.56 -0.484,0.262 -0.93,0.129 -1.078,-0.718 l 0.258,2.086 c -1.246,-0.166 -1.228,0.852 -2.062,-1.21 l 0.39,1.927 c -0.314,2.126 -1.021,-0.095 -1.434,-0.618 l -0.202,3.363 c 0.688,1.206 1.099,-0.686 1.447,1.632 -0.765,2.162 -0.789,4.739 -0.849,7.295 -0.734,-4.852 -1.662,-9.29 -3.021,-12.807 3.059,3.073 1.354,-6.178 0.768,-12.528 l 3.766,6.089 c -1.733,-7.897 1.777,-7.512 0.203,-15.623 0.539,1.678 1.121,3.6 1.631,4.75 z m 2.479,-4.12 c -1.351,-0.833 -1.115,0.412 -1.484,1.201 -0.09,-1.47 -0.329,-2.701 -0.633,-3.813 0.42,0.081 0.779,-0.219 0.979,-1.142 -0.017,1.406 0.595,3.398 1.138,3.754 z m -2.662,-7.02 c 0.041,1.152 -0.154,1.354 -0.418,1.226 -0.187,-0.643 -0.35,-1.305 -0.471,-2.012 0.324,0.211 0.629,0.454 0.889,0.786 z m -3.521,-5.993 -0.075,0.025 c 0.027,-0.125 0.053,-0.242 0.078,-0.365 0.003,0.116 -0.002,0.227 -0.003,0.34 z m 1.61,-0.537 -1.041,0.347 c -0.053,-0.577 -0.062,-1.232 -0.232,-1.766 0.125,-0.631 0.236,-1.232 0.339,-1.81 0.533,0.863 1.024,1.692 0.934,3.229 z m -18.986,-376.83396 0.639,0.087 -0.678,-1.894 0.809,-1.984 c -2.186,-2.688 0.197,-10.47 -0.961,-14.974 -0.18,-1.771 1.115,-4.102 0.973,-7.467 l -0.985,0.219 c 0.61,-1.651 1.086,-6.038 1.878,-9.793 1.822,24.436 3.846,48.836 2.762,69.764 l 0.858,0.15 c 1.095,13.408 -1.933,12.883 -2.181,23.702 0.777,-1.397 0.857,-7.623 2.494,-4.979 0.471,3.978 -0.151,21.714 2.201,29.957 -1.283,6.729 -3.119,1.704 -3.734,10.872 l 3.285,4.585 c -0.494,8.457 0.824,13.441 -0.912,22.371 l -1.226,-4.799 -7.282,-76.921 c 0.425,-1.988 1.431,-2.956 2.082,-4.913 l -0.967,1.118 c -0.785,-3.453 0.516,-2.379 -0.466,-5.107 l 1.563,0.112 c -0.801,-0.96 -0.146,-3.371 0.261,-4.363 l -1.082,-0.893 c 0.592,-2.174 0.842,-3.59 1.821,-4.253 l -0.989,0.213 c 0.623,-0.819 -0.107,-8.36 1.577,-5.781 -0.225,-0.63 -0.735,-1.206 -0.62,-2.587 l 0.985,-0.21 c -0.254,-1.992 -0.446,-4.215 0.108,-4.789 0.236,1.078 0.67,1.441 1.104,1.797 0.171,-8.423 -3.227,-1.782 -3.317,-9.24 z m -7.633,-261.6 -0.053,0.062 c -0.017,-0.079 -0.034,-0.146 -0.051,-0.229 0.035,0.059 0.069,0.111 0.104,0.167 z m -3.373,-0.328 c -0.254,-0.113 -0.542,-0.413 -0.877,-0.958 -1.226,-7.685 -2.985,3.829 -2.665,-5.243 1.307,0.225 2.159,-1.227 2.851,-3.186 0.209,3.191 0.441,6.325 0.691,9.387 z m -1.521,-29.153 c -1.586,0.857 -3.404,0.174 -3.344,8.073 -3.031,-5.045 -0.036,-10.564 -0.848,-17.38 l 0.643,3.002 c 0.127,-0.624 0.031,-1.691 -0.196,-2.126 1.656,-2.017 1.863,6.239 3.617,5.282 l -1.222,-3.235 c 0.751,0.048 0.885,-3.958 1.385,-4.573 -0.086,3.625 -0.092,7.286 -0.035,10.957 z m -0.317,-34.395 c -0.055,0.226 -0.134,0.39 -0.225,0.511 -0.104,-0.227 -0.213,-0.444 -0.326,-0.649 z m -0.494,-50.007 c 0.339,2.642 -0.375,2.348 -0.789,2.889 0.396,1.955 1.385,1.737 2.117,2.938 -0.832,4.033 -0.325,4.601 -1.527,8.035 l 0.988,-0.213 c -0.797,2.436 0.697,2.79 0.116,5.412 -0.212,0.146 -0.465,-0.858 -0.694,-1.666 0.324,2.323 -0.834,2.142 -0.451,4.406 l -1.103,-1.797 c 0.036,1.63 0.313,3.938 -0.326,3.688 -0.987,-6.543 -2.169,-12.628 -4.042,-17.146 1.998,1.914 1.936,-1.146 1.438,-5.259 -0.313,-0.087 -0.613,-0.476 -0.867,-1.283 -0.008,-1.53 0.07,-2.697 0.206,-3.614 -0.113,-0.818 -0.218,-1.624 -0.308,-2.387 l 0.625,0.958 c 0.834,-2.658 2.444,-2.126 3.172,-5.787 0.005,4.188 0.429,8.61 0.766,12.331 0.199,-0.726 0.318,-1.656 0.679,-1.505 z m -1.279,-14.984 c -0.011,0.119 -0.017,0.243 -0.026,0.364 -0.058,-0.322 -0.118,-0.649 -0.195,-1.003 0.073,0.209 0.147,0.423 0.221,0.639 z m -16.727,-230.524 c -0.265,1.283 -0.394,2.214 -0.485,2.999 -0.294,-1.226 -0.337,-2.517 -0.278,-3.837 0.262,0.213 0.526,0.45 0.763,0.838 z" />
</svg>