<?xml version="1.0" encoding="utf-8"?>
<!-- Generator: Adobe Illustrator 15.0.0, SVG Export Plug-In . SVG Version: 6.00 Build 0)  -->
<!DOCTYPE svg PUBLIC "-//W3C//DTD SVG 1.1//EN" "http://www.w3.org/Graphics/SVG/1.1/DTD/svg11.dtd">
<svg version="1.1" id="Layer_1" xmlns="http://www.w3.org/2000/svg" xmlns:xlink="http://www.w3.org/1999/xlink" x="0px" y="0px"
	 preserveAspectRatio="none" viewBox="0 0 1500 150" enable-background="new 0 0 1500 150" xml:space="preserve">
<path fill="#D3D3D3" d="M1499.996,10.446V8.914V0H0v73.942v14.725c0.753,0.229,1.604,0.502,2.478,0.468
	C1.566,89.171,0.751,89.397,0,89.674v6.466c1.966,0.09,3.739,0.271,2.282,1.223c0.63-0.225,1.206-0.734,2.587-0.62l0.21,0.985
	c1.992-0.254,4.215-0.445,4.789,0.109c-1.078,0.234-1.441,0.67-1.797,1.104c8.422,0.172,1.78-3.229,9.239-3.317l-0.086,0.64
	l1.874-0.672c0.591,0.352,1.021,0.776,0.897,1.33c1.005-0.277,0.541-0.586,0.166-0.911l0.939,0.384
	c2.688-2.187,10.47,0.197,14.974-0.961c1.771-0.181,4.102,1.115,7.467,0.973l-0.219-0.986c2.716,1.004,12.825,1.637,15.359,3.922
	c2.553-0.765-0.269-0.207-0.212-0.988c1.83-0.377,3.032-0.406,3.953-0.264c0.289,1.085-1.93,1.766,1.072,2.251
	c2.008,0.252,2.858-0.415,3.618-1.021c0.243-0.065,0.288-0.117,0.208-0.164c0.565-0.439,1.133-0.799,2.157-0.654
	c-0.044-0.082-0.112-0.131-0.176-0.186c1.191-0.287,2.125-0.77,4.625-0.649c-0.061,0.226-0.015,0.444,0.075,0.655
	c-0.31,0.046-0.596,0.105-0.765,0.209c0.249-0.062,0.512-0.115,0.786-0.165c0.199,0.438,0.51,0.827,0.13,1.101
	c1.025-0.191,1.972-0.438,2.41-1.095c-0.333-0.087-0.579-0.168-0.764-0.244c2.115-0.201,4.659-0.209,7.293-0.187
	c-0.506,0.418-3.434,0.862-0.778,1.438c1.221-0.569,1.447-1.011,1.385-1.435c2.141,0.022,4.32,0.056,6.364,0.016
	c0.345,0.48-1.199,1.375,1.165,1.922c1.077-0.24,0.392-1.339,2.128-1.062c-0.206-0.274-0.364-0.51-0.51-0.715
	c6.838,0.58,16.058,0.881,23.493,1.694l0.15-0.358c3.375,0.922,7.035,0.062,10.982,0.474l-1.929-0.524
	c2.577-0.623,4.024-0.229,6.462-0.494l1.361,1.033c2.641-0.34,1.166-0.875,3.083-1.412c2.41,0.656,7.486,0.051,8.629,0.098
	c0.793,0.479-0.987,0.66-1.372,0.949c3.095-0.348,2.876-1.336,6.723-1.348l0.063,0.28c9.188-1.472,20.836-1.085,31.056-2.017
	c-0.693-0.054-0.519-0.271-0.786-0.478c10.788-0.375,23.237-0.431,31.767-2.881c-5.83,0.269-15.707-1.363-21.651,0.467
	c-2.199-0.735-5.588,0.33-6.5-0.713c-0.599-0.032-1.167-0.05-1.72-0.062c-1.031-0.625-3.031-1.103-1.116-2.123
	c1.176-1.267,4.147-1.099,6.238-1.355c-1.795-1.434,0.2-2.047,2.354-2.531c-2.809-0.035-0.719-1.672-4.018-0.727l-0.065-1.152
	c1.406,0.02,3.069,0.52,4.474,0.543c-0.292,0.312,0.033,0.572-0.427,0.762l4.185-0.52l-0.426,0.762
	c2.579,0.129,5.749,1.004,7.286,0.577c-1.242,0.11-2.318-1.022-1.015-1.358c0.753-0.5,2.125-1.059,3.299-0.948
	c0.62,1.319,5.063,1.284,2.253,2.625c3.624-0.688,2.286-0.931,5.75-1.746l-2.32,0.351c-0.292-1.058,1.635-2.826-0.587-3.494
	c2.612-0.672,0.946-2.552,4.444-2.789c1.42,0.641-0.424,2.141-2.387,2.41c0.989,0.084,1.888,0.663,2.91-0.066
	c0.748,0.871-1.862,1.543-1.764,1.895c1.798,0.057-0.034-0.574,1.663-0.871c2.973-1.211,1.894,1.784,4.737,1.023
	c-0.622,0.055-1.728-0.281-0.981-0.783c3.821,0.021,2.125-1.061,4.9-1.6c1.568,1.527,0.881,3.184,3.391,3.535l-1.399-0.021
	c0.979,0.781,2.088,1.117,3.102,1.097c5.225-1.336,9.537-3.679,14.924-4.886l-1.927,0.392c-0.652-0.523,1.607-0.652,1.574-1.23
	l1.205,0.689c0.329-1.115-2.708-1.062-1.989-2.14c0.163,0.134,0.557,0.168,0.785,0.074l-1.113-0.333
	c2.517,0.354,4.509-1.637,6.403,0.148c-4.902,0.224-0.75,3.254-5.552,3.828c2.543-0.445,0.452,1.189,0.713,1.676
	c1.34,0.242,0.657-0.855,2.161-0.485c-0.035,0.803-3.27,1.528-1.832,2.121c0.164-1.245,1.501-1.002,2.153-1.856
	c1.111,0.336-0.028,0.799,0.46,1.19c0.618-0.056,0.981-0.599,1.534-0.431l-0.421,0.767c3.099,1.099,0.944-1.172,4.469-0.84
	c0.1-1.021-0.98-0.781-2.448-0.576c-0.746-2.248,4.541-2.437,4.25-4.869c3.333-0.376-0.882,0.945,1.958,1.562
	c1.565,1.523-2.09,1.638-2.812,2.716l2.944,0.965c-0.983,1.973-2.812,1.338-3.334,3.125c2.188,0.094,1.927-0.392,4.15-1.099
	c-3.594-1.487,1.564-1.227-0.49-3.141c1.664,0.5,1.141,0.91,3.558,0.91c-1.534,0.43-0.062,1.602-2.091,1.637
	c3.265-0.147,2.383-0.578,5.647-0.723c1.017-1.396-3.298-1.805,0.627-2.809c0.849-0.017,0.683,0.512,0.185,0.508
	c2.804,0.543-0.576-1.729,1.186-2.441c1.225-0.172,1.666,0.375,1.16,0.707c1.837-0.773,0.82-1.699,2.043-2.012l-0.556-0.168
	c0.522-0.406-0.911-2.379,1.733-2.473c1.93,0,1.326,0.78,1.371,1.246c1.5-0.48,2.652-0.076,3.68,0.409
	c-0.104-0.272,0.011-0.547,0.466-0.555c2.548-0.449,1.465,1.172,2.414,1.375c3.63,0.688-0.453-2.565,3.596-2.642l-4.703-0.444
	c0.196-0.673,0.297-1.695-0.717-1.677c-0.095,1.022-1.764,1.898-3.334,1.746c-0.453-1.188,4.217-1.319,1.571-2.603
	c0.947,0.203,2.258-0.128,3.43-0.019c-1.176,1.265,3.757,0.242,1.729,1.654c5.13-0.314,5.88,0.561,10.584-0.371
	c-0.424,0.764-3.428,2.774-5.878,2.196l-0.201-0.707c-3.067,0.854,2.39,0.802,1.833,2.009c3.787-1.935,8.39,0.913,13.026,0.207
	c-0.815-0.648,0.104-1.025,0.3-1.691c-1.862,0.166-1.537,0.43-2.906-0.391c0.26-0.896,1.372-0.56,1.959-1.191
	c0.489-0.985-1.403-0.016-2.062-0.539c1.77-0.521,1.602-0.652,2.651-1.469c0.978,0.779,0.846,1.227,1.598,2.102
	c4.247,0.182,3.921-1.471,7.121-1.262c-1.168-0.029,0.516,0.753-0.344,0.76l0.606,0.057c-3.039,1.434-8.265,1.396-7.744,3.738
	c2.483-0.223,4.282-1.543,7.315-1.598l-0.128,0.445c2.191,0.094-0.033-0.574,0.487-0.986c2.452-0.801,3.171,2.252,4.865,0.58
	l-2.509-0.356c1.894-0.965-0.557-0.168-0.101-1.729c3.365-1.172,9.181-0.387,13.949-1.539c-1.371-0.82-1.761-0.854-3.56-0.914
	c0.813-2.102,1.537-1.805,0.658-3.608l-2.19-0.094l-0.032-1.95c0.599-0.034,1.192,0.07,1.723,0.259
	c0.301-1.224,3.321,0.371,3.469-0.797l-1.862,0.164c-0.914-1.004,1.278-0.91,2.584-1.242c-1.242-1.266-4.051,0.07-6.695,0.163
	c0.191,0.708-2.45,2.178,0.128,2.311c-0.033,0.797-1.57,1.227-2.584,1.242c0.468-0.359-1.446-1.757-0.236-2.474
	c-1.414,0.499-0.663-0.174-2.929,0.224c0.358-0.539-4.443,0.034-4.148-1.656c-0.81,0.722,0.042,2.496-2.911,2.578
	c0.717,1.168,4.009,1.336,1.801,2.594l1.436-0.781c2.057,0.539-0.561,1.211,2.124,1.691c-0.788-0.074-2.388,0.578-2.744-0.262
	c0.688,2.477-3.985,1.229-4.115,3.051c-0.591-0.742-1.373-0.817-2.85-0.613c0.202-0.672-0.614-1.32,0.53-1.785
	c0.946,0.202,1.632-0.074,2.678,0.484c-0.581-2.461-3.816-0.773-6.265-1.291c0.343,0.197,0.44,0.434-0.237,0.787
	c-1.497-0.371-4.798-0.801-3.852-1.974l-7.543,0.316c-0.034-0.578,1.076-0.243,1.537-0.433l-4.212-0.053
	c-0.419-0.333-0.219-0.523,0.179-0.691c4.081,0.14,8.204,0.014,15.944,0.783c4.062-2.511,3.073-5.408,9.867-7.109
	c2,1.095,1.125,3.312,10.354,1.599c0.452-1.121-2.854-1.233-5.447-1.634c17.881-2.733,40.392-6.355,59.25-6.241
	c-9.798,2.433,4.155,2.586,3.149,4.392l18.713-2.677c-5.153,1.58-17.718,3.228-27.362,6.068c5.04,2.725-6.377,7.655,6.729,7.688
	c5.064-1.988-4.038-2.179,4.35-4.056c3.571,0.938,7.458,0.347,12.245-0.121c-0.296,1.528-5.627,2.688-4.35,4.058
	c6.354-0.617,9.665-2.862,10.109-3.979c1.022,0.541-1.006,1.813,3.173,2.037c9.625-0.506,5.341-3.5,5.776-4.613
	c4.48,1.077,10.853,5.638,18.277,1.043l-6.567,4.771c7.18-0.348,7.834-3.391,16.908-2.907c-7.949,0.489-14.716,2.097-10.895,3.937
	c10.163-3.752,22.36,2.205,27.954-3.363l-1.714,5.188c14.468,0.229,5.377-3.644,15.39-5.086c-3.812,0.771-0.277,1.926-4.921,2.523
	c1.197,1.434,10.797,1.523,17.88,1.16c17.536-0.898,32.971-0.183,48.786-0.319c-1.58,1.729,4.716,2.651,11.916,2.597
	c-9.019,1.108-9.882-1.882-17.067-1.732l6.882,4.306c-7.727-4.071-13.768,0.919-18.163,2.303c-0.512-1.079,3.556-4.362-6.082-4.202
	c-4.153,0.512-2.042,1.642-3.024,2.252c-0.52-1.084-3.978-3.097-10.359-3.272c-1.179,1.452,4.219,2.241,4.62,3.747
	c-4.809-0.137-8.728-0.457-12.225,0.725c-8.498-1.293,0.569-2.109-4.62-3.744c-13.071,0.938-1.342,5.068-6.182,8.135
	c1.031,0.229,2.098,0.438,3.18,0.637c-5.122,0.115-10.316,0.012-13.859-0.739c-6.623,1.746-1.484,3.229-10.588,4.478l-4.802-2.961
	c-8.401,1.078-13.466,0.106-22.255,2.455l4.872,0.892l45.941,1.161c0.707-1.026,7.156-1.934,6.373-3.135l18.854,1.379
	c-2.399-0.559-6.354-1.024-10.869-1.571c8.457-1.173,8.793-3.702,21.211-3.55l0.209,0.847c32.222-3.913,73.27-0.965,109.547-2.538
	c-2.447-0.244-1.808-0.874-2.732-1.525c19.104,0.088,39.718,0.346,59.35-0.502c19.629-0.834,38.271-2.787,53.297-6.744
	c-10.313,0.594-24.225-0.31-38.154-0.828c-13.937-0.506-27.902-0.611-38.48,1.883c-5.531-1.706-13.279-0.736-18.39-1.233
	c17.738-0.274,40.983-3.834,57.049-2.887c-1.957-2.597-16.44-0.044-22.573-0.795l13.708-2.693l-22.854,0.911
	c0.425-0.648,0.314-1.248,0.314-1.801c-0.478,1.322-6.229,2.607-10.022,3.9c-6.786,0.86-13.873,1.195-20.307,1.82
	c-29.784-2.285-42.18,2.672-70.894,1.771c-2.104-0.359-2.586-0.92-2.712-1.581c-0.004,0.018,0.004,0.034-0.002,0.054
	c-0.737,0.091-1.458,0.16-2.188,0.242l-0.842-2.059c1.572,0.439,2.754,0.912,2.994,1.455c-0.038-0.552,0.03-1.158-0.438-1.774
	l4.895-0.144c3.202,0.916,0.838,3.336,8.007,3.867c-3.855-0.508-0.411-1.9-5.083-2.179c0.757-1.045,5.567-1.728,10.808-2.093
	l4.236-0.123l-0.601-0.075c1.135-0.048,2.253-0.083,3.313-0.103c28.325-0.507,50.897-4.836,78.85-3.346
	c0.007,0.018,0.001,0.036,0.006,0.053c0.08-0.668,0.521-1.26,2.596-1.765c28.633-2.886,41.332,1.224,70.997-3.149
	c2.899-3.439,15.138-1.435,22.677-4.344c10.725,1.758,24.65,0.688,38.519-0.779c13.861-1.479,27.676-3.342,38.006-3.461
	c-1.674-0.319-3.396-0.606-5.149-0.873c5.369-0.371,10.456-0.994,14.61-2.188c-5.83,0.268-15.707-1.363-21.651,0.467
	c-2.198-0.736-5.588,0.33-6.5-0.713c-3.709-0.198-6.455,0.043-9.054,0.381c-3.386-0.142-6.842-0.227-10.354-0.262l4.852-0.371
	l-3.938-0.412c1.704-0.461,5.855-0.127,6.329-1.057c-5.645,1.113-14.672,0.243-19.598,1.555c2.316,0.234,5.208-0.041,7.948,0.041
	c0.288,0.079,0.614,0.152,0.942,0.226c-3.973-0.003-8.002,0.051-12.073,0.16c-5.259,0.137-10.583,0.361-15.925,0.638l0.05-0.16
	c-0.06,0.064-0.123,0.113-0.187,0.167c-1.732,0.09-3.467,0.185-5.201,0.286c-0.665-0.041-1.34-0.028-1.997,0.117
	c-0.256,0.015-0.511,0.032-0.766,0.048c-0.655-0.61,1.19-0.962,3.312-1.008c-2.565-0.299-2.797,0.697-4.845,0.672l1.94-1.461
	c-2.178,1.395-3.907-0.27-5.143-0.74c-0.146,0.357,1.003,1.468-1.731,1.384c-1.174-0.186-0.573-0.554-0.849-0.761
	c-0.151,0.359-1.136,1.018-2.941,1.056c-0.33-0.487,1.199-0.733,1.317-1.233c-1.361,0.029-2.472,0.124-3.458-0.279
	c-2.408,0.406,0.155,0.704-1.316,1.234c-3.698-0.349-0.369-1.693-1.73-2.729c2.784-0.697,6.368-0.916,7.86-1.305l-5.345,0.4
	c0.323-0.574-3.614-0.985-0.793-1.541c-5.324-0.525-11.76,0.111-16.866,0.573c0.724,0.198,1.654,0.317,1.503,0.679
	c-2.642,0.339-2.348-0.375-2.889-0.789c-1.955,0.396-1.737,1.385-2.938,2.117c-4.033-0.832-4.601-0.325-8.036-1.527l0.214,0.988
	c-2.436-0.797-2.79,0.697-5.412,0.116c-0.146-0.212,0.858-0.465,1.666-0.694c-2.323,0.324-2.142-0.834-4.406-0.451l1.797-1.103
	c-1.805,0.04-4.452,0.38-3.521-0.562c-3.153,1.131-8.686,0.684-12.623,1.334l0.261-0.856c-2.036,1.038-7.485-0.052-9.253,1.192
	l-0.3-0.349l-4.055,1.151c-1.835-0.102-1.212-1.391-1.359-1.033c-4.027,0.227-7.188,0.297-9.776-0.146
	c-0.651,1.15-4.89,1.453-8.261,1.596c-3.555-0.156-7.171-0.213-10.805-0.213l110.685-10.479c2.459,1.201,4.22,0.157,6.565-0.622
	l5.352-0.508c0.22,0.034,0.432,0.056,0.662,0.104c1.396,0.676-4.635,1.672,1.299,1.595l-0.34-0.719
	c8.203,0.18,13.064,2.315,19.8,2.688c1.003-2.652-5.81-3.412-12.772-4.486l8.494-0.805c0.979,0.035,2.067,0.044,3.31,0.016
	c0.192-0.132,0.357-0.255,0.512-0.377l4.664-0.441l1.045-0.05c-0.507,0.058-0.7,0.246-0.301,0.722c1.589,1.014,4.6,0.47,5.308,1.9
	c-3.706,1.321-2.824,0.9-7.871,0.633c0.531,1.07,3.023,1.672,0.812,2.71c12.588,1.137,25.032-3.527,35.338-0.56
	c-1.531-1.907,13.268-2.026,4.932-3.282l-0.527,1.141c-6.64,1.022-14.817-2.122-15.975-3.336
	c12.758,1.364,14.775-0.064,28.688,0.214c-5.537-2.166,7.862-0.764,4.637-2.733c3.171-0.233,6.734,0.227,9.294-0.152
	c-7.131,2.201,5.532,2.152,4.348,4.075c-4.257,0.338-8.812-0.975-9.1-2.606c-2.749,0.022-2.445,1.653-1.892,2.719l-12.743,0.937
	c10.984-0.065-0.006,5.336,9.832,4.062c2.568-0.374-0.42-2.913,6.51-2.329c1.236-0.011,1.557,0.421,1.285,0.865
	c2.773-0.837,5.888-1.55,9.976-0.872c0.105-0.747-1.562-1.958,3.675-2.08c7.182-0.02,3.368,3.229,4.802,3.848l-1.504,0.304
	c3.334,0.419,0.605,1.971,5.63,3.085c-1.389-0.498-0.212-1.402,3.124-1.213c4.819,1.02-4.275,4.894,3.325,3.824
	c-1.354,0.041-1.827-0.789,0.48-0.826c10.719,1.319-0.999,2.292,1.827,4.45c8.887-0.012,6.505,0.744,15.397,0.723
	c-5.522,0.106-1.571-1.887-5.765-2.454c6.107-0.177,5.304-0.722,8.77-1.549c0.104,0.053,0.216,0.105,0.323,0.158
	c-2.863,2.062,3.105,2.255,2.869,3.215c0.361-0.046,0.725-0.094,1.092-0.142c-0.907-0.368-1.768-0.876-2.479-1.669l3.66-0.825
	l-0.005,0.07c0.06-0.049,0.139-0.077,0.208-0.116l1.12-0.253c1.075-0.017,2.371,0.357,3.034,0.628l0.894-1.082
	c0.841,0.229,1.563,0.407,2.179,0.596c-0.399,0.199-0.588,0.505-0.494,0.975c0.864-0.076,1.602-0.113,2.236-0.121
	c0.125,0.113,0.238,0.234,0.332,0.373l-0.08-0.374c5.479,0.003,2.845,2.373,7.887,1.457l0.546-0.189l0.014,0.059
	c1.992-0.254,4.215-0.446,4.789,0.109c-1.078,0.235-1.441,0.67-1.797,1.103c8.422,0.173,1.779-3.228,9.238-3.317l-0.086,0.64
	l1.894-0.679l1.983,0.809c2.688-2.186,10.471,0.198,14.975-0.961c1.771-0.18,4.102,1.116,7.467,0.973l-0.219-0.986
	c2.716,1.004,12.824,1.637,15.358,3.922c2.554-0.765-0.269-0.207-0.212-0.988c4.981-1.028,5.327,0.522,7.939,1.105
	c3.067-0.493-2.347-0.375-0.697-1.119c4.699,0.748,3.816-1.217,9.621-0.562c0.576,0.555-1.498,0.387-2.098,0.754
	c4.084-1.008,11.695-0.395,17.771-0.594c6.948,0.699,17.211,0.975,25.334,1.863l0.15-0.358c3.375,0.921,7.034,0.062,10.981,0.473
	l-1.929-0.524c2.577-0.624,4.024-0.23,6.462-0.495l1.361,1.034c2.641-0.34,1.166-0.875,3.083-1.412
	c2.41,0.656,7.485,0.05,8.629,0.098c0.793,0.478-0.987,0.66-1.372,0.949c3.095-0.348,2.876-1.336,6.723-1.348l0.063,0.28
	c9.188-1.472,20.836-1.085,31.056-2.016c-0.692-0.054-0.519-0.271-0.786-0.478c10.788-0.375,23.237-0.43,31.768-2.881
	c-5.83,0.268-15.707-1.363-21.651,0.467c-2.199-0.736-5.588,0.33-6.5-0.713c-8.479-0.453-11.926,1.393-20.079,1.426
	c-1.169-0.188-0.602-0.695-0.938-1.184l6.462-0.494l-3.938-0.412c1.704-0.461,5.856-0.127,6.329-1.057
	c-5.644,1.113-14.671,0.243-19.597,1.555c2.315,0.234,5.208-0.041,7.948,0.041c1.205,0.329,3.071,0.572,2.949,1.072
	c-7.84,1.445-14.341,0.734-22.394,1.189c-2.02,0.115-4.757,0.032-5.09-0.455c1.325-0.172,0.325-0.577,1.412-0.814
	c-2.854,0.42-0.286,1.781-4.414,1.585l0.528-1.713c-1.642,1.81-5.051-0.315-7.988,0.741c-1.058-0.686,0.892-1.082,3.149-1.131
	c-2.564-0.299-2.796,0.697-4.844,0.672l1.94-1.461c-2.179,1.395-3.907-0.27-5.144-0.74c-0.146,0.357,1.003,1.468-1.73,1.384
	c-1.174-0.186-0.573-0.554-0.85-0.761c-0.15,0.359-1.135,1.018-2.94,1.056c-0.33-0.487,1.199-0.733,1.316-1.233
	c-1.36,0.029-2.471,0.124-3.458-0.279c-2.407,0.406,0.156,0.704-1.315,1.234c-3.698-0.349-0.369-1.693-1.731-2.729
	c0.019-0.004,0.036-0.008,0.054-0.012c1.43-0.109,2.625-0.356,3.703-0.665c1.691-0.234,3.246-0.404,4.104-0.627l-2.741,0.206
	c2.84-0.955,5.262-2.024,10.203-1.159l-1.035-2.875c12.426,2.406,14.273,0.695,28.696,1.784c4.002-2.605,2.942-5.48,9.696-7.342
	c2.024,1.047,1.203,3.283,10.389,1.353c0.426-1.133-2.883-1.166-5.483-1.506c17.812-3.156,40.23-7.313,59.085-7.645
	c-3.678,1.006-3.974,1.606-2.973,2.063c-0.634,0.169-1.266,0.329-1.884,0.45c1.557,0.126,2.479,0.08,3.332-0.01
	c2.147,0.502,5.248,0.917,4.775,1.812l3.226-0.54c0.464,0.235,0.96,0.464,1.549,0.66l-0.891-0.771l2.385-0.399
	c0.622,0.115,0.945,0.292,2.495-0.264l-0.043,0.603c-5.446,1.18-11.841,2.561-17.285,4.307c1.261,0.644,1.519,1.446,1.393,2.285
	c2.817-0.198,5.592,1.157,9.319,0.186c0.371,0.446,1.201,0.833,2.229,1.189c3.1,0.331,6.46-0.215,10.458-0.702
	c-0.169,1-2.472,1.896-3.697,2.768c0.772,0.35,1.19,0.729,0.979,1.163c5.326-0.926,8.096-2.958,8.479-3.991
	c1.033,0.518-0.964,1.838,3.22,1.962c9.609-0.734,5.256-3.626,5.663-4.75c4.507,0.97,10.983,5.379,18.299,0.61l-6.452,4.925
	c7.169-0.517,7.75-3.575,16.833-3.31c-7.934,0.681-14.661,2.446-10.797,4.194c10.069-3.993,22.406,1.674,27.865-4.026l-1.589,5.226
	c0.405-0.003,0.788-0.009,1.157-0.018c0.146-0.294,0.295-0.578,0.518-0.848l6.123-0.159c0.661-0.155,1.088-0.714,1.666-1.344
	c0.563-0.923-0.209-4.398,2.437-5.889c0.301,0.13,0.597,0.268,0.911,0.401c0.044,0.351,0.193,0.693,0.109,0.854
	c0.369-0.103,0.799-0.239,1.271-0.399c0.01,0.002,0.018,0.005,0.026,0.007c0.937-0.15,1.078-0.243,0.876-0.322
	c0.816-0.292,1.73-0.636,2.724-1.015c1.118-0.324,2.333-0.682,5.324-0.345c0.576,0.555-1.498,0.387-2.098,0.754
	c4.084-1.008,11.695-0.395,17.771-0.594c6.948,0.699,17.211,0.975,25.334,1.863l0.149-0.357c3.375,0.92,7.035,0.061,10.982,0.473
	l-1.929-0.525c2.577-0.623,4.024-0.23,6.462-0.494l1.361,1.033c2.641-0.34,1.166-0.875,3.083-1.412
	c2.409,0.656,7.485,0.051,8.629,0.098c0.793,0.479-0.987,0.66-1.372,0.949c3.095-0.348,2.876-1.336,6.723-1.348l0.063,0.281
	c9.188-1.473,20.836-1.086,31.056-2.016c-0.693-0.055-0.519-0.271-0.786-0.479c10.788-0.375,23.237-0.43,31.768-2.881
	c-5.83,0.268-15.707-1.363-21.651,0.467c-2.199-0.736-5.588,0.33-6.5-0.713c-8.479-0.453-11.926,1.393-20.079,1.426
	c-1.169-0.188-0.602-0.695-0.938-1.184l6.462-0.494l-3.938-0.412c1.704-0.461,5.856-0.127,6.329-1.057
	c-5.644,1.113-14.671,0.244-19.597,1.555c2.315,0.234,5.208-0.041,7.948,0.041c1.204,0.33,3.071,0.572,2.949,1.072
	c-7.84,1.445-14.341,0.734-22.394,1.189c-2.02,0.115-4.757,0.033-5.09-0.455c1.324-0.172,0.324-0.576,1.411-0.814
	c-2.854,0.42-0.285,1.781-4.413,1.586l0.528-1.713c-1.642,1.809-5.051-0.316-7.988,0.74c-1.058-0.686,0.892-1.082,3.149-1.131
	c-2.564-0.299-2.796,0.697-4.844,0.672l1.94-1.461c-2.179,1.395-3.907-0.27-5.144-0.74c-0.146,0.357,1.003,1.469-1.73,1.385
	c-1.175-0.186-0.573-0.555-0.85-0.762c-0.15,0.359-1.135,1.018-2.94,1.057c-0.33-0.488,1.198-0.734,1.316-1.234
	c-1.36,0.029-2.471,0.125-3.458-0.279c-2.407,0.406,0.156,0.705-1.315,1.234c-2.922-0.274-1.465-1.172-1.393-2.047
	c0.449-0.174,0.803-0.368,0.984-0.592c9.334-1.479,21.943,0.707,26.854-0.624c1.562,0.796,3.37,1.322,5.312,1.713
	c5.154-0.396,10.412-0.948,15.86-1.75c0.007-0.019-0.002-0.034,0-0.052c0.144,0.658,0.64,1.205,2.75,1.515
	c28.774,0.218,41.041-5.052,70.983-3.448c3.206,3.157,15.204,0.024,22.981,2.222c2.684-0.702,5.596-1.236,8.672-1.643
	c0.08-0.861,1.393-1.715,5.168-2.572c4.095,1.266,2.197-0.465,5.48-0.975c3.856,0.567,4.462,1.404,6.201,2.411
	c3.705-0.075,7.489-0.072,11.282-0.033c-0.215-1.285-11.148-1.669-1.317-3.116l3.38,2.573c2.572-3.027,9.65-3.894,17.097-3.512
	c-1.486-0.842-1.896-1.733-0.154-2.723c-0.297,2.195,9.601,0.279,7.645,2.731c-1.638,0.259-3.598-1.107-5.889,0.091
	c4.364-0.567,3.676,0.38,6.821,0.959c1.256-0.464,1.902-0.812,2.189-1.089C1500.289,10.838,1500.204,10.628,1499.996,10.446z
	 M115.176,87.588c0.49,0.897,3.712,0.677,2.488,1.485l-5.183,0.389c0.323-0.574-3.614-0.984-0.793-1.541
	c-0.434-0.043-0.885-0.066-1.333-0.095C111.962,87.56,113.674,87.347,115.176,87.588z M177.655,92.993
	c-4.344,0.398-7.729,1.283-13.355,1.307c-1.169-0.188-0.602-0.695-0.938-1.184l6.462-0.494l-3.938-0.412
	c1.704-0.461,5.856-0.127,6.329-1.057c-5.644,1.113-14.671,0.242-19.597,1.555c2.316,0.234,5.208-0.041,7.948,0.041
	c1.205,0.329,3.072,0.572,2.95,1.072c-7.84,1.445-14.341,0.734-22.394,1.188c-2.019,0.115-4.757,0.032-5.09-0.454
	c1.325-0.173,0.325-0.578,1.412-0.814c-2.854,0.42-0.286,1.781-4.414,1.585l0.529-1.714c-1.642,1.811-5.051-0.314-7.989,0.742
	c-1.057-0.687,0.892-1.082,3.15-1.131c-2.565-0.3-2.796,0.696-4.844,0.672l1.94-1.461c-2.178,1.395-3.907-0.271-5.143-0.74
	c-0.146,0.356,1.003,1.468-1.731,1.384c-1.174-0.187-0.573-0.554-0.849-0.761c-0.151,0.358-1.135,1.018-2.941,1.056
	c-0.33-0.487,1.199-0.733,1.317-1.233c-1.361,0.029-2.471,0.125-3.458-0.279c-2.408,0.406,0.156,0.705-1.316,1.234
	c-3.698-0.349-0.369-1.693-1.731-2.729c2.674-0.67,6.064-0.899,7.653-1.26c-0.042,0.025-0.104,0.057-0.156,0.086
	c0.675-0.271,2.931-0.5,2.255-1.289c-0.295,0.316-0.62,0.06-1.239,0.113l0.552-1.207c1.667,0.5,3.533-1.043,5.132-0.315
	c0.522,0.965-3.003,0.631-1.928,1.766c1.537-1.805,7.805-2.582,9.799-1.821c1.339,0.242,1.498,1.752,2.057,1.916l2.25-0.129
	c0.264,0.483,0.298,1.062,0.717,1.676c1.109,0.336,1.863-0.168,2.551-0.445c2.937,0.965,1.368,2.195-0.137,3.199l-1.658-0.504
	c-1.211,0.687-2.944,0.406-1.927,1.765c0.841-0.147,0.812-0.722,1.109-1.038l0.975,0.781c0.981-0.598,3.692-0.914,3.402-1.973
	c1.988,0.762,4.273-0.168,6.038,0.69c-1.21-0.688,0.326-1.117-0.032-1.953l-2.121-0.315c1.698-0.301,4.148-1.099,5.749-0.371
	c-0.196,0.668-0.261,0.891,0.551,1.543c-1.141-0.914,2.972-1.207,0.494-2.364c-0.913,0.372-1.764,0.521-2.944,0.411
	c-0.775-1.454,1.085-1.617,2.127-2.438c1.307-0.332,3.857-0.781,5.619-1.302c1.11,0.336,1.436,1.972,3.333,1.004
	c-2.416-1.375,2.284-2.305,2.91-3.733c1.83,0.629,2.97-1.211,4.438-0.039c-0.749,0.504-3.561,0.465-4.277,1.543
	c-0.102,1.022,0.621,2.699-2.157,3.238c3.337,0.514,1.96-0.88,3.497-1.298l-1.143,0.142c0.52-0.407-0.461-1.188,0.553-1.207
	c3.917,0.375,4.605,1.468,7.251,2.754c-0.59-0.743,0.619-1.434,1.243-1.489c2.104,0.769,0.713,1.754,1.046,2.935l-0.171-0.222
	l-3.725,0.575c1.477,0.663,2.264,0.123,4.239,0.257c0.045,0.054,0.084,0.104,0.139,0.159c0.886-0.949,2.619-0.669,2.032-1.414
	c1.008-0.02,0.485,0.391,1.206,0.688c0.651-0.854,1.407-1.354,2.806-1.336c-0.127,0.445-0.323,1.113-1.664,0.871
	c1.503,0.375,2.054,1.918,1.402,2.773l-2.447-0.578c-1.113,1.043,2.283,0.449,2.189,1.469c-1.08,0.242-1.894-0.41-2.582-0.13
	C177.13,92.802,177.371,92.933,177.655,92.993z M181.019,92.476c0.545,0.051,0.878,0.174,1.083,0.334
	c-1.045-0.008-2.018,0.02-2.933,0.072C179.826,92.731,180.499,92.522,181.019,92.476z M206.966,69.935
	c0.147-0.209,0.235-0.382,0.299-0.537c0.257-0.027,0.513-0.059,0.77-0.086C207.771,69.562,207.445,69.782,206.966,69.935z
	 M219.114,71.092c-1.962-0.188-4.605-0.094-6.269-0.594c1.03-0.526,1.264-1.196,0.983-1.835c2.101-0.241,4.178-0.492,6.198-0.77
	l1.44,0.67C219.342,68.247,219.769,70.235,219.114,71.092z M252.392,70.911c-2.258-0.127-5.046,0.055-6.464,1.469l0.59-2.007
	l-2.484,0.224c-1.857-1.212,2.189-1.285,3.43-1.396c-3.366-0.209-5.619-0.078-8.655-0.021c0.885,0.424,0.358,0.836,0.781,1.449
	c-1.042,0.82-2.479,0.223-3.56,0.465c-0.262-0.484-0.129-0.93,0.718-1.078l-2.086,0.258c0.166-1.246-0.852-1.228,1.21-2.062
	l-1.927,0.39c-2.126-0.314,0.095-1.021,0.618-1.434l-3.363-0.202c-1.206,0.688,0.686,1.099-1.632,1.447
	c-2.162-0.765-4.739-0.789-7.295-0.849c4.852-0.734,9.29-1.662,12.807-3.021c-3.073,3.059,6.178,1.354,12.528,0.768l-6.089,3.766
	c7.897-1.733,7.512,1.777,15.623,0.203C255.464,69.819,253.542,70.401,252.392,70.911z M256.512,73.39
	c0.833-1.351-0.412-1.115-1.201-1.484c1.47-0.09,2.701-0.329,3.813-0.633c-0.081,0.42,0.219,0.779,1.142,0.979
	C258.86,72.235,256.868,72.847,256.512,73.39z M263.532,70.728c-1.152,0.041-1.354-0.154-1.226-0.418
	c0.643-0.187,1.305-0.35,2.012-0.471C264.107,70.163,263.864,70.468,263.532,70.728z M269.525,67.207l-0.025-0.075
	c0.125,0.027,0.242,0.053,0.365,0.078C269.749,67.213,269.638,67.208,269.525,67.207z M270.062,68.817l-0.347-1.041
	c0.577-0.053,1.232-0.062,1.766-0.232c0.631,0.125,1.232,0.236,1.81,0.339C272.428,68.416,271.599,68.907,270.062,68.817z
	 M646.896,49.831l-0.087,0.639l1.894-0.678l1.984,0.809c2.688-2.186,10.47,0.197,14.974-0.961c1.771-0.18,4.102,1.115,7.467,0.973
	l-0.219-0.985c1.651,0.61,6.038,1.086,9.793,1.878c-24.436,1.822-48.836,3.846-69.764,2.762l-0.15,0.858
	c-13.408,1.095-12.883-1.933-23.702-2.181c1.397,0.777,7.623,0.857,4.979,2.494c-3.978,0.471-21.714-0.151-29.957,2.201
	c-6.729-1.283-1.704-3.119-10.872-3.734l-4.585,3.285c-8.457-0.494-13.441,0.824-22.371-0.912l4.799-1.226L608,47.771
	c1.988,0.425,2.956,1.431,4.913,2.082l-1.118-0.967c3.453-0.785,2.379,0.516,5.107-0.466l-0.112,1.563
	c0.96-0.801,3.371-0.146,4.363,0.261l0.893-1.082c2.174,0.592,3.59,0.842,4.253,1.821l-0.213-0.989
	c0.819,0.623,8.36-0.107,5.781,1.577c0.63-0.225,1.206-0.735,2.587-0.62l0.21,0.985c1.992-0.254,4.215-0.446,4.789,0.108
	c-1.078,0.236-1.441,0.67-1.797,1.104C646.079,53.319,639.438,49.921,646.896,49.831z M908.496,42.198l-0.062-0.053
	c0.079-0.017,0.146-0.034,0.229-0.051C908.604,42.129,908.552,42.163,908.496,42.198z M908.824,38.825
	c0.113-0.254,0.413-0.542,0.958-0.877c7.685-1.226-3.829-2.985,5.243-2.665c-0.225,1.307,1.227,2.159,3.186,2.851
	C915.02,38.343,911.886,38.575,908.824,38.825z M937.977,37.304c-0.857-1.586-0.174-3.404-8.073-3.344
	c5.045-3.031,10.564-0.036,17.38-0.848l-3.002,0.643c0.624,0.127,1.691,0.031,2.126-0.196c2.017,1.656-6.239,1.863-5.282,3.617
	l3.235-1.222c-0.048,0.751,3.958,0.885,4.573,1.385C945.309,37.253,941.648,37.247,937.977,37.304z M972.372,36.987
	c-0.226-0.055-0.39-0.134-0.511-0.225c0.227-0.104,0.444-0.213,0.649-0.326L972.372,36.987z M1022.379,36.493
	c-2.642,0.339-2.348-0.375-2.889-0.789c-1.955,0.396-1.737,1.385-2.938,2.117c-4.033-0.832-4.601-0.325-8.035-1.527l0.213,0.988
	c-2.436-0.797-2.79,0.697-5.412,0.116c-0.146-0.212,0.858-0.465,1.666-0.694c-2.323,0.324-2.142-0.834-4.406-0.451l1.797-1.103
	c-1.63,0.036-3.938,0.313-3.688-0.326c6.543-0.987,12.628-2.169,17.146-4.042c-1.914,1.998,1.146,1.936,5.259,1.438
	c0.087-0.313,0.476-0.613,1.283-0.867c1.53-0.008,2.697,0.07,3.614,0.206c0.818-0.113,1.624-0.218,2.387-0.308l-0.958,0.625
	c2.658,0.834,2.126,2.444,5.787,3.172c-4.188,0.005-8.61,0.429-12.331,0.766C1021.6,36.013,1022.53,36.132,1022.379,36.493z
	 M1037.363,35.214c-0.119-0.011-0.243-0.017-0.364-0.026c0.322-0.058,0.649-0.118,1.003-0.195
	C1037.793,35.066,1037.579,35.14,1037.363,35.214z M1267.887,18.487c-1.283-0.265-2.214-0.394-2.999-0.485
	c1.226-0.294,2.517-0.337,3.837-0.278C1268.512,17.986,1268.275,18.25,1267.887,18.487z"/>
</svg>
