<?xml version="1.0" encoding="UTF-8" standalone="no"?>
<svg
   xmlns:dc="http://purl.org/dc/elements/1.1/"
   xmlns:cc="http://creativecommons.org/ns#"
   xmlns:rdf="http://www.w3.org/1999/02/22-rdf-syntax-ns#"
   xmlns:svg="http://www.w3.org/2000/svg"
   xmlns="http://www.w3.org/2000/svg"
   height="1500.001"
   width="56.125"
   xml:space="preserve"
   enable-background="new 0 0 1500 150"
   viewBox="0 0 56.125 1500.001"
   preserveAspectRatio="none"
   y="0px"
   x="0px"
   id="Layer_1"
   version="1.1"><metadata
   id="metadata203"><rdf:RDF><cc:Work
       rdf:about=""><dc:format>image/svg+xml</dc:format><dc:type
         rdf:resource="http://purl.org/dc/dcmitype/StillImage" /><dc:title></dc:title></cc:Work></rdf:RDF></metadata><defs
   id="defs201" />
<g
   transform="rotate(-90,750.0005,750.0005)"
   id="g196">
	<path
   style="fill:#d3d3d3"
   id="path2"
   d="M 46.788,34.861 C 66.263,34.861 82.169,19.327 82.792,0 H 75.694 C 75.076,15.413 62.35,27.763 46.788,27.763 31.225,27.763 18.499,15.413 17.881,0 h -7.097 c 0.622,19.327 16.528,34.861 36.004,34.861 z" />
	<path
   style="fill:#d3d3d3"
   id="path4"
   d="M 46.788,22.668 C 59.561,22.668 69.988,12.622 70.599,0 H 22.977 c 0.611,12.622 11.037,22.668 23.811,22.668 z" />
	<path
   style="fill:#d3d3d3"
   id="path6"
   d="m 140.375,34.861 c 19.476,0 35.382,-15.534 36.004,-34.861 h -7.098 c -0.618,15.413 -13.345,27.763 -28.906,27.763 -15.561,0 -28.289,-12.35 -28.907,-27.763 h -7.097 c 0.622,19.327 16.528,34.861 36.004,34.861 z" />
	<path
   style="fill:#d3d3d3"
   id="path8"
   d="m 140.375,22.668 c 12.772,0 23.199,-10.046 23.81,-22.668 h -47.621 c 0.611,12.622 11.038,22.668 23.811,22.668 z" />
	<path
   style="fill:#d3d3d3"
   id="path10"
   d="m 234.318,34.861 c 19.475,0 35.381,-15.534 36.004,-34.861 h -7.098 C 262.606,15.413 249.881,27.763 234.318,27.763 218.755,27.763 206.03,15.413 205.412,0 h -7.098 c 0.623,19.327 16.529,34.861 36.004,34.861 z" />
	<path
   style="fill:#d3d3d3"
   id="path12"
   d="m 234.318,22.668 c 12.773,0 23.199,-10.046 23.811,-22.668 h -47.622 c 0.612,12.622 11.038,22.668 23.811,22.668 z" />
	<path
   style="fill:#d3d3d3"
   id="path14"
   d="m 327.904,34.861 c 19.477,0 35.383,-15.534 36.005,-34.861 h -7.097 C 356.194,15.413 343.466,27.763 327.904,27.763 312.343,27.763 299.616,15.413 298.998,0 H 291.9 c 0.623,19.327 16.53,34.861 36.004,34.861 z" />
	<path
   style="fill:#d3d3d3"
   id="path16"
   d="m 327.904,22.668 c 12.774,0 23.201,-10.046 23.812,-22.668 h -47.621 c 0.612,12.622 11.037,22.668 23.809,22.668 z" />
	<path
   style="fill:#d3d3d3"
   id="path18"
   d="m 421.849,34.861 c 19.475,0 35.381,-15.534 36.004,-34.861 h -7.098 C 450.137,15.413 437.411,27.763 421.849,27.763 406.286,27.763 393.56,15.413 392.942,0 h -7.098 c 0.623,19.327 16.529,34.861 36.005,34.861 z" />
	<path
   style="fill:#d3d3d3"
   id="path20"
   d="m 421.849,22.668 c 12.773,0 23.199,-10.046 23.81,-22.668 h -47.623 c 0.612,12.622 11.039,22.668 23.813,22.668 z" />
	<path
   style="fill:#d3d3d3"
   id="path22"
   d="m 515.436,34.861 c 19.477,0 35.381,-15.534 36.004,-34.861 h -7.097 C 543.725,15.413 530.998,27.763 515.436,27.763 499.874,27.763 487.148,15.413 486.53,0 h -7.098 c 0.622,19.327 16.527,34.861 36.004,34.861 z" />
	<path
   style="fill:#d3d3d3"
   id="path24"
   d="m 515.436,22.668 c 12.773,0 23.2,-10.046 23.811,-22.668 h -47.622 c 0.611,12.622 11.037,22.668 23.811,22.668 z" />
	<path
   style="fill:#d3d3d3"
   id="path26"
   d="m 609.379,34.861 c 19.475,0 35.381,-15.534 36.004,-34.861 h -7.098 C 637.667,15.413 624.94,27.763 609.379,27.763 593.816,27.763 581.09,15.413 580.472,0 h -7.097 c 0.623,19.327 16.528,34.861 36.004,34.861 z" />
	<path
   style="fill:#d3d3d3"
   id="path28"
   d="m 609.379,22.668 c 12.773,0 23.199,-10.046 23.811,-22.668 h -47.622 c 0.612,12.622 11.038,22.668 23.811,22.668 z" />
	<path
   style="fill:#d3d3d3"
   id="path30"
   d="m 702.966,34.861 c 19.476,0 35.38,-15.534 36.003,-34.861 h -7.096 c -0.618,15.413 -13.345,27.763 -28.907,27.763 -15.561,0 -28.289,-12.35 -28.907,-27.763 h -7.097 c 0.622,19.327 16.528,34.861 36.004,34.861 z" />
	<path
   style="fill:#d3d3d3"
   id="path32"
   d="m 702.966,22.668 c 12.773,0 23.2,-10.046 23.811,-22.668 h -47.622 c 0.612,12.622 11.038,22.668 23.811,22.668 z" />
	<path
   style="fill:#d3d3d3"
   id="path34"
   d="m 796.91,34.861 c 19.478,0 35.38,-15.534 36.002,-34.861 h -7.096 C 825.197,15.413 812.469,27.763 796.91,27.763 781.347,27.763 768.621,15.413 768.003,0 h -7.099 c 0.623,19.327 16.529,34.861 36.006,34.861 z" />
	<path
   style="fill:#d3d3d3"
   id="path36"
   d="m 796.91,22.668 c 12.771,0 23.199,-10.046 23.812,-22.668 h -47.624 c 0.612,12.622 11.039,22.668 23.812,22.668 z" />
	<path
   style="fill:#d3d3d3"
   id="path38"
   d="M 890.497,34.861 C 909.974,34.861 925.878,19.327 926.5,0 h -7.096 c -0.619,15.413 -13.347,27.763 -28.907,27.763 -15.562,0 -28.286,-12.35 -28.905,-27.763 h -7.1 c 0.623,19.327 16.53,34.861 36.005,34.861 z" />
	<path
   style="fill:#d3d3d3"
   id="path40"
   d="m 890.497,22.668 c 12.773,0 23.198,-10.046 23.811,-22.668 h -47.622 c 0.612,12.622 11.038,22.668 23.811,22.668 z" />
	<path
   style="fill:#d3d3d3"
   id="path42"
   d="m 984.44,34.861 c 19.476,0 35.38,-15.534 36.003,-34.861 h -7.097 C 1012.727,15.413 1000,27.763 984.44,27.763 968.877,27.763 956.151,15.413 955.532,0 h -7.095 c 0.623,19.327 16.529,34.861 36.003,34.861 z" />
	<path
   style="fill:#d3d3d3"
   id="path44"
   d="m 984.44,22.668 c 12.771,0 23.198,-10.046 23.811,-22.668 h -47.622 c 0.611,12.622 11.036,22.668 23.811,22.668 z" />
	<path
   style="fill:#d3d3d3"
   id="path46"
   d="m 1078.027,34.861 c 19.477,0 35.381,-15.534 36.004,-34.861 h -7.096 c -0.619,15.413 -13.346,27.763 -28.908,27.763 -15.562,0 -28.289,-12.35 -28.908,-27.763 h -7.096 c 0.623,19.327 16.529,34.861 36.004,34.861 z" />
	<path
   style="fill:#d3d3d3"
   id="path48"
   d="m 1078.027,22.668 c 12.773,0 23.199,-10.046 23.812,-22.668 h -47.622 c 0.612,12.622 11.037,22.668 23.81,22.668 z" />
	<path
   style="fill:#d3d3d3"
   id="path50"
   d="m 1171.971,34.861 c 19.476,0 35.382,-15.534 36.004,-34.861 h -7.098 c -0.619,15.413 -13.346,27.763 -28.906,27.763 -15.562,0 -28.287,-12.35 -28.906,-27.763 h -7.1 c 0.623,19.327 16.531,34.861 36.006,34.861 z" />
	<path
   style="fill:#d3d3d3"
   id="path52"
   d="m 1171.971,22.668 c 12.773,0 23.199,-10.046 23.811,-22.668 h -47.621 c 0.61,12.622 11.035,22.668 23.81,22.668 z" />
	<path
   style="fill:#d3d3d3"
   id="path54"
   d="m 1265.557,34.861 c 19.478,0 35.383,-15.534 36.006,-34.861 h -7.098 c -0.619,15.413 -13.346,27.763 -28.908,27.763 -15.562,0 -28.287,-12.35 -28.906,-27.763 h -7.098 c 0.623,19.327 16.528,34.861 36.004,34.861 z" />
	<path
   style="fill:#d3d3d3"
   id="path56"
   d="m 1265.557,22.668 c 12.774,0 23.2,-10.046 23.812,-22.668 h -47.624 c 0.612,12.622 11.039,22.668 23.812,22.668 z" />
	<path
   style="fill:#d3d3d3"
   id="path58"
   d="m 1359.5,34.861 c 19.477,0 35.384,-15.534 36.006,-34.861 h -7.098 c -0.619,15.413 -13.344,27.763 -28.908,27.763 -15.562,0 -28.287,-12.35 -28.906,-27.763 h -7.098 c 0.623,19.327 16.531,34.861 36.004,34.861 z" />
	<path
   style="fill:#d3d3d3"
   id="path60"
   d="m 1359.5,22.668 c 12.773,0 23.2,-10.046 23.812,-22.668 h -47.624 c 0.613,12.622 11.041,22.668 23.812,22.668 z" />
	<path
   style="fill:#d3d3d3"
   id="path62"
   d="m 1488.643,29.2 c 3.248,2.212 7.145,3.539 11.357,3.608 V 0 h -6.904 c -0.624,21.535 -18.324,38.864 -40.008,38.864 -21.683,0 -39.383,-17.33 -40.008,-38.864 h -13.57 c -0.625,21.535 -18.324,38.864 -40.01,38.864 -21.683,0 -39.381,-17.33 -40.006,-38.864 h -13.928 c -0.625,21.535 -18.324,38.864 -40.01,38.864 -21.684,0 -39.383,-17.33 -40.008,-38.864 h -13.57 c -0.625,21.535 -18.325,38.864 -40.008,38.864 -21.684,0 -39.384,-17.33 -40.008,-38.864 h -13.927 c -0.625,21.535 -18.326,38.864 -40.009,38.864 -21.683,0 -39.381,-17.329 -40.006,-38.864 h -13.571 c -0.625,21.535 -18.325,38.864 -40.008,38.864 -21.685,0 -39.385,-17.33 -40.01,-38.864 H 930.506 C 929.881,21.535 912.18,38.864 890.497,38.864 868.814,38.864 851.113,21.535 850.488,0 H 836.917 C 836.292,21.535 818.593,38.864 796.91,38.864 775.226,38.864 757.526,21.534 756.901,0 H 742.974 C 742.35,21.535 724.649,38.864 702.966,38.864 681.283,38.864 663.582,21.535 662.958,0 H 649.387 C 648.763,21.535 631.062,38.864 609.379,38.864 587.695,38.864 569.995,21.534 569.371,0 H 555.443 C 554.819,21.535 537.119,38.864 515.435,38.864 493.752,38.864 476.051,21.534 475.427,0 H 461.855 C 461.231,21.535 443.531,38.864 421.848,38.864 400.164,38.864 382.463,21.534 381.839,0 H 367.911 C 367.287,21.535 349.587,38.864 327.903,38.864 306.22,38.864 288.521,21.534 287.897,0 H 274.325 C 273.701,21.535 256.001,38.864 234.317,38.864 212.633,38.864 194.933,21.534 194.309,0 H 180.381 C 179.757,21.535 162.056,38.864 140.374,38.864 118.69,38.864 100.99,21.534 100.366,0 H 86.795 C 86.171,21.535 68.47,38.864 46.787,38.864 25.104,38.864 7.404,21.535 6.78,0 H 0 v 32.81 c 4.182,-0.063 8.055,-1.364 11.292,-3.542 0.774,0.9 1.575,1.784 2.423,2.633 1.11,1.11 2.267,2.156 3.464,3.139 C 12.395,38.683 6.449,40.875 0,40.944 v 7.098 c 8.878,-0.077 16.999,-3.377 23.247,-8.788 7.07,4.133 15.134,6.346 23.541,6.346 8.303,0 16.271,-2.162 23.278,-6.197 6.299,5.388 14.471,8.647 23.39,8.647 8.968,0 17.18,-3.292 23.492,-8.732 7.043,4.091 15.065,6.282 23.428,6.282 8.444,0 16.544,-2.231 23.637,-6.401 6.33,5.507 14.589,8.851 23.618,8.851 8.923,0 17.098,-3.261 23.399,-8.653 7.01,4.039 14.981,6.203 23.289,6.203 8.303,0 16.27,-2.162 23.277,-6.196 6.3,5.388 14.471,8.646 23.391,8.646 8.967,0 17.18,-3.292 23.492,-8.731 7.043,4.09 15.065,6.281 23.426,6.281 8.445,0 16.545,-2.231 23.639,-6.401 6.329,5.507 14.588,8.851 23.619,8.851 8.923,0 17.098,-3.261 23.398,-8.653 7.011,4.04 14.982,6.203 23.29,6.203 8.303,0 16.27,-2.162 23.277,-6.196 6.299,5.388 14.472,8.646 23.391,8.646 8.967,0 17.179,-3.292 23.492,-8.732 7.043,4.091 15.065,6.282 23.427,6.282 8.445,0 16.544,-2.231 23.638,-6.4 6.33,5.507 14.589,8.851 23.618,8.851 8.924,0 17.099,-3.261 23.399,-8.653 7.01,4.039 14.981,6.203 23.289,6.203 8.303,0 16.27,-2.162 23.277,-6.197 6.299,5.388 14.471,8.647 23.39,8.647 8.968,0 17.18,-3.292 23.492,-8.731 7.043,4.09 15.065,6.281 23.427,6.281 8.445,0 16.544,-2.231 23.638,-6.401 6.33,5.507 14.588,8.851 23.618,8.851 8.924,0 17.099,-3.261 23.399,-8.653 7.01,4.039 14.98,6.203 23.289,6.203 8.303,0 16.27,-2.162 23.277,-6.196 6.299,5.388 14.471,8.646 23.391,8.646 8.967,0 17.18,-3.292 23.492,-8.731 7.043,4.09 15.064,6.281 23.427,6.281 8.444,0 16.544,-2.231 23.638,-6.401 6.329,5.507 14.59,8.852 23.617,8.852 8.925,0 17.1,-3.261 23.4,-8.653 7.009,4.039 14.979,6.203 23.288,6.203 8.304,0 16.271,-2.162 23.278,-6.197 6.298,5.388 14.471,8.647 23.389,8.647 8.969,0 17.18,-3.292 23.492,-8.732 7.044,4.091 15.065,6.282 23.428,6.282 8.444,0 16.544,-2.231 23.638,-6.401 6.33,5.507 14.589,8.851 23.619,8.851 8.923,0 17.099,-3.261 23.397,-8.653 7.011,4.039 14.981,6.203 23.289,6.203 8.302,0 16.27,-2.162 23.277,-6.197 6.299,5.388 14.471,8.647 23.391,8.647 8.967,0 17.18,-3.292 23.492,-8.732 7.043,4.091 15.064,6.282 23.426,6.282 8.445,0 16.546,-2.231 23.64,-6.401 6.33,5.507 14.588,8.851 23.617,8.851 8.925,0 17.099,-3.262 23.397,-8.654 7.011,4.04 14.981,6.204 23.289,6.204 8.303,0 16.271,-2.162 23.278,-6.197 6.3,5.389 14.472,8.647 23.392,8.647 8.968,0 17.18,-3.292 23.492,-8.732 7.043,4.091 15.064,6.282 23.426,6.282 8.445,0 16.545,-2.231 23.638,-6.4 6.25,5.435 14.381,8.757 23.274,8.842 v -7.097 c -6.475,-0.077 -12.439,-2.291 -17.231,-5.964 1.172,-0.966 2.305,-1.992 3.393,-3.08 0.868,-0.873 1.688,-1.778 2.48,-2.703 z M 93.455,40.952 c -6.471,0 -12.449,-2.142 -17.273,-5.745 1.273,-1.032 2.503,-2.132 3.678,-3.307 0.79,-0.79 1.537,-1.611 2.262,-2.446 3.263,2.125 7.15,3.371 11.333,3.371 4.253,0 8.198,-1.288 11.493,-3.478 0.754,0.873 1.531,1.729 2.355,2.553 1.138,1.138 2.325,2.207 3.555,3.21 -4.848,3.662 -10.874,5.842 -17.403,5.842 z m 94.175,0 c -6.607,0 -12.7,-2.231 -17.576,-5.973 1.172,-0.965 2.305,-1.992 3.393,-3.079 0.87,-0.87 1.69,-1.776 2.482,-2.7 3.336,2.277 7.357,3.625 11.702,3.625 4.189,0 8.083,-1.247 11.348,-3.377 0.728,0.837 1.476,1.66 2.268,2.452 1.172,1.172 2.399,2.269 3.669,3.299 -4.828,3.609 -10.809,5.753 -17.286,5.753 z m 93.356,0 c -6.472,0 -12.449,-2.142 -17.273,-5.745 1.273,-1.033 2.503,-2.132 3.678,-3.307 0.79,-0.79 1.537,-1.611 2.263,-2.446 3.262,2.125 7.149,3.371 11.333,3.371 4.253,0 8.198,-1.288 11.492,-3.478 0.754,0.873 1.531,1.729 2.355,2.553 1.138,1.137 2.325,2.206 3.555,3.21 -4.848,3.662 -10.873,5.842 -17.403,5.842 z m 94.176,0 c -6.607,0 -12.701,-2.231 -17.577,-5.972 1.172,-0.966 2.306,-1.992 3.394,-3.08 0.87,-0.87 1.689,-1.775 2.481,-2.7 3.337,2.277 7.357,3.625 11.703,3.625 4.189,0 8.082,-1.246 11.347,-3.376 0.727,0.837 1.476,1.66 2.267,2.452 1.172,1.172 2.399,2.269 3.669,3.299 -4.828,3.608 -10.808,5.752 -17.284,5.752 z m 93.355,0 c -6.472,0 -12.45,-2.142 -17.274,-5.745 1.273,-1.033 2.503,-2.132 3.678,-3.307 0.79,-0.79 1.537,-1.611 2.263,-2.446 3.263,2.125 7.15,3.371 11.334,3.371 4.253,0 8.198,-1.288 11.492,-3.478 0.754,0.873 1.531,1.729 2.355,2.553 1.138,1.137 2.325,2.206 3.555,3.21 -4.848,3.662 -10.874,5.842 -17.403,5.842 z m 94.174,0 c -6.607,0 -12.699,-2.231 -17.576,-5.972 1.172,-0.966 2.305,-1.992 3.393,-3.08 0.87,-0.87 1.689,-1.775 2.481,-2.7 3.337,2.277 7.358,3.625 11.702,3.625 4.189,0 8.083,-1.247 11.348,-3.377 0.728,0.837 1.476,1.66 2.268,2.452 1.172,1.172 2.399,2.269 3.669,3.299 -4.827,3.609 -10.808,5.753 -17.285,5.753 z m 93.356,0 c -6.471,0 -12.449,-2.142 -17.274,-5.745 1.273,-1.032 2.503,-2.132 3.678,-3.307 0.79,-0.79 1.537,-1.611 2.263,-2.446 3.262,2.125 7.149,3.371 11.333,3.371 4.253,0 8.198,-1.289 11.492,-3.479 0.754,0.873 1.532,1.73 2.355,2.554 1.138,1.138 2.325,2.207 3.555,3.21 -4.846,3.662 -10.873,5.842 -17.402,5.842 z m 94.175,0 c -6.606,0 -12.7,-2.231 -17.576,-5.973 1.172,-0.966 2.305,-1.992 3.393,-3.079 0.87,-0.87 1.69,-1.776 2.482,-2.7 3.337,2.277 7.357,3.625 11.702,3.625 4.191,0 8.084,-1.247 11.349,-3.377 0.728,0.837 1.476,1.66 2.268,2.452 1.172,1.172 2.398,2.269 3.669,3.299 -4.829,3.609 -10.811,5.753 -17.287,5.753 z m 93.356,0 c -6.473,0 -12.45,-2.142 -17.274,-5.745 1.272,-1.032 2.503,-2.132 3.678,-3.307 0.79,-0.79 1.536,-1.611 2.263,-2.446 3.264,2.125 7.15,3.371 11.334,3.371 4.253,0 8.197,-1.288 11.492,-3.478 0.754,0.873 1.531,1.729 2.355,2.553 1.138,1.137 2.324,2.206 3.554,3.209 -4.847,3.663 -10.873,5.843 -17.402,5.843 z m 94.174,0 c -6.607,0 -12.699,-2.231 -17.576,-5.972 1.172,-0.966 2.305,-1.992 3.393,-3.08 0.87,-0.87 1.689,-1.776 2.482,-2.7 3.337,2.277 7.356,3.625 11.701,3.625 4.189,0 8.084,-1.247 11.349,-3.377 0.728,0.837 1.477,1.661 2.269,2.453 1.172,1.172 2.398,2.269 3.668,3.299 -4.827,3.608 -10.808,5.752 -17.286,5.752 z m 93.355,0 c -6.47,0 -12.448,-2.142 -17.272,-5.745 1.273,-1.033 2.503,-2.132 3.679,-3.307 0.79,-0.79 1.536,-1.611 2.262,-2.446 3.262,2.125 7.148,3.371 11.332,3.371 4.254,0 8.198,-1.289 11.493,-3.479 0.754,0.873 1.531,1.73 2.354,2.554 1.138,1.137 2.325,2.206 3.555,3.21 -4.847,3.662 -10.872,5.842 -17.403,5.842 z m 94.177,0 c -6.609,0 -12.701,-2.231 -17.578,-5.973 1.172,-0.966 2.305,-1.992 3.393,-3.079 0.87,-0.87 1.69,-1.776 2.482,-2.7 3.337,2.277 7.357,3.625 11.703,3.625 4.188,0 8.081,-1.247 11.346,-3.377 0.728,0.837 1.476,1.66 2.268,2.452 1.173,1.172 2.399,2.269 3.67,3.299 -4.828,3.609 -10.808,5.753 -17.284,5.753 z m 93.355,0 c -6.473,0 -12.449,-2.142 -17.273,-5.746 1.272,-1.032 2.502,-2.131 3.677,-3.306 0.79,-0.79 1.537,-1.611 2.263,-2.446 3.263,2.125 7.15,3.371 11.334,3.371 4.252,0 8.198,-1.289 11.493,-3.479 0.754,0.873 1.531,1.73 2.355,2.554 1.138,1.137 2.325,2.206 3.554,3.21 -4.848,3.662 -10.874,5.842 -17.403,5.842 z m 94.174,0 c -6.606,0 -12.699,-2.231 -17.576,-5.972 1.173,-0.966 2.306,-1.992 3.394,-3.08 0.869,-0.87 1.689,-1.776 2.481,-2.7 3.337,2.277 7.356,3.625 11.701,3.625 4.189,0 8.083,-1.247 11.349,-3.377 0.727,0.837 1.476,1.661 2.268,2.453 1.172,1.172 2.398,2.269 3.668,3.299 -4.827,3.608 -10.808,5.752 -17.285,5.752 z m 93.357,0 c -6.473,0 -12.45,-2.142 -17.275,-5.746 1.273,-1.032 2.503,-2.131 3.678,-3.306 0.79,-0.79 1.537,-1.612 2.263,-2.447 3.263,2.125 7.151,3.372 11.335,3.372 4.253,0 8.198,-1.289 11.492,-3.479 0.754,0.873 1.531,1.73 2.355,2.554 1.138,1.137 2.324,2.206 3.554,3.209 -4.847,3.663 -10.873,5.843 -17.402,5.843 z" />
	<path
   style="fill:#d3d3d3"
   id="path64"
   d="m 1453.088,34.861 c 19.476,0 35.383,-15.534 36.006,-34.861 h -7.098 c -0.619,15.413 -13.346,27.763 -28.908,27.763 -15.562,0 -28.288,-12.35 -28.906,-27.763 h -7.098 c 0.622,19.327 16.528,34.861 36.004,34.861 z" />
	<path
   style="fill:#d3d3d3"
   id="path66"
   d="m 1453.088,22.668 c 12.775,0 23.199,-10.046 23.812,-22.668 h -47.622 c 0.611,12.622 11.035,22.668 23.81,22.668 z" />
	<circle
   style="fill:#d3d3d3"
   id="circle68"
   r="3.5"
   cy="48.938"
   cx="25.562" />
	<circle
   style="fill:#d3d3d3"
   id="circle70"
   r="3.5"
   cy="52.625"
   cx="39.188" />
	<circle
   style="fill:#d3d3d3"
   id="circle72"
   r="3.5"
   cy="52.625"
   cx="54.375" />
	<circle
   style="fill:#d3d3d3"
   id="circle74"
   r="3.5"
   cy="48.812"
   cx="67.875" />
	<circle
   style="fill:#d3d3d3"
   id="circle76"
   r="3.5"
   cy="48.938"
   cx="119.331" />
	<circle
   style="fill:#d3d3d3"
   id="circle78"
   r="3.5"
   cy="52.625"
   cx="132.95599" />
	<circle
   style="fill:#d3d3d3"
   id="circle80"
   r="3.5"
   cy="52.625"
   cx="148.14301" />
	<circle
   style="fill:#d3d3d3"
   id="circle82"
   r="3.5"
   cy="48.812"
   cx="161.64301" />
	<circle
   style="fill:#d3d3d3"
   id="circle84"
   r="3.5"
   cy="48.938"
   cx="213.09801" />
	<circle
   style="fill:#d3d3d3"
   id="circle86"
   r="3.5"
   cy="52.625"
   cx="226.72301" />
	<circle
   style="fill:#d3d3d3"
   id="circle88"
   r="3.5"
   cy="52.625"
   cx="241.911" />
	<circle
   style="fill:#d3d3d3"
   id="circle90"
   r="3.5"
   cy="48.812"
   cx="255.411" />
	<circle
   style="fill:#d3d3d3"
   id="circle92"
   r="3.5"
   cy="48.938"
   cx="306.866" />
	<circle
   style="fill:#d3d3d3"
   id="circle94"
   r="3.5"
   cy="52.625"
   cx="320.491" />
	<circle
   style="fill:#d3d3d3"
   id="circle96"
   r="3.5"
   cy="52.625"
   cx="335.67899" />
	<circle
   style="fill:#d3d3d3"
   id="circle98"
   r="3.5"
   cy="48.812"
   cx="349.17899" />
	<circle
   style="fill:#d3d3d3"
   id="circle100"
   r="3.5"
   cy="48.938"
   cx="400.634" />
	<circle
   style="fill:#d3d3d3"
   id="circle102"
   r="3.5"
   cy="52.625"
   cx="414.259" />
	<circle
   style="fill:#d3d3d3"
   id="circle104"
   r="3.5"
   cy="52.625"
   cx="429.44601" />
	<circle
   style="fill:#d3d3d3"
   id="circle106"
   r="3.5"
   cy="48.812"
   cx="442.94601" />
	<circle
   style="fill:#d3d3d3"
   id="circle108"
   r="3.5"
   cy="48.938"
   cx="494.40201" />
	<circle
   style="fill:#d3d3d3"
   id="circle110"
   r="3.5"
   cy="52.625"
   cx="508.02701" />
	<circle
   style="fill:#d3d3d3"
   id="circle112"
   r="3.5"
   cy="52.625"
   cx="523.21399" />
	<circle
   style="fill:#d3d3d3"
   id="circle114"
   r="3.5"
   cy="48.812"
   cx="536.71399" />
	<circle
   style="fill:#d3d3d3"
   id="circle116"
   r="3.5"
   cy="48.938"
   cx="588.16998" />
	<circle
   style="fill:#d3d3d3"
   id="circle118"
   r="3.5"
   cy="52.625"
   cx="601.79498" />
	<circle
   style="fill:#d3d3d3"
   id="circle120"
   r="3.5"
   cy="52.625"
   cx="616.98199" />
	<circle
   style="fill:#d3d3d3"
   id="circle122"
   r="3.5"
   cy="48.812"
   cx="630.48199" />
	<circle
   style="fill:#d3d3d3"
   id="circle124"
   r="3.5"
   cy="48.938"
   cx="681.93799" />
	<circle
   style="fill:#d3d3d3"
   id="circle126"
   r="3.5"
   cy="52.625"
   cx="695.56201" />
	<circle
   style="fill:#d3d3d3"
   id="circle128"
   r="3.5"
   cy="52.625"
   cx="710.75" />
	<circle
   style="fill:#d3d3d3"
   id="circle130"
   r="3.5"
   cy="48.812"
   cx="724.25" />
	<circle
   style="fill:#d3d3d3"
   id="circle132"
   r="3.5"
   cy="48.938"
   cx="775.70502" />
	<circle
   style="fill:#d3d3d3"
   id="circle134"
   r="3.5"
   cy="52.625"
   cx="789.33002" />
	<circle
   style="fill:#d3d3d3"
   id="circle136"
   r="3.5"
   cy="52.625"
   cx="804.51801" />
	<circle
   style="fill:#d3d3d3"
   id="circle138"
   r="3.5"
   cy="48.812"
   cx="818.01801" />
	<circle
   style="fill:#d3d3d3"
   id="circle140"
   r="3.5"
   cy="48.938"
   cx="869.47302" />
	<circle
   style="fill:#d3d3d3"
   id="circle142"
   r="3.5"
   cy="52.625"
   cx="883.09802" />
	<circle
   style="fill:#d3d3d3"
   id="circle144"
   r="3.5"
   cy="52.625"
   cx="898.28497" />
	<circle
   style="fill:#d3d3d3"
   id="circle146"
   r="3.5"
   cy="48.812"
   cx="911.78497" />
	<circle
   style="fill:#d3d3d3"
   id="circle148"
   r="3.5"
   cy="48.938"
   cx="963.23999" />
	<circle
   style="fill:#d3d3d3"
   id="circle150"
   r="3.5"
   cy="52.625"
   cx="976.86499" />
	<circle
   style="fill:#d3d3d3"
   id="circle152"
   r="3.5"
   cy="52.625"
   cx="992.05298" />
	<circle
   style="fill:#d3d3d3"
   id="circle154"
   r="3.5"
   cy="48.812"
   cx="1005.553" />
	<circle
   style="fill:#d3d3d3"
   id="circle156"
   r="3.5"
   cy="48.938"
   cx="1057.0081" />
	<circle
   style="fill:#d3d3d3"
   id="circle158"
   r="3.5"
   cy="52.625"
   cx="1070.6331" />
	<circle
   style="fill:#d3d3d3"
   id="circle160"
   r="3.5"
   cy="52.625"
   cx="1085.8199" />
	<circle
   style="fill:#d3d3d3"
   id="circle162"
   r="3.5"
   cy="48.812"
   cx="1099.3199" />
	<circle
   style="fill:#d3d3d3"
   id="circle164"
   r="3.5"
   cy="48.938"
   cx="1150.775" />
	<circle
   style="fill:#d3d3d3"
   id="circle166"
   r="3.5"
   cy="52.625"
   cx="1164.4" />
	<circle
   style="fill:#d3d3d3"
   id="circle168"
   r="3.5"
   cy="52.625"
   cx="1179.588" />
	<circle
   style="fill:#d3d3d3"
   id="circle170"
   r="3.5"
   cy="48.812"
   cx="1193.088" />
	<circle
   style="fill:#d3d3d3"
   id="circle172"
   r="3.5"
   cy="48.938"
   cx="1244.542" />
	<circle
   style="fill:#d3d3d3"
   id="circle174"
   r="3.5"
   cy="52.625"
   cx="1258.167" />
	<circle
   style="fill:#d3d3d3"
   id="circle176"
   r="3.5"
   cy="52.625"
   cx="1273.354" />
	<circle
   style="fill:#d3d3d3"
   id="circle178"
   r="3.5"
   cy="48.812"
   cx="1286.854" />
	<circle
   style="fill:#d3d3d3"
   id="circle180"
   r="3.5"
   cy="48.938"
   cx="1338.3101" />
	<circle
   style="fill:#d3d3d3"
   id="circle182"
   r="3.5"
   cy="52.625"
   cx="1351.9351" />
	<circle
   style="fill:#d3d3d3"
   id="circle184"
   r="3.5"
   cy="52.625"
   cx="1367.1219" />
	<circle
   style="fill:#d3d3d3"
   id="circle186"
   r="3.5"
   cy="48.812"
   cx="1380.6219" />
	<circle
   style="fill:#d3d3d3"
   id="circle188"
   r="3.5"
   cy="48.938"
   cx="1432.077" />
	<circle
   style="fill:#d3d3d3"
   id="circle190"
   r="3.5"
   cy="52.625"
   cx="1445.702" />
	<circle
   style="fill:#d3d3d3"
   id="circle192"
   r="3.5"
   cy="52.625"
   cx="1460.89" />
	<circle
   style="fill:#d3d3d3"
   id="circle194"
   r="3.5"
   cy="48.812"
   cx="1474.39" />
</g>
</svg>