<?xml version="1.0" encoding="utf-8"?>
<!-- Generator: Adobe Illustrator 15.0.0, SVG Export Plug-In . SVG Version: 6.00 Build 0)  -->
<!DOCTYPE svg PUBLIC "-//W3C//DTD SVG 1.1//EN" "http://www.w3.org/Graphics/SVG/1.1/DTD/svg11.dtd">
<svg version="1.1" id="Layer_1" xmlns="http://www.w3.org/2000/svg" xmlns:xlink="http://www.w3.org/1999/xlink" x="0px" y="0px"
	 preserveAspectRatio="none" viewBox="0 0 1500 150" enable-background="new 0 0 1500 150" xml:space="preserve">
<g>
	<path fill="#D3D3D3" d="M46.788,34.861c19.475,0,35.381-15.534,36.004-34.861h-7.098C75.076,15.413,62.35,27.763,46.788,27.763
		c-15.563,0-28.289-12.35-28.907-27.763h-7.097C11.406,19.327,27.312,34.861,46.788,34.861z"/>
	<path fill="#D3D3D3" d="M46.788,22.668c12.773,0,23.2-10.046,23.811-22.668H22.977C23.588,12.622,34.014,22.668,46.788,22.668z"/>
	<path fill="#D3D3D3" d="M140.375,34.861c19.476,0,35.382-15.534,36.004-34.861h-7.098c-0.618,15.413-13.345,27.763-28.906,27.763
		S112.086,15.413,111.468,0h-7.097C104.993,19.327,120.899,34.861,140.375,34.861z"/>
	<path fill="#D3D3D3" d="M140.375,22.668c12.772,0,23.199-10.046,23.81-22.668h-47.621
		C117.175,12.622,127.602,22.668,140.375,22.668z"/>
	<path fill="#D3D3D3" d="M234.318,34.861c19.475,0,35.381-15.534,36.004-34.861h-7.098c-0.618,15.413-13.343,27.763-28.906,27.763
		S206.03,15.413,205.412,0h-7.098C198.937,19.327,214.843,34.861,234.318,34.861z"/>
	<path fill="#D3D3D3" d="M234.318,22.668c12.773,0,23.199-10.046,23.811-22.668h-47.622
		C211.119,12.622,221.545,22.668,234.318,22.668z"/>
	<path fill="#D3D3D3" d="M327.904,34.861c19.477,0,35.383-15.534,36.005-34.861h-7.097c-0.618,15.413-13.346,27.763-28.908,27.763
		c-15.561,0-28.288-12.35-28.906-27.763h-7.098C292.523,19.327,308.43,34.861,327.904,34.861z"/>
	<path fill="#D3D3D3" d="M327.904,22.668c12.774,0,23.201-10.046,23.812-22.668h-47.621
		C304.707,12.622,315.132,22.668,327.904,22.668z"/>
	<path fill="#D3D3D3" d="M421.849,34.861c19.475,0,35.381-15.534,36.004-34.861h-7.098c-0.618,15.413-13.344,27.763-28.906,27.763
		c-15.563,0-28.289-12.35-28.907-27.763h-7.098C386.467,19.327,402.373,34.861,421.849,34.861z"/>
	<path fill="#D3D3D3" d="M421.849,22.668c12.773,0,23.199-10.046,23.81-22.668h-47.623
		C398.648,12.622,409.075,22.668,421.849,22.668z"/>
	<path fill="#D3D3D3" d="M515.436,34.861c19.477,0,35.381-15.534,36.004-34.861h-7.097c-0.618,15.413-13.345,27.763-28.907,27.763
		c-15.562,0-28.288-12.35-28.906-27.763h-7.098C480.054,19.327,495.959,34.861,515.436,34.861z"/>
	<path fill="#D3D3D3" d="M515.436,22.668c12.773,0,23.2-10.046,23.811-22.668h-47.622C492.236,12.622,502.662,22.668,515.436,22.668
		z"/>
	<path fill="#D3D3D3" d="M609.379,34.861c19.475,0,35.381-15.534,36.004-34.861h-7.098c-0.618,15.413-13.345,27.763-28.906,27.763
		c-15.563,0-28.289-12.35-28.907-27.763h-7.097C573.998,19.327,589.903,34.861,609.379,34.861z"/>
	<path fill="#D3D3D3" d="M609.379,22.668c12.773,0,23.199-10.046,23.811-22.668h-47.622
		C586.18,12.622,596.606,22.668,609.379,22.668z"/>
	<path fill="#D3D3D3" d="M702.966,34.861c19.476,0,35.38-15.534,36.003-34.861h-7.096c-0.618,15.413-13.345,27.763-28.907,27.763
		c-15.561,0-28.289-12.35-28.907-27.763h-7.097C667.584,19.327,683.49,34.861,702.966,34.861z"/>
	<path fill="#D3D3D3" d="M702.966,22.668c12.773,0,23.2-10.046,23.811-22.668h-47.622C679.767,12.622,690.193,22.668,702.966,22.668
		z"/>
	<path fill="#D3D3D3" d="M796.91,34.861c19.478,0,35.38-15.534,36.002-34.861h-7.096c-0.619,15.413-13.347,27.763-28.906,27.763
		c-15.563,0-28.289-12.35-28.907-27.763h-7.099C761.527,19.327,777.433,34.861,796.91,34.861z"/>
	<path fill="#D3D3D3" d="M796.91,22.668c12.771,0,23.199-10.046,23.812-22.668h-47.624C773.71,12.622,784.137,22.668,796.91,22.668z
		"/>
	<path fill="#D3D3D3" d="M890.497,34.861c19.477,0,35.381-15.534,36.003-34.861h-7.096c-0.619,15.413-13.347,27.763-28.907,27.763
		c-15.562,0-28.286-12.35-28.905-27.763h-7.1C855.115,19.327,871.022,34.861,890.497,34.861z"/>
	<path fill="#D3D3D3" d="M890.497,22.668c12.773,0,23.198-10.046,23.811-22.668h-47.622
		C867.298,12.622,877.724,22.668,890.497,22.668z"/>
	<path fill="#D3D3D3" d="M984.44,34.861c19.476,0,35.38-15.534,36.003-34.861h-7.097c-0.619,15.413-13.346,27.763-28.906,27.763
		c-15.563,0-28.289-12.35-28.908-27.763h-7.095C949.06,19.327,964.966,34.861,984.44,34.861z"/>
	<path fill="#D3D3D3" d="M984.44,22.668c12.771,0,23.198-10.046,23.811-22.668h-47.622C961.24,12.622,971.665,22.668,984.44,22.668z
		"/>
	<path fill="#D3D3D3" d="M1078.027,34.861c19.477,0,35.381-15.534,36.004-34.861h-7.096c-0.619,15.413-13.346,27.763-28.908,27.763
		S1049.738,15.413,1049.119,0h-7.096C1042.646,19.327,1058.552,34.861,1078.027,34.861z"/>
	<path fill="#D3D3D3" d="M1078.027,22.668c12.773,0,23.199-10.046,23.812-22.668h-47.622
		C1054.829,12.622,1065.254,22.668,1078.027,22.668z"/>
	<path fill="#D3D3D3" d="M1171.971,34.861c19.476,0,35.382-15.534,36.004-34.861h-7.098c-0.619,15.413-13.346,27.763-28.906,27.763
		c-15.562,0-28.287-12.35-28.906-27.763h-7.1C1136.588,19.327,1152.496,34.861,1171.971,34.861z"/>
	<path fill="#D3D3D3" d="M1171.971,22.668c12.773,0,23.199-10.046,23.811-22.668h-47.621
		C1148.771,12.622,1159.196,22.668,1171.971,22.668z"/>
	<path fill="#D3D3D3" d="M1265.557,34.861c19.478,0,35.383-15.534,36.006-34.861h-7.098c-0.619,15.413-13.346,27.763-28.908,27.763
		c-15.562,0-28.287-12.35-28.906-27.763h-7.098C1230.176,19.327,1246.081,34.861,1265.557,34.861z"/>
	<path fill="#D3D3D3" d="M1265.557,22.668c12.774,0,23.2-10.046,23.812-22.668h-47.624
		C1242.357,12.622,1252.784,22.668,1265.557,22.668z"/>
	<path fill="#D3D3D3" d="M1359.5,34.861c19.477,0,35.384-15.534,36.006-34.861h-7.098c-0.619,15.413-13.344,27.763-28.908,27.763
		c-15.562,0-28.287-12.35-28.906-27.763h-7.098C1324.119,19.327,1340.027,34.861,1359.5,34.861z"/>
	<path fill="#D3D3D3" d="M1359.5,22.668c12.773,0,23.2-10.046,23.812-22.668h-47.624C1336.301,12.622,1346.729,22.668,1359.5,22.668
		z"/>
	<path fill="#D3D3D3" d="M1488.643,29.2c3.248,2.212,7.145,3.539,11.357,3.608V0h-6.904c-0.624,21.535-18.324,38.864-40.008,38.864
		c-21.683,0-39.383-17.33-40.008-38.864h-13.57c-0.625,21.535-18.324,38.864-40.01,38.864c-21.683,0-39.381-17.33-40.006-38.864
		h-13.928c-0.625,21.535-18.324,38.864-40.01,38.864c-21.684,0-39.383-17.33-40.008-38.864h-13.57
		c-0.625,21.535-18.325,38.864-40.008,38.864c-21.684,0-39.384-17.33-40.008-38.864h-13.927
		c-0.625,21.535-18.326,38.864-40.009,38.864S1038.645,21.535,1038.02,0h-13.571c-0.625,21.535-18.325,38.864-40.008,38.864
		c-21.685,0-39.385-17.33-40.01-38.864h-13.925c-0.625,21.535-18.326,38.864-40.009,38.864S851.113,21.535,850.488,0h-13.571
		c-0.625,21.535-18.324,38.864-40.007,38.864c-21.684,0-39.384-17.33-40.009-38.864h-13.927
		c-0.624,21.535-18.325,38.864-40.008,38.864S663.582,21.535,662.958,0h-13.571c-0.624,21.535-18.325,38.864-40.008,38.864
		c-21.684,0-39.384-17.33-40.008-38.864h-13.928c-0.624,21.535-18.324,38.864-40.008,38.864c-21.683,0-39.384-17.33-40.008-38.864
		h-13.572c-0.624,21.535-18.324,38.864-40.007,38.864c-21.684,0-39.385-17.33-40.009-38.864h-13.928
		c-0.624,21.535-18.324,38.864-40.008,38.864c-21.683,0-39.382-17.33-40.006-38.864h-13.572
		c-0.624,21.535-18.324,38.864-40.008,38.864c-21.684,0-39.384-17.33-40.008-38.864h-13.928
		c-0.624,21.535-18.325,38.864-40.007,38.864c-21.684,0-39.384-17.33-40.008-38.864H86.795
		c-0.624,21.535-18.325,38.864-40.008,38.864C25.104,38.864,7.404,21.535,6.78,0H0v32.81c4.182-0.063,8.055-1.364,11.292-3.542
		c0.774,0.9,1.575,1.784,2.423,2.633c1.11,1.11,2.267,2.156,3.464,3.139C12.395,38.683,6.449,40.875,0,40.944v7.098
		c8.878-0.077,16.999-3.377,23.247-8.788c7.07,4.133,15.134,6.346,23.541,6.346c8.303,0,16.271-2.162,23.278-6.197
		c6.299,5.388,14.471,8.647,23.39,8.647c8.968,0,17.18-3.292,23.492-8.732c7.043,4.091,15.065,6.282,23.428,6.282
		c8.444,0,16.544-2.231,23.637-6.401c6.33,5.507,14.589,8.851,23.618,8.851c8.923,0,17.098-3.261,23.399-8.653
		c7.01,4.039,14.981,6.203,23.289,6.203c8.303,0,16.27-2.162,23.277-6.196c6.3,5.388,14.471,8.646,23.391,8.646
		c8.967,0,17.18-3.292,23.492-8.731c7.043,4.09,15.065,6.281,23.426,6.281c8.445,0,16.545-2.231,23.639-6.401
		c6.329,5.507,14.588,8.851,23.619,8.851c8.923,0,17.098-3.261,23.398-8.653c7.011,4.04,14.982,6.203,23.29,6.203
		c8.303,0,16.27-2.162,23.277-6.196c6.299,5.388,14.472,8.646,23.391,8.646c8.967,0,17.179-3.292,23.492-8.732
		c7.043,4.091,15.065,6.282,23.427,6.282c8.445,0,16.544-2.231,23.638-6.4c6.33,5.507,14.589,8.851,23.618,8.851
		c8.924,0,17.099-3.261,23.399-8.653c7.01,4.039,14.981,6.203,23.289,6.203c8.303,0,16.27-2.162,23.277-6.197
		c6.299,5.388,14.471,8.647,23.39,8.647c8.968,0,17.18-3.292,23.492-8.731c7.043,4.09,15.065,6.281,23.427,6.281
		c8.445,0,16.544-2.231,23.638-6.401c6.33,5.507,14.588,8.851,23.618,8.851c8.924,0,17.099-3.261,23.399-8.653
		c7.01,4.039,14.98,6.203,23.289,6.203c8.303,0,16.27-2.162,23.277-6.196c6.299,5.388,14.471,8.646,23.391,8.646
		c8.967,0,17.18-3.292,23.492-8.731c7.043,4.09,15.064,6.281,23.427,6.281c8.444,0,16.544-2.231,23.638-6.401
		c6.329,5.507,14.59,8.852,23.617,8.852c8.925,0,17.1-3.261,23.4-8.653c7.009,4.039,14.979,6.203,23.288,6.203
		c8.304,0,16.271-2.162,23.278-6.197c6.298,5.388,14.471,8.647,23.389,8.647c8.969,0,17.18-3.292,23.492-8.732
		c7.044,4.091,15.065,6.282,23.428,6.282c8.444,0,16.544-2.231,23.638-6.401c6.33,5.507,14.589,8.851,23.619,8.851
		c8.923,0,17.099-3.261,23.397-8.653c7.011,4.039,14.981,6.203,23.289,6.203c8.302,0,16.27-2.162,23.277-6.197
		c6.299,5.388,14.471,8.647,23.391,8.647c8.967,0,17.18-3.292,23.492-8.732c7.043,4.091,15.064,6.282,23.426,6.282
		c8.445,0,16.546-2.231,23.64-6.401c6.33,5.507,14.588,8.851,23.617,8.851c8.925,0,17.099-3.262,23.397-8.654
		c7.011,4.04,14.981,6.204,23.289,6.204c8.303,0,16.271-2.162,23.278-6.197c6.3,5.389,14.472,8.647,23.392,8.647
		c8.968,0,17.18-3.292,23.492-8.732c7.043,4.091,15.064,6.282,23.426,6.282c8.445,0,16.545-2.231,23.638-6.4
		c6.25,5.435,14.381,8.757,23.274,8.842v-7.097c-6.475-0.077-12.439-2.291-17.231-5.964c1.172-0.966,2.305-1.992,3.393-3.08
		C1487.031,31.03,1487.851,30.125,1488.643,29.2z M93.455,40.952c-6.471,0-12.449-2.142-17.273-5.745
		c1.273-1.032,2.503-2.132,3.678-3.307c0.79-0.79,1.537-1.611,2.262-2.446c3.263,2.125,7.15,3.371,11.333,3.371
		c4.253,0,8.198-1.288,11.493-3.478c0.754,0.873,1.531,1.729,2.355,2.553c1.138,1.138,2.325,2.207,3.555,3.21
		C106.01,38.772,99.984,40.952,93.455,40.952z M187.63,40.952c-6.607,0-12.7-2.231-17.576-5.973
		c1.172-0.965,2.305-1.992,3.393-3.079c0.87-0.87,1.69-1.776,2.482-2.7c3.336,2.277,7.357,3.625,11.702,3.625
		c4.189,0,8.083-1.247,11.348-3.377c0.728,0.837,1.476,1.66,2.268,2.452c1.172,1.172,2.399,2.269,3.669,3.299
		C200.088,38.808,194.107,40.952,187.63,40.952z M280.986,40.952c-6.472,0-12.449-2.142-17.273-5.745
		c1.273-1.033,2.503-2.132,3.678-3.307c0.79-0.79,1.537-1.611,2.263-2.446c3.262,2.125,7.149,3.371,11.333,3.371
		c4.253,0,8.198-1.288,11.492-3.478c0.754,0.873,1.531,1.729,2.355,2.553c1.138,1.137,2.325,2.206,3.555,3.21
		C293.541,38.772,287.516,40.952,280.986,40.952z M375.162,40.952c-6.607,0-12.701-2.231-17.577-5.972
		c1.172-0.966,2.306-1.992,3.394-3.08c0.87-0.87,1.689-1.775,2.481-2.7c3.337,2.277,7.357,3.625,11.703,3.625
		c4.189,0,8.082-1.246,11.347-3.376c0.727,0.837,1.476,1.66,2.267,2.452c1.172,1.172,2.399,2.269,3.669,3.299
		C387.618,38.808,381.638,40.952,375.162,40.952z M468.517,40.952c-6.472,0-12.45-2.142-17.274-5.745
		c1.273-1.033,2.503-2.132,3.678-3.307c0.79-0.79,1.537-1.611,2.263-2.446c3.263,2.125,7.15,3.371,11.334,3.371
		c4.253,0,8.198-1.288,11.492-3.478c0.754,0.873,1.531,1.729,2.355,2.553c1.138,1.137,2.325,2.206,3.555,3.21
		C481.072,38.772,475.046,40.952,468.517,40.952z M562.691,40.952c-6.607,0-12.699-2.231-17.576-5.972
		c1.172-0.966,2.305-1.992,3.393-3.08c0.87-0.87,1.689-1.775,2.481-2.7c3.337,2.277,7.358,3.625,11.702,3.625
		c4.189,0,8.083-1.247,11.348-3.377c0.728,0.837,1.476,1.66,2.268,2.452c1.172,1.172,2.399,2.269,3.669,3.299
		C575.149,38.808,569.168,40.952,562.691,40.952z M656.047,40.952c-6.471,0-12.449-2.142-17.274-5.745
		c1.273-1.032,2.503-2.132,3.678-3.307c0.79-0.79,1.537-1.611,2.263-2.446c3.262,2.125,7.149,3.371,11.333,3.371
		c4.253,0,8.198-1.289,11.492-3.479c0.754,0.873,1.532,1.73,2.355,2.554c1.138,1.138,2.325,2.207,3.555,3.21
		C668.603,38.772,662.576,40.952,656.047,40.952z M750.222,40.952c-6.606,0-12.7-2.231-17.576-5.973
		c1.172-0.966,2.305-1.992,3.393-3.079c0.87-0.87,1.69-1.776,2.482-2.7c3.337,2.277,7.357,3.625,11.702,3.625
		c4.191,0,8.084-1.247,11.349-3.377c0.728,0.837,1.476,1.66,2.268,2.452c1.172,1.172,2.398,2.269,3.669,3.299
		C762.68,38.808,756.698,40.952,750.222,40.952z M843.578,40.952c-6.473,0-12.45-2.142-17.274-5.745
		c1.272-1.032,2.503-2.132,3.678-3.307c0.79-0.79,1.536-1.611,2.263-2.446c3.264,2.125,7.15,3.371,11.334,3.371
		c4.253,0,8.197-1.288,11.492-3.478c0.754,0.873,1.531,1.729,2.355,2.553c1.138,1.137,2.324,2.206,3.554,3.209
		C856.133,38.772,850.107,40.952,843.578,40.952z M937.752,40.952c-6.607,0-12.699-2.231-17.576-5.972
		c1.172-0.966,2.305-1.992,3.393-3.08c0.87-0.87,1.689-1.776,2.482-2.7c3.337,2.277,7.356,3.625,11.701,3.625
		c4.189,0,8.084-1.247,11.349-3.377c0.728,0.837,1.477,1.661,2.269,2.453c1.172,1.172,2.398,2.269,3.668,3.299
		C950.211,38.808,944.23,40.952,937.752,40.952z M1031.107,40.952c-6.47,0-12.448-2.142-17.272-5.745
		c1.273-1.033,2.503-2.132,3.679-3.307c0.79-0.79,1.536-1.611,2.262-2.446c3.262,2.125,7.148,3.371,11.332,3.371
		c4.254,0,8.198-1.289,11.493-3.479c0.754,0.873,1.531,1.73,2.354,2.554c1.138,1.137,2.325,2.206,3.555,3.21
		C1043.663,38.772,1037.638,40.952,1031.107,40.952z M1125.284,40.952c-6.609,0-12.701-2.231-17.578-5.973
		c1.172-0.966,2.305-1.992,3.393-3.079c0.87-0.87,1.69-1.776,2.482-2.7c3.337,2.277,7.357,3.625,11.703,3.625
		c4.188,0,8.081-1.247,11.346-3.377c0.728,0.837,1.476,1.66,2.268,2.452c1.173,1.172,2.399,2.269,3.67,3.299
		C1137.74,38.808,1131.76,40.952,1125.284,40.952z M1218.639,40.952c-6.473,0-12.449-2.142-17.273-5.746
		c1.272-1.032,2.502-2.131,3.677-3.306c0.79-0.79,1.537-1.611,2.263-2.446c3.263,2.125,7.15,3.371,11.334,3.371
		c4.252,0,8.198-1.289,11.493-3.479c0.754,0.873,1.531,1.73,2.355,2.554c1.138,1.137,2.325,2.206,3.554,3.21
		C1231.194,38.772,1225.168,40.952,1218.639,40.952z M1312.813,40.952c-6.606,0-12.699-2.231-17.576-5.972
		c1.173-0.966,2.306-1.992,3.394-3.08c0.869-0.87,1.689-1.776,2.481-2.7c3.337,2.277,7.356,3.625,11.701,3.625
		c4.189,0,8.083-1.247,11.349-3.377c0.727,0.837,1.476,1.661,2.268,2.453c1.172,1.172,2.398,2.269,3.668,3.299
		C1325.271,38.808,1319.29,40.952,1312.813,40.952z M1406.17,40.952c-6.473,0-12.45-2.142-17.275-5.746
		c1.273-1.032,2.503-2.131,3.678-3.306c0.79-0.79,1.537-1.612,2.263-2.447c3.263,2.125,7.151,3.372,11.335,3.372
		c4.253,0,8.198-1.289,11.492-3.479c0.754,0.873,1.531,1.73,2.355,2.554c1.138,1.137,2.324,2.206,3.554,3.209
		C1418.725,38.772,1412.699,40.952,1406.17,40.952z"/>
	<path fill="#D3D3D3" d="M1453.088,34.861c19.476,0,35.383-15.534,36.006-34.861h-7.098c-0.619,15.413-13.346,27.763-28.908,27.763
		c-15.562,0-28.288-12.35-28.906-27.763h-7.098C1417.706,19.327,1433.612,34.861,1453.088,34.861z"/>
	<path fill="#D3D3D3" d="M1453.088,22.668c12.775,0,23.199-10.046,23.812-22.668h-47.622
		C1429.889,12.622,1440.313,22.668,1453.088,22.668z"/>
	<circle fill="#D3D3D3" cx="25.562" cy="48.938" r="3.5"/>
	<circle fill="#D3D3D3" cx="39.188" cy="52.625" r="3.5"/>
	<circle fill="#D3D3D3" cx="54.375" cy="52.625" r="3.5"/>
	<circle fill="#D3D3D3" cx="67.875" cy="48.812" r="3.5"/>
	<circle fill="#D3D3D3" cx="119.331" cy="48.938" r="3.5"/>
	<circle fill="#D3D3D3" cx="132.956" cy="52.625" r="3.5"/>
	<circle fill="#D3D3D3" cx="148.143" cy="52.625" r="3.5"/>
	<circle fill="#D3D3D3" cx="161.643" cy="48.812" r="3.5"/>
	<circle fill="#D3D3D3" cx="213.098" cy="48.938" r="3.5"/>
	<circle fill="#D3D3D3" cx="226.723" cy="52.625" r="3.5"/>
	<circle fill="#D3D3D3" cx="241.911" cy="52.625" r="3.5"/>
	<circle fill="#D3D3D3" cx="255.411" cy="48.812" r="3.5"/>
	<circle fill="#D3D3D3" cx="306.866" cy="48.938" r="3.5"/>
	<circle fill="#D3D3D3" cx="320.491" cy="52.625" r="3.5"/>
	<circle fill="#D3D3D3" cx="335.679" cy="52.625" r="3.5"/>
	<circle fill="#D3D3D3" cx="349.179" cy="48.812" r="3.5"/>
	<circle fill="#D3D3D3" cx="400.634" cy="48.938" r="3.5"/>
	<circle fill="#D3D3D3" cx="414.259" cy="52.625" r="3.5"/>
	<circle fill="#D3D3D3" cx="429.446" cy="52.625" r="3.5"/>
	<circle fill="#D3D3D3" cx="442.946" cy="48.812" r="3.5"/>
	<circle fill="#D3D3D3" cx="494.402" cy="48.938" r="3.5"/>
	<circle fill="#D3D3D3" cx="508.027" cy="52.625" r="3.5"/>
	<circle fill="#D3D3D3" cx="523.214" cy="52.625" r="3.5"/>
	<circle fill="#D3D3D3" cx="536.714" cy="48.812" r="3.5"/>
	<circle fill="#D3D3D3" cx="588.17" cy="48.938" r="3.5"/>
	<circle fill="#D3D3D3" cx="601.795" cy="52.625" r="3.5"/>
	<circle fill="#D3D3D3" cx="616.982" cy="52.625" r="3.5"/>
	<circle fill="#D3D3D3" cx="630.482" cy="48.812" r="3.5"/>
	<circle fill="#D3D3D3" cx="681.938" cy="48.938" r="3.5"/>
	<circle fill="#D3D3D3" cx="695.562" cy="52.625" r="3.5"/>
	<circle fill="#D3D3D3" cx="710.75" cy="52.625" r="3.5"/>
	<circle fill="#D3D3D3" cx="724.25" cy="48.812" r="3.5"/>
	<circle fill="#D3D3D3" cx="775.705" cy="48.938" r="3.5"/>
	<circle fill="#D3D3D3" cx="789.33" cy="52.625" r="3.5"/>
	<circle fill="#D3D3D3" cx="804.518" cy="52.625" r="3.5"/>
	<circle fill="#D3D3D3" cx="818.018" cy="48.812" r="3.5"/>
	<circle fill="#D3D3D3" cx="869.473" cy="48.938" r="3.5"/>
	<circle fill="#D3D3D3" cx="883.098" cy="52.625" r="3.5"/>
	<circle fill="#D3D3D3" cx="898.285" cy="52.625" r="3.5"/>
	<circle fill="#D3D3D3" cx="911.785" cy="48.812" r="3.5"/>
	<circle fill="#D3D3D3" cx="963.24" cy="48.938" r="3.5"/>
	<circle fill="#D3D3D3" cx="976.865" cy="52.625" r="3.5"/>
	<circle fill="#D3D3D3" cx="992.053" cy="52.625" r="3.5"/>
	<circle fill="#D3D3D3" cx="1005.553" cy="48.812" r="3.5"/>
	<circle fill="#D3D3D3" cx="1057.008" cy="48.938" r="3.5"/>
	<circle fill="#D3D3D3" cx="1070.633" cy="52.625" r="3.5"/>
	<circle fill="#D3D3D3" cx="1085.82" cy="52.625" r="3.5"/>
	<circle fill="#D3D3D3" cx="1099.32" cy="48.812" r="3.5"/>
	<circle fill="#D3D3D3" cx="1150.775" cy="48.938" r="3.5"/>
	<circle fill="#D3D3D3" cx="1164.4" cy="52.625" r="3.5"/>
	<circle fill="#D3D3D3" cx="1179.588" cy="52.625" r="3.5"/>
	<circle fill="#D3D3D3" cx="1193.088" cy="48.812" r="3.5"/>
	<circle fill="#D3D3D3" cx="1244.542" cy="48.938" r="3.5"/>
	<circle fill="#D3D3D3" cx="1258.167" cy="52.625" r="3.5"/>
	<circle fill="#D3D3D3" cx="1273.354" cy="52.625" r="3.5"/>
	<circle fill="#D3D3D3" cx="1286.854" cy="48.812" r="3.5"/>
	<circle fill="#D3D3D3" cx="1338.31" cy="48.938" r="3.5"/>
	<circle fill="#D3D3D3" cx="1351.935" cy="52.625" r="3.5"/>
	<circle fill="#D3D3D3" cx="1367.122" cy="52.625" r="3.5"/>
	<circle fill="#D3D3D3" cx="1380.622" cy="48.812" r="3.5"/>
	<circle fill="#D3D3D3" cx="1432.077" cy="48.938" r="3.5"/>
	<circle fill="#D3D3D3" cx="1445.702" cy="52.625" r="3.5"/>
	<circle fill="#D3D3D3" cx="1460.89" cy="52.625" r="3.5"/>
	<circle fill="#D3D3D3" cx="1474.39" cy="48.812" r="3.5"/>
</g>
</svg>
