<?xml version="1.0" encoding="UTF-8" standalone="no"?>
<svg
   xmlns:dc="http://purl.org/dc/elements/1.1/"
   xmlns:cc="http://creativecommons.org/ns#"
   xmlns:rdf="http://www.w3.org/1999/02/22-rdf-syntax-ns#"
   xmlns:svg="http://www.w3.org/2000/svg"
   xmlns="http://www.w3.org/2000/svg"
   height="1500"
   width="147.57669"
   xml:space="preserve"
   enable-background="new 0 0 1500 150"
   viewBox="0 0 147.57669 1500"
   preserveAspectRatio="none"
   y="0px"
   x="0px"
   id="Layer_1"
   version="1.1"><metadata
   id="metadata9"><rdf:RDF><cc:Work
       rdf:about=""><dc:format>image/svg+xml</dc:format><dc:type
         rdf:resource="http://purl.org/dc/dcmitype/StillImage" /><dc:title></dc:title></cc:Work></rdf:RDF></metadata><defs
   id="defs7" />
<path
   style="fill:#d3d3d3"
   id="path2"
   d="m 0,1500 h 78.5 c 0,0 8,-11.5 29,-10.5 21,1 26,-9 26,-18 0,-9 -19,-7 -30,-6 -11,1 -18,-21 -3,-20 15,1 22,0 23,-9 1,-9 -19,2 -39,-3 -20,-5 -61,-28 -50,-35 11,-7 43,-3 55,0 12,3 18,-6 18,-6 0,0 19,-14 27,-14 8,0 20,-13 8,-15 -12,-2 -19,-12 -37,-17 -18,-5 -47,-10 -43,-22 4,-12 28,-5 34,-16 6,-11 -2,-21 -16,-21 -14,0 -29,-11 -21,-13 8,-2 40,2 37,-16 -3,-18 -22,-7 -22,-16 0,-9 17,-13 29,-12 12,1 17,-5 10,-8 -7,-3 -20,0 -33,-1 -13,-1 -2,-12 30,-9 32,3 32,-12 32,-19 0,-7 -63,2 -85,-3 -22,-5 7,-6 23,-6 16,0 33,0 33,-3 0,-3 -9,-9 -25,-7 -16,2 -17,-9 -21,-15 -4,-6 -44.997,-6.111 -46,-12 -1.003,-5.889 33,-3 44,-3 11,0 17,-6 23,-14 6,-8 15,-23 26,-24 11,-1 9,-22 -5,-20 -14,2 -23,-9 -23,-14 0,-5 -28.867,-20.308 -29,-27 -0.133,-6.692 22,-6 32,-3 10,3 37,1 37,-13 0,-14 -47,-6 -68,-6 -21,0 -56,-7 -24,-7 32,0 51,-2 68,0 17,2 42,-1 37,-14 -5,-13 -41,-3 -65,-2 -24,1 -45,2 -36,-1 9,-3 42,-1 46,-10 4,-9 22,-14 20,-23 -2,-9 -33,-17 -35,-24 -1.699,-5.946 -26.018,-8.015 -23,-15 3.018,-6.985 30.959,-3.042 26,-8 -6,-6 0,-13 7,-21 7,-8 -9,-29 -16,-39 -7,-10 16,-19 24,-20 8,-1 2,-17 -12,-17 -14,0 -35,-15 -22,-18 13,-3 29,-5 42,-1 13,4 27,3 26,-9 -1,-12 -11,-15 -25,-12 -14,3 -51.461,8.283 -53,-3 -1.539,-11.283 25,-9 31,-14 6,-5 40,-5 52,-8 12,-3 -1,-19 -6,-18 -5,1 -20.862,-2.257 -33.666,-1.997 C 53.835,738.173 49.5,721.5 49.5,721.5 c 16,-3 17.668,-20.33 34.668,-21.33 17,-1 19.667,-0.667 30.667,1.333 11,2 17.665,-2.003 17.665,-11.003 0,-9 -16,-16 -25,-14 -9,2 -37,1 -34,-8 3,-9 31,-8 40,-10 9,-2 4,-10 -4,-10 -8,0 -35,2 -41,1 -6,-1 -18,-13 11,-12 29,1 49,3 64,-5 15,-8 -15,-20 -37,-15 -22,5 -57.54,0.796 -58,-4 -2.065,-21.513 37,-15 53,-15 16,0 29,1 29,-10 0,-11 -18,-6 -29,-6 -11,0 -53.891,-0.262 -55,-10 -1.109,-9.738 21,-8 23,-15 2,-7 33,-15 35,-24 2,-9 -16,-14 -20,-23 -4,-9 -14,-5 -23,-8 -9,-3 -11,-4 13,-3 24,1 60,11 65,-2 5,-13 -20,-16 -37,-14 -17,2 -36,0 -68,0 -32,0 3,-7 24,-7 21,0 68,3 68,-11 0,-14 -27,-11 -37,-8 -10,3 -32,-3 -32,-3 18,0 29,-22 29,-27 0,-5 9,-16 23,-14 14,2 16,-19 5,-20 -11,-1 -20,-9 -26,-17 -6,-8 -12,-21 -23,-21 -11,0 -42.954,3.593 -44,-3 -1.046,-6.593 42,-6 46,-12 4,-6 5,-17 21,-15 16,2 25,-4 25,-7 0,-3 -17,-3 -33,-3 -16,0 -45,-1 -23,-6 22,-5 85,4 85,-3 0,-7 0,-22 -32,-19 -32,3 -43,-8 -30,-9 13,-1 26,2 33,-1 7,-3 2,-9 -10,-8 -12,1 -29,-3 -29,-12 0,-9 19,2 22,-16 3,-18 -9,-17 -17,-19 -8,-2 -13,-10 1,-10 14,0 32,-11 26,-22 -6,-11 -40,-3 -44,-15 -4,-12 8.333,-22.665 43.667,-24.665 18.651,-1.056 15.333,-11.335 27.333,-13.335 12,-2 9,-16 1,-16 -8,0 -17.201,-14.072 -27.667,-20.665 -10.41,-6.558 -41,-10.334 -52,-17.334 -11,-7 9.667,-12.001 29.667,-17.001 20,-5 40,6 39,-3 -1,-9 -8,-10 -23,-9 -15,1 -8,-21 3,-20 11,1 30,3 30,-6 0,-9 -5,-19 -26,-18 C 86.5,11.5 78.5,0 78.5,0 H 0 Z" />
</svg>