<?xml version="1.0" encoding="utf-8"?>
<!-- Generator: Adobe Illustrator 15.0.0, SVG Export Plug-In . SVG Version: 6.00 Build 0)  -->
<!DOCTYPE svg PUBLIC "-//W3C//DTD SVG 1.1//EN" "http://www.w3.org/Graphics/SVG/1.1/DTD/svg11.dtd">
<svg version="1.1" id="Layer_1" xmlns="http://www.w3.org/2000/svg" xmlns:xlink="http://www.w3.org/1999/xlink" x="0px" y="0px"
	 preserveAspectRatio="none" viewBox="0 0 1500 150" enable-background="new 0 0 1500 150" xml:space="preserve">
<path fill="#D3D3D3" d="M0,0v78.5c0,0,11.5,8,10.5,29s9,26,18,26s7-19,6-30s21-18,20-3s0,22,9,23s-2-19,3-39s28-61,35-50s3,43,0,55
	s6,18,6,18s14,19,14,27s13,20,15,8s12-19,17-37s10-47,22-43s5,28,16,34s21-2,21-16s11-29,13-21s-2,40,16,37s7-22,16-22s13,17,12,29
	s5,17,8,10s0-20,1-33s12-2,9,30s12,32,19,32s-2-63,3-85s6,7,6,23s0,33,3,33s9-9,7-25s9-17,15-21s6.111-44.997,12-46s3,33,3,44
	s6,17,14,23s23,15,24,26s22,9,20-5s9-23,14-23s20.308-28.867,27-29s6,22,3,32s-1,37,13,37s6-47,6-68s7-56,7-24s2,51,0,68s1,42,14,37
	s3-41,2-65s-2-45,1-36s1,42,10,46s14,22,23,20s17-33,24-35c5.946-1.699,8.015-26.018,15-23s3.042,30.959,8,26c6-6,13,0,21,7
	s29-9,39-16s19,16,20,24s17,2,17-12s15-35,18-22s5,29,1,42s-3,27,9,26s15-11,12-25s-8.283-51.461,3-53s9,25,14,31s5,40,8,52
	s19-1,18-6s2.257-20.862,1.997-33.666C761.827,53.835,778.5,49.5,778.5,49.5c3,16,20.33,17.668,21.33,34.668
	s0.667,19.667-1.333,30.667S800.5,132.5,809.5,132.5s16-16,14-25s-1-37,8-34s8,31,10,40s10,4,10-4s-2-35-1-41s13-18,12,11
	s-3,49,5,64s20-15,15-37s-0.796-57.54,4-58c21.513-2.065,15,37,15,53s-1,29,10,29s6-18,6-29s0.262-53.891,10-55s8,21,15,23
	s15,33,24,35s14-16,23-20s5-14,8-23s4-11,3,13s-11,60,2,65s16-20,14-37s0-36,0-68s7,3,7,24s-3,68,11,68s11-27,8-37s3-32,3-32
	c0,18,22,29,27,29s16,9,14,23s19,16,20,5s9-20,17-26s21-12,21-23s-3.593-42.954,3-44s6,42,12,46s17,5,15,21s4,25,7,25s3-17,3-33
	s1-45,6-23s-4,85,3,85s22,0,19-32s8-43,9-30s-2,26,1,33s9,2,8-10s3-29,12-29s-2,19,16,22s17-9,19-17s10-13,10,1s11,32,22,26
	s3-40,15-44s22.665,8.333,24.665,43.667c1.056,18.651,11.335,15.333,13.335,27.333s16,9,16,1s14.072-17.201,20.665-27.667
	c6.558-10.41,10.334-41,17.334-52S1428.5,64.5,1433.5,84.5s-6,40,3,39s10-8,9-23s21-8,20,3s-3,30,6,30s19-5,18-26s10.5-29,10.5-29V0
	H0z"/>
</svg>
