<?xml version="1.0" encoding="utf-8"?>
<!-- Generator: Adobe Illustrator 15.0.0, SVG Export Plug-In . SVG Version: 6.00 Build 0)  -->
<!DOCTYPE svg PUBLIC "-//W3C//DTD SVG 1.1//EN" "http://www.w3.org/Graphics/SVG/1.1/DTD/svg11.dtd">
<svg version="1.1" id="Layer_1" xmlns="http://www.w3.org/2000/svg" xmlns:xlink="http://www.w3.org/1999/xlink" x="0px" y="0px"
	 preserveAspectRatio="none" viewBox="0 0 1500 150" enable-background="new 0 0 1500 150" xml:space="preserve">
<g>
	<g opacity="0.6">
		<polygon opacity="0.6" fill="#D3D3D3" enable-background="new    " points="455.5,18.5 357.5,40.5 193.5,16.5 89.708,30.535 
			159.5,58.5 283.5,44.5 451.5,94.5 646.081,60.71 		"/>
		<polygon opacity="0.6" fill="#D3D3D3" enable-background="new    " points="1109.5,56.5 941.88,83.8 1109.5,134.5 
			1242.684,98.482 		"/>
	</g>
	<g>
		<polygon fill="#D3D3D3" points="193.5,16.5 357.5,40.5 455.5,18.5 831.5,101.777 1115.5,36.5 1293.5,114.5 1500,42.666 1500,0 
			0,0 0,42.666 		"/>
	</g>
	<polygon opacity="0.6" fill="#D3D3D3" enable-background="new    " points="455.5,18.5 357.5,40.5 203.268,17.93 336.5,46.499 
		480.423,37.911 681.698,68.6 	"/>
	<polygon opacity="0.8" fill="#D3D3D3" enable-background="new    " points="831.5,101.777 1109.5,56.5 1293.5,114.5 1115.5,36.5 	
		"/>
</g>
</svg>
