<?xml version="1.0" encoding="UTF-8" standalone="no"?>
<svg
   xmlns:dc="http://purl.org/dc/elements/1.1/"
   xmlns:cc="http://creativecommons.org/ns#"
   xmlns:rdf="http://www.w3.org/1999/02/22-rdf-syntax-ns#"
   xmlns:svg="http://www.w3.org/2000/svg"
   xmlns="http://www.w3.org/2000/svg"
   height="1500"
   width="134.5"
   xml:space="preserve"
   enable-background="new 0 0 1500 150"
   viewBox="0 0 134.5 1500"
   preserveAspectRatio="none"
   y="0px"
   x="0px"
   id="Layer_1"
   version="1.1"><metadata
   id="metadata23"><rdf:RDF><cc:Work
       rdf:about=""><dc:format>image/svg+xml</dc:format><dc:type
         rdf:resource="http://purl.org/dc/dcmitype/StillImage" /><dc:title></dc:title></cc:Work></rdf:RDF></metadata><defs
   id="defs21" />
<g
   transform="rotate(-90,750,750)"
   id="g16">
	<g
   style="opacity:0.6"
   id="g6">
		<polygon
   style="opacity:0.6;fill:#d3d3d3"
   id="polygon2"
   points="89.708,30.535 159.5,58.5 283.5,44.5 451.5,94.5 646.081,60.71 455.5,18.5 357.5,40.5 193.5,16.5 "
   enable-background="new    " />
		<polygon
   style="opacity:0.6;fill:#d3d3d3"
   id="polygon4"
   points="1242.684,98.482 1109.5,56.5 941.88,83.8 1109.5,134.5 "
   enable-background="new    " />
	</g>
	<g
   id="g10">
		<polygon
   style="fill:#d3d3d3"
   id="polygon8"
   points="831.5,101.777 1115.5,36.5 1293.5,114.5 1500,42.666 1500,0 0,0 0,42.666 193.5,16.5 357.5,40.5 455.5,18.5 " />
	</g>
	<polygon
   style="opacity:0.6;fill:#d3d3d3"
   id="polygon12"
   points="336.5,46.499 480.423,37.911 681.698,68.6 455.5,18.5 357.5,40.5 203.268,17.93 "
   enable-background="new    " />
	<polygon
   style="opacity:0.8;fill:#d3d3d3"
   id="polygon14"
   points="1115.5,36.5 831.5,101.777 1109.5,56.5 1293.5,114.5 "
   enable-background="new    " />
</g>
</svg>