<?xml version="1.0" encoding="utf-8"?>
<!-- Generator: Adobe Illustrator 15.0.0, SVG Export Plug-In . SVG Version: 6.00 Build 0)  -->
<!DOCTYPE svg PUBLIC "-//W3C//DTD SVG 1.1//EN" "http://www.w3.org/Graphics/SVG/1.1/DTD/svg11.dtd">
<svg version="1.1" id="Layer_1" xmlns="http://www.w3.org/2000/svg" xmlns:xlink="http://www.w3.org/1999/xlink" x="0px" y="0px"
	 preserveAspectRatio="none" viewBox="0 0 1500 150" enable-background="new 0 0 1500 150" xml:space="preserve">
<g>
	<path fill="#D3D3D3" d="M37.972,39.09c9.492,0,9.492,8,18.984,8s9.492-8,18.984-8c9.494,0,9.494,8,18.987,8
		c9.493,0,9.493-8,18.985-8c9.492,0,9.492,8,18.984,8s9.492-8,18.984-8c9.493,0,9.493,8,18.987,8c9.493,0,9.493-8,18.985-8
		c9.492,0,9.493,8,18.985,8s9.492-8,18.985-8c9.494,0,9.494,8,18.988,8c9.492,0,9.492-8,18.985-8s9.493,8,18.985,8
		c9.493,0,9.493-8,18.987-8c9.493,0,9.493,8,18.986,8s9.493-8,18.985-8c9.493,0,9.493,8,18.986,8c9.493,0,9.493-8,18.986-8
		s9.493,8,18.985,8s9.492-8,18.986-8c9.493,0,9.493,8,18.986,8s9.493-8,18.986-8c9.494,0,9.494,8,18.987,8s9.493-8,18.986-8
		s9.493,8,18.986,8c9.494,0,9.494-8,18.986-8c9.493,0,9.493,8,18.986,8c9.494,0,9.494-8,18.988-8c9.493,0,9.493,8,18.985,8
		c9.494,0,9.494-8,18.988-8c9.493,0,9.493,8,18.986,8c9.494,0,9.494-8,18.988-8c9.492,0,9.492,8,18.985,8c9.494,0,9.494-8,18.988-8
		c9.493,0,9.493,8,18.987,8c9.49,0,9.49-8,18.98-8c9.492,0,9.492,8,18.984,8c9.493,0,9.493-8,18.984-8s9.491,8,18.982,8
		c9.492,0,9.492-8,18.984-8s9.492,8,18.985,8c9.491,0,9.491-8,18.982-8c9.494,0,9.494,8,18.987,8c9.491,0,9.491-8,18.983-8
		c9.493,0,9.493,8,18.985,8c9.494,0,9.494-8,18.986-8s9.492,8,18.984,8c9.495,0,9.495-8,18.989-8c9.492,0,9.492,8,18.985,8
		c9.494,0,9.494-8,18.988-8c9.493,0,9.493,8,18.986,8c9.494,0,9.494-8,18.988-8s9.494,8,18.986,8c9.493,0,9.493-8,18.987-8
		s9.494,8,18.988,8c9.495,0,9.495-8,18.989-8s9.494,8,18.988,8s9.494-8,18.988-8s9.494,8,18.988,8s9.494-8,18.988-8
		s9.494,8,18.989,8c9.496,0,9.496-8,18.991-8s9.495,8,18.989,8c9.496,0,9.496-8,18.991-8c9.494,0,9.494,8,18.988,8s9.494-8,18.987-8
		c9.494,0,9.494,8,18.988,8c9.496,0,9.496-8,18.991-8c9.494,0,9.494,8,18.988,8c9.495,0,9.495-8,18.99-8s9.495,8,18.991,8
		s9.496-8,18.993-8c9.494,0,9.494,8,18.987,8c9.497,0,9.497-8,18.994-8s9.497,8,18.995,8c9.5,0,9.5-8,18.999-8s9.499,7.999,18.997,8
		V0H0v39.09c9.493,0,9.493,8,18.987,8C28.479,47.09,28.479,39.09,37.972,39.09z"/>
</g>
</svg>
