<?xml version="1.0" encoding="utf-8"?>
<!-- Generator: Adobe Illustrator 15.0.0, SVG Export Plug-In . SVG Version: 6.00 Build 0)  -->
<!DOCTYPE svg PUBLIC "-//W3C//DTD SVG 1.1//EN" "http://www.w3.org/Graphics/SVG/1.1/DTD/svg11.dtd">
<svg version="1.1" id="Layer_1" xmlns="http://www.w3.org/2000/svg" xmlns:xlink="http://www.w3.org/1999/xlink" x="0px" y="0px"
	 preserveAspectRatio="none" viewBox="0 0 1500 150" enable-background="new 0 0 1500 150" xml:space="preserve">
<g>
	<path fill="#D3D3D3" d="M0,0v74.971c0.021,0.011,21.527,11.143,47.812,24.749c26.297,13.611,73.11,11.951,104.029-3.688
		l73.557-37.209c30.919-15.64,82.798-18.579,115.286-6.532l70.852,26.274c32.488,12.047,85.366,11.312,117.507-1.634l57.116-23.007
		c32.141-12.945,84.104-11.5,115.476,3.214l92.914,43.578c31.371,14.714,82.878,15.09,114.461,0.836l54.646-24.664
		c31.583-14.254,84.225-16.675,116.981-5.379l11.377,3.923c32.757,11.296,86.296,11.111,118.975-0.408l89.657-31.605
		c32.679-11.52,85.96-10.987,118.401,1.184L1500,74.971V0H0z"/>
</g>
</svg>
