<?xml version="1.0" encoding="utf-8"?>
<!-- Generator: Adobe Illustrator 15.0.0, SVG Export Plug-In . SVG Version: 6.00 Build 0)  -->
<!DOCTYPE svg PUBLIC "-//W3C//DTD SVG 1.1//EN" "http://www.w3.org/Graphics/SVG/1.1/DTD/svg11.dtd">
<svg version="1.1" id="Layer_1" xmlns="http://www.w3.org/2000/svg" xmlns:xlink="http://www.w3.org/1999/xlink" x="0px" y="0px"
	 preserveAspectRatio="none" viewBox="0 0 1500 150" enable-background="new 0 0 1500 150" xml:space="preserve">
<g>
	<path opacity="0.5" fill="#D3D3D3" d="M672.636,66.505l128.127,21.528l-235.101-51.34C459.759,13.566,289.567,20.675,187.459,52.49
		l-68.951,21.484c27.488-4.597,58.282-9.747,90.742-15.175C324.337,39.553,532.861,43.021,672.636,66.505z"/>
	<path opacity="0.6" fill="#D3D3D3" d="M0,93.792v17.107l118.508-36.925C48.538,85.676,0,93.792,0,93.792z"/>
	<path fill="#D3D3D3" d="M0,0v93.792c0,0,48.538-8.116,118.508-19.818l68.951-21.484c102.108-31.815,272.3-38.924,378.203-15.797
		l235.101,51.34l85.602,14.383c139.774,23.484,335.023,31.151,433.886,17.038S1500,93.792,1500,93.792V0H0z"/>
	<path opacity="0.5" fill="#D3D3D3" d="M886.364,102.416l-85.602-14.383l147.186,32.142
		c105.903,23.127,273.439,30.501,372.302,16.387S1500,110.899,1500,110.899V93.792c0,0-80.888,11.549-179.75,25.662
		S1026.139,125.9,886.364,102.416z"/>
</g>
</svg>
