<?xml version="1.0" encoding="UTF-8" standalone="no"?>
<svg
   xmlns:dc="http://purl.org/dc/elements/1.1/"
   xmlns:cc="http://creativecommons.org/ns#"
   xmlns:rdf="http://www.w3.org/1999/02/22-rdf-syntax-ns#"
   xmlns:svg="http://www.w3.org/2000/svg"
   xmlns="http://www.w3.org/2000/svg"
   height="1499.9709"
   width="47.09"
   xml:space="preserve"
   enable-background="new 0 0 1500 150"
   viewBox="0 0 47.09 1499.9709"
   preserveAspectRatio="none"
   y="0px"
   x="0px"
   id="Layer_1"
   version="1.1"><metadata
   id="metadata11"><rdf:RDF><cc:Work
       rdf:about=""><dc:format>image/svg+xml</dc:format><dc:type
         rdf:resource="http://purl.org/dc/dcmitype/StillImage" /><dc:title></dc:title></cc:Work></rdf:RDF></metadata><defs
   id="defs9" />
<g
   transform="rotate(-90,749.9855,749.9855)"
   id="g4">
	<path
   style="fill:#d3d3d3"
   id="path2"
   d="m 37.972,39.09 c 9.492,0 9.492,8 18.984,8 9.492,0 9.492,-8 18.984,-8 9.494,0 9.494,8 18.987,8 9.493,0 9.493,-8 18.985,-8 9.492,0 9.492,8 18.984,8 9.492,0 9.492,-8 18.984,-8 9.493,0 9.493,8 18.987,8 9.493,0 9.493,-8 18.985,-8 9.492,0 9.493,8 18.985,8 9.492,0 9.492,-8 18.985,-8 9.494,0 9.494,8 18.988,8 9.492,0 9.492,-8 18.985,-8 9.493,0 9.493,8 18.985,8 9.493,0 9.493,-8 18.987,-8 9.493,0 9.493,8 18.986,8 9.493,0 9.493,-8 18.985,-8 9.493,0 9.493,8 18.986,8 9.493,0 9.493,-8 18.986,-8 9.493,0 9.493,8 18.985,8 9.492,0 9.492,-8 18.986,-8 9.493,0 9.493,8 18.986,8 9.493,0 9.493,-8 18.986,-8 9.494,0 9.494,8 18.987,8 9.493,0 9.493,-8 18.986,-8 9.493,0 9.493,8 18.986,8 9.494,0 9.494,-8 18.986,-8 9.493,0 9.493,8 18.986,8 9.494,0 9.494,-8 18.988,-8 9.493,0 9.493,8 18.985,8 9.494,0 9.494,-8 18.988,-8 9.493,0 9.493,8 18.986,8 9.494,0 9.494,-8 18.988,-8 9.492,0 9.492,8 18.985,8 9.494,0 9.494,-8 18.988,-8 9.493,0 9.493,8 18.987,8 9.49,0 9.49,-8 18.98,-8 9.492,0 9.492,8 18.984,8 9.493,0 9.493,-8 18.984,-8 9.491,0 9.491,8 18.982,8 9.492,0 9.492,-8 18.984,-8 9.492,0 9.492,8 18.985,8 9.491,0 9.491,-8 18.982,-8 9.494,0 9.494,8 18.987,8 9.491,0 9.491,-8 18.983,-8 9.493,0 9.493,8 18.985,8 9.494,0 9.494,-8 18.986,-8 9.492,0 9.492,8 18.984,8 9.495,0 9.495,-8 18.989,-8 9.492,0 9.492,8 18.985,8 9.494,0 9.494,-8 18.988,-8 9.493,0 9.493,8 18.986,8 9.494,0 9.494,-8 18.988,-8 9.494,0 9.494,8 18.986,8 9.493,0 9.493,-8 18.987,-8 9.494,0 9.494,8 18.988,8 9.495,0 9.495,-8 18.989,-8 9.494,0 9.494,8 18.988,8 9.494,0 9.494,-8 18.988,-8 9.494,0 9.494,8 18.988,8 9.494,0 9.494,-8 18.988,-8 9.494,0 9.494,8 18.989,8 9.496,0 9.496,-8 18.991,-8 9.495,0 9.495,8 18.989,8 9.496,0 9.496,-8 18.991,-8 9.494,0 9.494,8 18.988,8 9.494,0 9.494,-8 18.987,-8 9.494,0 9.494,8 18.988,8 9.496,0 9.496,-8 18.991,-8 9.494,0 9.494,8 18.988,8 9.495,0 9.495,-8 18.99,-8 9.495,0 9.495,8 18.991,8 9.496,0 9.496,-8 18.993,-8 9.494,0 9.494,8 18.987,8 9.497,0 9.497,-8 18.994,-8 9.497,0 9.497,8 18.995,8 9.5,0 9.5,-8 18.999,-8 9.499,0 9.499,7.999 18.997,8 V 0 H 0 v 39.09 c 9.493,0 9.493,8 18.987,8 9.492,0 9.492,-8 18.985,-8 z" />
</g>
</svg>