<?xml version="1.0" encoding="utf-8"?>
<!-- Generator: Adobe Illustrator 15.0.0, SVG Export Plug-In . SVG Version: 6.00 Build 0)  -->
<!DOCTYPE svg PUBLIC "-//W3C//DTD SVG 1.1//EN" "http://www.w3.org/Graphics/SVG/1.1/DTD/svg11.dtd">
<svg version="1.1" id="Layer_1" xmlns="http://www.w3.org/2000/svg" xmlns:xlink="http://www.w3.org/1999/xlink" x="0px" y="0px"
	 preserveAspectRatio="none" viewBox="0 0 1500 150" enable-background="new 0 0 1500 150" xml:space="preserve">
<g>
	<path opacity="0.6" fill="#D3D3D3" d="M578.627,49.812L654.27,63.76l-86.084-36.35c-23.971-10.122-63.254-10.264-87.297-0.316
		l-61.197,25.321l65.334-6.499C510.918,43.341,553.039,45.094,578.627,49.812z"/>
	<path opacity="0.6" fill="#D3D3D3" d="M828.731,100.742l33.209-13.894c24.004-10.042,64.463-13.813,89.909-8.381l120.842,25.795
		L965.354,56.829c-23.8-10.518-64.129-14.858-89.621-9.646L774.44,67.895c-25.492,5.212-67.286,5.617-92.874,0.898L654.27,63.76
		l87.236,36.836C765.476,110.719,804.728,110.784,828.731,100.742z"/>
	<path opacity="0.6" fill="#D3D3D3" d="M1207.487,124.136l23.571-11.643l-15.121,3.062c-25.502,5.164-67.187,4.944-92.633-0.488
		l-50.613-10.805l49.107,21.702C1145.598,136.481,1184.158,135.659,1207.487,124.136z"/>
	<path opacity="0.6" fill="#D3D3D3" d="M224.835,63.473l74.561,11.919c25.693,4.108,66.387-0.671,90.43-10.619l29.866-12.357
		l-70.002,6.963c-25.892,2.575-67.572-1.074-92.623-8.109l-61.899-17.386c-25.051-7.036-66.008-6.916-91.017,0.267L0,64.062v32.227
		L131.977,66.44C157.355,60.701,199.142,59.365,224.835,63.473z"/>
	<path fill="#D3D3D3" d="M0,0v64.062L104.151,34.15c25.009-7.182,65.966-7.302,91.017-0.267l61.899,17.386
		c25.051,7.036,66.73,10.685,92.623,8.109l70.002-6.963l61.197-25.321c24.043-9.948,63.326-9.806,87.297,0.316l86.084,36.35
		l27.297,5.033c25.588,4.718,67.382,4.314,92.874-0.898l101.293-20.711c25.492-5.212,65.821-0.872,89.621,9.646l107.337,47.434
		l50.613,10.805c25.446,5.433,67.131,5.652,92.633,0.488l15.121-3.062l22.088-10.909c23.329-11.523,63.531-18.23,89.338-14.905
		l27.653,3.563c25.807,3.325,65.583-1.205,88.392-10.067S1500,64.062,1500,64.062V0H0z"/>
	<path opacity="0.6" fill="#D3D3D3" d="M1370.138,90.242l-27.653-3.563c-25.807-3.325-66.009,3.382-89.338,14.905l-22.088,10.909
		l18.139-3.673c25.502-5.164,67.11-4.601,92.464,1.252l33.8,7.803c25.354,5.853,63.746,3.39,85.318-5.473
		c21.571-8.863,39.221-16.114,39.221-16.114V64.062c0,0-18.662,7.251-41.471,16.113S1395.944,93.567,1370.138,90.242z"/>
</g>
</svg>
