<?xml version="1.0" encoding="UTF-8" standalone="no"?>
<svg
   xmlns:dc="http://purl.org/dc/elements/1.1/"
   xmlns:cc="http://creativecommons.org/ns#"
   xmlns:rdf="http://www.w3.org/1999/02/22-rdf-syntax-ns#"
   xmlns:svg="http://www.w3.org/2000/svg"
   xmlns="http://www.w3.org/2000/svg"
   height="1500.001"
   width="133.34485"
   xml:space="preserve"
   enable-background="new 0 0 1500 150"
   viewBox="0 0 133.34485 1500.001"
   preserveAspectRatio="none"
   y="0px"
   x="0px"
   id="Layer_1"
   version="1.1"><metadata
   id="metadata21"><rdf:RDF><cc:Work
       rdf:about=""><dc:format>image/svg+xml</dc:format><dc:type
         rdf:resource="http://purl.org/dc/dcmitype/StillImage" /><dc:title></dc:title></cc:Work></rdf:RDF></metadata><defs
   id="defs19" />
<g
   transform="rotate(-90,750.0005,750.0005)"
   id="g14">
	<path
   style="opacity:0.6;fill:#d3d3d3"
   id="path2"
   d="M 578.627,49.812 654.27,63.76 568.186,27.41 C 544.215,17.288 504.932,17.146 480.889,27.094 l -61.197,25.321 65.334,-6.499 c 25.892,-2.575 68.013,-0.822 93.601,3.896 z" />
	<path
   style="opacity:0.6;fill:#d3d3d3"
   id="path4"
   d="M 828.731,100.742 861.94,86.848 c 24.004,-10.042 64.463,-13.813 89.909,-8.381 L 1072.691,104.262 965.354,56.829 C 941.554,46.311 901.225,41.971 875.733,47.183 L 774.44,67.895 c -25.492,5.212 -67.286,5.617 -92.874,0.898 l -27.296,-5.033 87.236,36.836 c 23.97,10.123 63.222,10.188 87.225,0.146 z" />
	<path
   style="opacity:0.6;fill:#d3d3d3"
   id="path6"
   d="m 1207.487,124.136 23.571,-11.643 -15.121,3.062 c -25.502,5.164 -67.187,4.944 -92.633,-0.488 l -50.613,-10.805 49.107,21.702 c 23.8,10.517 62.36,9.695 85.689,-1.828 z" />
	<path
   style="opacity:0.6;fill:#d3d3d3"
   id="path8"
   d="m 224.835,63.473 74.561,11.919 c 25.693,4.108 66.387,-0.671 90.43,-10.619 L 419.692,52.416 349.69,59.379 C 323.798,61.954 282.118,58.305 257.067,51.27 L 195.168,33.884 C 170.117,26.848 129.16,26.968 104.151,34.151 L 0,64.062 V 96.289 L 131.977,66.44 c 25.378,-5.739 67.165,-7.075 92.858,-2.967 z" />
	<path
   style="fill:#d3d3d3"
   id="path10"
   d="M 0,0 V 64.062 L 104.151,34.15 c 25.009,-7.182 65.966,-7.302 91.017,-0.267 l 61.899,17.386 c 25.051,7.036 66.73,10.685 92.623,8.109 l 70.002,-6.963 61.197,-25.321 c 24.043,-9.948 63.326,-9.806 87.297,0.316 l 86.084,36.35 27.297,5.033 c 25.588,4.718 67.382,4.314 92.874,-0.898 L 875.734,47.184 c 25.492,-5.212 65.821,-0.872 89.621,9.646 l 107.337,47.434 50.613,10.805 c 25.446,5.433 67.131,5.652 92.633,0.488 l 15.121,-3.062 22.088,-10.909 c 23.329,-11.523 63.531,-18.23 89.338,-14.905 l 27.653,3.563 c 25.807,3.325 65.583,-1.205 88.392,-10.067 C 1481.339,71.315 1500,64.062 1500,64.062 V 0 Z" />
	<path
   style="opacity:0.6;fill:#d3d3d3"
   id="path12"
   d="m 1370.138,90.242 -27.653,-3.563 c -25.807,-3.325 -66.009,3.382 -89.338,14.905 l -22.088,10.909 18.139,-3.673 c 25.502,-5.164 67.11,-4.601 92.464,1.252 l 33.8,7.803 c 25.354,5.853 63.746,3.39 85.318,-5.473 21.571,-8.863 39.221,-16.114 39.221,-16.114 V 64.062 c 0,0 -18.662,7.251 -41.471,16.113 -22.809,8.862 -62.586,13.392 -88.392,10.067 z" />
</g>
</svg>