<?xml version="1.0" encoding="UTF-8" standalone="no"?>
<svg
   xmlns:dc="http://purl.org/dc/elements/1.1/"
   xmlns:cc="http://creativecommons.org/ns#"
   xmlns:rdf="http://www.w3.org/1999/02/22-rdf-syntax-ns#"
   xmlns:svg="http://www.w3.org/2000/svg"
   xmlns="http://www.w3.org/2000/svg"
   height="1500"
   width="45.594002"
   xml:space="preserve"
   enable-background="new 0 0 1500 150"
   viewBox="0 0 45.594002 1500"
   preserveAspectRatio="none"
   y="0px"
   x="0px"
   id="Layer_1"
   version="1.1"><metadata
   id="metadata11"><rdf:RDF><cc:Work
       rdf:about=""><dc:format>image/svg+xml</dc:format><dc:type
         rdf:resource="http://purl.org/dc/dcmitype/StillImage" /><dc:title></dc:title></cc:Work></rdf:RDF></metadata><defs
   id="defs9" />
<g
   transform="rotate(-90,750,750)"
   id="g4">
	<polygon
   style="fill:#d3d3d3"
   id="polygon2"
   points="38.455,33.594 57.683,45.594 76.913,33.594 96.142,45.594 115.37,33.594 134.598,45.594 153.828,33.594 173.057,45.594 192.285,33.594 211.513,45.594 230.744,33.594 249.973,45.594 269.201,33.594 288.431,45.594 307.66,33.594 326.889,45.594 346.119,33.594 365.348,45.594 384.577,33.594 403.807,45.594 423.037,33.594 442.266,45.594 461.497,33.594 480.726,45.594 499.956,33.594 519.186,45.594 538.416,33.594 557.647,45.594 576.876,33.594 596.107,45.594 615.337,33.594 634.568,45.594 653.798,33.594 673.03,45.594 692.26,33.594 711.491,45.594 730.719,33.594 749.947,45.594 769.173,33.594 788.4,45.594 807.63,33.594 826.856,45.594 846.086,33.594 865.314,45.594 884.542,33.594 903.772,45.594 923.001,33.594 942.233,45.594 961.462,33.594 980.694,45.594 999.924,33.594 1019.154,45.594 1038.386,33.594 1057.615,45.594 1076.848,33.594 1096.081,45.594 1115.312,33.594 1134.545,45.594 1153.776,33.594 1173.008,45.594 1192.241,33.594 1211.476,45.594 1230.709,33.594 1249.942,45.594 1269.176,33.594 1288.406,45.594 1307.638,33.594 1326.873,45.594 1346.105,33.594 1365.339,45.594 1384.572,33.594 1403.81,45.594 1423.046,33.594 1442.282,45.594 1461.52,33.594 1480.76,45.594 1500,33.594 1500,0 0,0 0,33.594 19.228,45.594 " />
</g>
</svg>