<?xml version="1.0" standalone="no"?><svg xmlns="http://www.w3.org/2000/svg" xmlns:xlink="http://www.w3.org/1999/xlink" style="isolation:isolate" viewBox="0 0 512 300" shape-rendering="crispEdges" preserveAspectRatio="none"><defs><clipPath id="_clipPath_R41aHuXDlYg1CUA8AQyxnLvxntXBbvQM"><rect width="512" height="300"/></clipPath></defs><g clip-path="url(#_clipPath_R41aHuXDlYg1CUA8AQyxnLvxntXBbvQM)"><rect x="0" y="0" width="67" height="300" transform="matrix(1,0,0,1,0,0)" fill="rgb(54,54,54)"/><rect x="89" y="0" width="67" height="300" transform="matrix(1,0,0,1,0,0)" fill="rgb(54,54,54)"/><rect x="178" y="0" width="67" height="300" transform="matrix(1,0,0,1,0,0)" fill="rgb(54,54,54)"/><rect x="267" y="0" width="67" height="300" transform="matrix(1,0,0,1,0,0)" fill="rgb(54,54,54)"/><rect x="356" y="0" width="67" height="300" transform="matrix(1,0,0,1,0,0)" fill="rgb(54,54,54)"/><rect x="445" y="0" width="67" height="300" transform="matrix(1,0,0,1,0,0)" fill="rgb(54,54,54)"/></g></svg>